<?xml version="1.0" encoding="UTF-8" standalone="no"?><!DOCTYPE svg PUBLIC "-//W3C//DTD SVG 1.1//EN" "http://www.w3.org/Graphics/SVG/1.1/DTD/svg11.dtd"><svg width="100%" height="100%" viewBox="0 0 17 17" version="1.1" xmlns="http://www.w3.org/2000/svg" xmlns:xlink="http://www.w3.org/1999/xlink" xml:space="preserve" style="fill-rule:evenodd;clip-rule:evenodd;stroke-linejoin:round;stroke-miterlimit:1.41421;"><rect x="0" y="0" width="17" height="17" style="fill:none;"/><path d="M8.301,1.005c0.685,-0.01 -0.385,-0.001 0.301,-0.001c0.422,0.007 0.836,0.078 1.233,0.23c1.01,0.386 1.822,1.245 2.188,2.312c0.139,0.403 0.209,0.823 0.219,1.25c0.009,1.022 0.002,2.044 0.001,3.066l1.757,0l0,8.138l-11,0l0,-8.138l7.697,0c-0.011,-1.038 0.046,-2.079 0.003,-3.117c-0.013,-0.233 -0.057,-0.46 -0.136,-0.679c-0.211,-0.58 -0.651,-1.051 -1.197,-1.279c-0.227,-0.095 -0.466,-0.143 -0.71,-0.154c-0.689,-0.011 0.378,-0.011 -0.312,0l0.312,0c-0.689,-0.011 0.378,-0.011 -0.312,0c-0.243,0.011 -0.482,0.059 -0.71,0.154c-0.569,0.239 -1.022,0.738 -1.221,1.351c-0.071,0.22 -0.114,0.236 -0.114,0.236l-1.539,0c0,0 0.087,-0.447 0.218,-0.828c0.354,-1.031 1.125,-1.869 2.09,-2.272c0.395,-0.166 0.808,-0.249 1.232,-0.269c0.685,-0.01 -0.385,-0.001 0.301,-0.001l-0.301,0.001l0,0Z" style="fill:#999;fill-opacity:0.447059;"/></svg>