<?xml version="1.0" encoding="UTF-8" standalone="no"?><!DOCTYPE svg PUBLIC "-//W3C//DTD SVG 1.1//EN" "http://www.w3.org/Graphics/SVG/1.1/DTD/svg11.dtd"><svg width="100%" height="100%" viewBox="0 0 23 23" version="1.1" xmlns="http://www.w3.org/2000/svg" xmlns:xlink="http://www.w3.org/1999/xlink" xml:space="preserve" xmlns:serif="http://www.serif.com/" style="fill-rule:evenodd;clip-rule:evenodd;stroke-linecap:round;stroke-miterlimit:1.5;"><g><path d="M5.302,14.073l2.198,0l0,-5.146l-2.198,0l0,-2.573l-4.302,5.146l4.302,5.146l0,-2.573Z" style="fill:#e0e0e0;stroke:#000;stroke-opacity:0.752941;stroke-width:1px;"/><path d="M16.868,14.073l-2.368,0l0,-5.146l2.368,0l0,-2.573l4.632,5.146l-4.632,5.146l0,-2.573Z" style="fill:#e0e0e0;stroke:#000;stroke-opacity:0.752941;stroke-width:1px;"/><path d="M13.573,5.632l0,2.368l-5.146,0l0,-2.368l-2.573,0l5.146,-4.632l5.146,4.632l-2.573,0Z" style="fill:#e0e0e0;stroke:#000;stroke-opacity:0.752941;stroke-width:1px;"/><path d="M13.573,17.368l0,-2.368l-5.146,0l0,2.368l-2.573,0l5.146,4.632l5.146,-4.632l-2.573,0Z" style="fill:#e0e0e0;stroke:#000;stroke-opacity:0.752941;stroke-width:1px;"/><rect x="9" y="9.5" width="4" height="4" style="fill:#ddd;stroke:#000;stroke-opacity:0.74902;stroke-width:1px;stroke-linejoin:round;"/></g></svg>