<?xml version="1.0" encoding="UTF-8" standalone="no"?><!DOCTYPE svg PUBLIC "-//W3C//DTD SVG 1.1//EN" "http://www.w3.org/Graphics/SVG/1.1/DTD/svg11.dtd"><svg width="100%" height="100%" viewBox="0 0 20 20" version="1.1" xmlns="http://www.w3.org/2000/svg" xmlns:xlink="http://www.w3.org/1999/xlink" xml:space="preserve" xmlns:serif="http://www.serif.com/" style="fill-rule:evenodd;clip-rule:evenodd;stroke-linecap:round;stroke-linejoin:round;stroke-miterlimit:1.5;"><path d="M6.658,10.376l5.372,-5.411l6.763,0l0,14.535l-12.154,0l0.019,-9.124Z" style="fill-opacity:0.501961;stroke:#000;stroke-opacity:0.501961;stroke-width:0.5px;"/><path d="M1.895,7.345l5.371,-5.411l6.764,0l0,14.535l-12.154,0l0.019,-9.124Z" style="fill-opacity:0.501961;stroke:#000;stroke-opacity:0.501961;stroke-width:0.5px;"/><path d="M6.641,1l6.722,0l0,3.031l4.763,0l0,15.101l-12.281,0l0,-3.031l-4.763,0l0,-9.175l5.559,-5.926Z" style="fill:#fff;stroke:#000;stroke-opacity:0.745098;stroke-width:0.7px;"/><rect x="7" y="5" width="6" height="10.5" style="fill:none;stroke:#000;stroke-opacity:0.745098;stroke-width:0.55px;stroke-dasharray:1.65,1.65,0,0;"/><path d="M6.559,1.178l-5.506,5.734l5.011,-0.029l0.495,-5.705Z" style="stroke:#000;stroke-width:0.5px;"/><path d="M5.821,6.549c0.08,0.072 -4.821,0.336 -4.821,0.336l2.156,-2.225l3.461,-3.573c0,0 -0.814,5.446 -0.796,5.462Z" style="fill:#d8d8d8;stroke:#000;stroke-opacity:0.745098;stroke-width:0.65px;"/></svg>