<?xml version="1.0" encoding="UTF-8" standalone="no"?><!DOCTYPE svg PUBLIC "-//W3C//DTD SVG 1.1//EN" "http://www.w3.org/Graphics/SVG/1.1/DTD/svg11.dtd"><svg width="100%" height="100%" viewBox="0 0 20 20" version="1.1" xmlns="http://www.w3.org/2000/svg" xmlns:xlink="http://www.w3.org/1999/xlink" xml:space="preserve" xmlns:serif="http://www.serif.com/" style="fill-rule:evenodd;clip-rule:evenodd;stroke-linecap:round;stroke-linejoin:round;stroke-miterlimit:1.5;"><g><path d="M6.515,8.897l3.092,-3.324l3.893,0l0,8.927l-6.996,0l0.011,-5.603Z" style="fill-opacity:0.501961;stroke:#000;stroke-opacity:0.501961;stroke-width:0.5px;"/><path d="M13.116,5l-3.869,0l-3.2,3.64l0,5.634l7.069,0l0,-9.274Z" style="fill:#fff;stroke:#000;stroke-opacity:0.745098;stroke-width:0.5px;"/><path d="M9.2,5.109l-3.17,3.522l2.885,-0.018l0.285,-3.504Z" style="stroke:#000;stroke-width:0.5px;"/><path d="M8.775,8.408c0.046,0.044 -2.775,0.206 -2.775,0.206l1.241,-1.367l1.992,-2.194c0,0 -0.468,3.345 -0.458,3.355Z" style="fill:#d8d8d8;stroke:#000;stroke-opacity:0.745098;stroke-width:0.5px;"/></g><path d="M10,1c4.967,0 9,4.033 9,9c0,4.967 -4.033,9 -9,9c-4.967,0 -9,-4.033 -9,-9c0,-4.967 4.033,-9 9,-9Zm4.514,4.467l-7.386,10.251c0.864,0.435 1.84,0.68 2.872,0.68c3.531,0 6.398,-2.867 6.398,-6.398c0,-1.771 -0.72,-3.374 -1.884,-4.533Zm-1.796,-1.26c-0.825,-0.388 -1.747,-0.605 -2.718,-0.605c-3.531,0 -6.398,2.867 -6.398,6.398c0,1.709 0.671,3.263 1.765,4.411l7.351,-10.204Z" style="fill:#e0e0e0;stroke:#000;stroke-width:1px;stroke-linejoin:miter;"/></svg>