<?xml version="1.0" encoding="UTF-8" standalone="no"?><!DOCTYPE svg PUBLIC "-//W3C//DTD SVG 1.1//EN" "http://www.w3.org/Graphics/SVG/1.1/DTD/svg11.dtd"><svg width="100%" height="100%" viewBox="0 0 20 20" version="1.1" xmlns="http://www.w3.org/2000/svg" xmlns:xlink="http://www.w3.org/1999/xlink" xml:space="preserve" xmlns:serif="http://www.serif.com/" style="fill-rule:evenodd;clip-rule:evenodd;stroke-linecap:round;stroke-miterlimit:1.5;"><g><path d="M12.27,18.201l-11.27,0c0,-1.189 1.075,-2.233 2.686,-2.815c-0.275,-0.478 -0.432,-1.029 -0.432,-1.616c0,-1.09 1.599,-2.725 2.229,-3.313c-1.029,-0.514 -2.229,-2.188 -2.229,-3.449c0,-0.613 0.171,-1.187 0.47,-1.679c-1.632,-0.579 -2.724,-1.63 -2.724,-2.829l11.27,0l0,0.021c-0.013,1.19 -1.101,2.232 -2.723,2.808c0.298,0.492 0.469,1.066 0.469,1.679c0,1.237 -1.242,2.909 -2.254,3.459c0.001,0.04 2.254,2.148 2.254,3.303c0,0.587 -0.157,1.138 -0.432,1.616c1.602,0.578 2.674,1.613 2.686,2.794l0,0.021Z" style="fill:#e0e0e0;stroke:#000;stroke-opacity:0.74902;stroke-width:1px;"/><path d="M12.143,12.875l-1.143,0l0,-5.25l3.428,0l0,-2.625l4.57,5.25l-4.57,5.25l0,-2.625l-2.285,0Z" style="fill:#e0e0e0;stroke:#000;stroke-opacity:0.752941;stroke-width:1px;"/></g></svg>