<svg xmlns="http://www.w3.org/2000/svg" width="16" height="16" viewBox="0 0 4.233333 4.2333332"><g transform="translate(.265 -292.502)" fill-opacity=".294"><title>cam_unlock</title><path d="M.794 294.354c-.147 0-.265.118-.265.265v1.85c0 .148.116.266.263.266H3.44c.146 0 .264-.12.264-.266v-1.85c0-.148-.118-.266-.264-.266zm1.323.662a.397.397 0 0 1 .397.396.397.397 0 0 1-.397.397.397.397 0 0 1-.397-.398.397.397 0 0 1 .397-.397z" paint-order="stroke fill markers"/><path d="M2.117 292.767c-.73 0-1.323.592-1.323 1.323v.265h.53v-.265c0-.438.354-.794.793-.794.288 0 .536.155.674.384l.38-.38c-.24-.322-.62-.533-1.053-.533z" paint-order="stroke fill markers"/></g><g fill="#bababa" transform="translate(0 -292.767)"><title>cam_unlock</title><path d="M.794 294.354c-.147 0-.265.118-.265.265v1.85c0 .148.116.266.263.266H3.44c.146 0 .264-.12.264-.266v-1.85c0-.148-.118-.266-.264-.266zm1.323.662a.397.397 0 0 1 .397.396.397.397 0 0 1-.397.397.397.397 0 0 1-.397-.398.397.397 0 0 1 .397-.397z" paint-order="stroke fill markers"/><path d="M2.117 292.767c-.73 0-1.323.592-1.323 1.323v.265h.53v-.265c0-.438.354-.794.793-.794.288 0 .536.155.674.384l.38-.38c-.24-.322-.62-.533-1.053-.533z" paint-order="stroke fill markers"/></g></svg>