<svg xmlns="http://www.w3.org/2000/svg" width="16" height="16" viewBox="0 0 4.233333 4.2333332"><g transform="translate(.265 .264)" fill-opacity=".294"><title>cam_lock</title><path d="M.794 1.587c-.147 0-.265.118-.265.265v1.852c0 .147.116.265.263.265H3.44c.146 0 .264-.12.264-.267v-1.85c0-.148-.118-.266-.264-.266zm1.323.662a.397.397 0 0 1 .397.395.397.397 0 0 1-.397.397.397.397 0 0 1-.397-.397.397.397 0 0 1 .397-.397z" paint-order="stroke fill markers"/><path d="M2.117 0C1.387 0 .794.592.794 1.323v.265h.53v-.265c0-.438.354-.794.793-.794.438 0 .793.354.793.792v.265h.53v-.265C3.44.592 2.847 0 2.117 0z" paint-order="stroke fill markers"/></g><g fill="#ea8a7e"><title>cam_lock</title><path d="M.794 1.587c-.147 0-.265.118-.265.265v1.852c0 .147.116.265.263.265H3.44c.146 0 .264-.12.264-.267v-1.85c0-.148-.118-.266-.264-.266zm1.323.662a.397.397 0 0 1 .397.395.397.397 0 0 1-.397.397.397.397 0 0 1-.397-.397.397.397 0 0 1 .397-.397z" paint-order="stroke fill markers"/><path d="M2.117 0C1.387 0 .794.592.794 1.323v.265h.53v-.265c0-.438.354-.794.793-.794.438 0 .793.354.793.792v.265h.53v-.265C3.44.592 2.847 0 2.117 0z" paint-order="stroke fill markers"/></g></svg>