<svg xmlns="http://www.w3.org/2000/svg" width="11" height="11" viewBox="0 0 2.9104166 2.9104168"><g transform="translate(0 -294.09)"><ellipse cx="1.455" cy="295.545" rx=".926" ry=".926" fill="#ea8a7e" paint-order="stroke fill markers"/><path d="M1.455 294.09A1.455 1.455 0 0 0 0 295.545 1.455 1.455 0 0 0 1.455 297a1.455 1.455 0 0 0 1.455-1.455 1.455 1.455 0 0 0-1.455-1.455zm0 .265a1.19 1.19 0 0 1 1.19 1.19 1.19 1.19 0 0 1-1.19 1.19 1.19 1.19 0 0 1-1.19-1.19 1.19 1.19 0 0 1 1.19-1.19z" fill="#fff" fill-opacity=".529"/></g></svg>