<?xml version="1.0" encoding="UTF-8" standalone="no"?>
<!DOCTYPE svg PUBLIC "-//W3C//DTD SVG 1.1//EN" "http://www.w3.org/Graphics/SVG/1.1/DTD/svg11.dtd">
<svg width="100%" height="100%" viewBox="0 0 18 18" version="1.1" xmlns="http://www.w3.org/2000/svg" xmlns:xlink="http://www.w3.org/1999/xlink" xml:space="preserve" style="fill-rule:evenodd;clip-rule:evenodd;stroke-linejoin:round;stroke-miterlimit:1.41421;">
    <rect x="0" y="0" width="18" height="18" style="fill:none;"/>
    <rect x="5" y="9" width="9" height="6"/>
    <path d="M6.02,5.044C5.985,4.001 6.004,5.62 6.019,4.577C6.027,4.407 6.051,4.24 6.101,4.077C6.188,3.792 6.345,3.527 6.522,3.29C6.913,2.768 7.458,2.371 8.074,2.168C8.369,2.071 8.674,2.022 8.983,2.014C10.017,2.004 9.051,1.987 10.084,2.015C10.375,2.028 10.661,2.077 10.938,2.168C11.554,2.371 12.099,2.768 12.49,3.29C12.667,3.527 12.825,3.792 12.911,4.077C12.961,4.24 12.986,4.407 12.993,4.577C13.007,5.549 12.995,6.977 12.994,8L14,8L14.065,8.002L14.131,8.009L14.195,8.019L14.259,8.034L14.321,8.053L14.383,8.076L14.442,8.103L14.5,8.134L14.556,8.169L14.609,8.207L14.659,8.248L14.707,8.293L14.752,8.341L14.793,8.391L14.831,8.444L14.866,8.5L14.897,8.558L14.924,8.617L14.947,8.679L14.966,8.741L14.981,8.805L14.991,8.869L14.998,8.935L15,9L15,15L14.998,15.065L14.991,15.131L14.981,15.195L14.966,15.259L14.947,15.321L14.924,15.383L14.897,15.442L14.866,15.5L14.831,15.556L14.793,15.609L14.752,15.659L14.707,15.707L14.659,15.752L14.609,15.793L14.556,15.831L14.5,15.866L14.442,15.897L14.383,15.924L14.321,15.947L14.259,15.966L14.195,15.981L14.131,15.991L14.065,15.998L14,16L5,16L4.935,15.998L4.869,15.991L4.805,15.981L4.741,15.966L4.679,15.947L4.617,15.924L4.558,15.897L4.5,15.866L4.444,15.831L4.391,15.793L4.341,15.752L4.293,15.707L4.248,15.659L4.207,15.609L4.169,15.556L4.134,15.5L4.103,15.442L4.076,15.383L4.053,15.321L4.034,15.259L4.019,15.195L4.009,15.131L4.002,15.065L4,15L4,9L4.002,8.935L4.009,8.869L4.019,8.805L4.034,8.741L4.053,8.679L4.076,8.617L4.103,8.558L4.134,8.5L4.169,8.444L4.207,8.391L4.248,8.341L4.293,8.293L4.341,8.248L4.391,8.207L4.444,8.169L4.5,8.134L4.558,8.103L4.617,8.076L4.679,8.053L4.741,8.034L4.805,8.019L4.869,8.009L4.935,8.002L5,8L11.703,8C11.687,6.968 11.776,5.549 11.704,4.58C11.692,4.465 11.649,4.369 11.592,4.27C11.542,4.183 11.485,4.1 11.422,4.021C11.173,3.711 10.83,3.481 10.448,3.377C10.304,3.337 10.156,3.318 10.006,3.314C9.006,3.305 10.006,3.305 9.006,3.314C8.857,3.318 8.709,3.337 8.564,3.377C8.182,3.481 7.839,3.711 7.59,4.021C7.534,4.091 7.483,4.164 7.438,4.241C7.402,4.3 7.367,4.36 7.343,4.425C7.32,4.486 7.309,4.55 7.306,4.615L7.305,4.687L7.306,4.952C7.307,4.954 7.307,4.968 7.306,5L7.306,4.952C7.301,4.943 7.273,5.221 7.233,5.299C7.193,5.378 7.136,5.448 7.068,5.504C7.011,5.551 6.947,5.588 6.878,5.612C6.624,5.704 6.333,5.621 6.163,5.41C6.077,5.304 6.034,5.179 6.02,5.044C5.985,4.001 6.004,5.62 6.019,4.577L6.02,5.044ZM14,9L5,9L5,15L14,15L14,9Z"/>
</svg>
