<?xml version="1.0" encoding="UTF-8" standalone="no"?><!DOCTYPE svg PUBLIC "-//W3C//DTD SVG 1.1//EN" "http://www.w3.org/Graphics/SVG/1.1/DTD/svg11.dtd"><svg width="100%" height="100%" viewBox="0 0 18 18" version="1.1" xmlns="http://www.w3.org/2000/svg" xmlns:xlink="http://www.w3.org/1999/xlink" xml:space="preserve" style="fill-rule:evenodd;clip-rule:evenodd;stroke-linejoin:round;stroke-miterlimit:1.41421;"><path d="M9.88,3.065c-0.583,-0.087 -1.177,-0.087 -1.76,0l-0.501,2.107c-0.119,0.042 -0.235,0.091 -0.349,0.144l-1.844,-1.135c-0.474,0.351 -0.894,0.771 -1.245,1.245l1.135,1.844c-0.053,0.114 -0.102,0.23 -0.144,0.349l-2.107,0.501c-0.087,0.583 -0.087,1.177 0,1.76l2.107,0.501c0.042,0.119 0.091,0.235 0.144,0.349l-1.135,1.844c0.351,0.474 0.771,0.894 1.245,1.245l1.844,-1.135c0.114,0.053 0.23,0.102 0.349,0.144l0.501,2.107c0.583,0.087 1.177,0.087 1.76,0l0.501,-2.107c0.119,-0.042 0.235,-0.091 0.349,-0.144l1.844,1.135c0.474,-0.351 0.894,-0.771 1.245,-1.245l-1.135,-1.844c0.053,-0.114 0.102,-0.23 0.144,-0.349l2.107,-0.501c0.087,-0.583 0.087,-1.177 0,-1.76l-2.107,-0.501c-0.042,-0.119 -0.091,-0.235 -0.144,-0.349l1.135,-1.844c-0.351,-0.474 -0.771,-0.894 -1.245,-1.245l-1.844,1.135c-0.114,-0.053 -0.23,-0.102 -0.349,-0.144l-0.501,-2.107Zm-0.88,3.859c1.146,0 2.076,0.93 2.076,2.076c0,1.146 -0.93,2.076 -2.076,2.076c-1.146,0 -2.076,-0.93 -2.076,-2.076c0,-1.146 0.93,-2.076 2.076,-2.076Z" style="fill:#ebebeb;"/></svg>