<?xml version="1.0" encoding="UTF-8" standalone="no"?><!DOCTYPE svg PUBLIC "-//W3C//DTD SVG 1.1//EN" "http://www.w3.org/Graphics/SVG/1.1/DTD/svg11.dtd"><svg width="100%" height="100%" viewBox="0 0 20 20" version="1.1" xmlns="http://www.w3.org/2000/svg" xmlns:xlink="http://www.w3.org/1999/xlink" xml:space="preserve" xmlns:serif="http://www.serif.com/" style="fill-rule:evenodd;clip-rule:evenodd;stroke-linecap:round;stroke-miterlimit:1.5;"><g><path d="M5.487,0.5c2.753,0 4.988,2.394 4.988,5.343c0,2.949 -2.235,5.343 -4.988,5.343c-2.752,0 -4.987,-2.394 -4.987,-5.343c0,-2.949 2.235,-5.343 4.987,-5.343Zm0,2.342c1.547,0 2.802,1.345 2.802,3.001c0,1.657 -1.255,3.002 -2.802,3.002c-1.546,0 -2.801,-1.345 -2.801,-3.002c0,-1.656 1.255,-3.001 2.801,-3.001Z" style="fill:#fffcfc;stroke:#000;stroke-opacity:0.752941;stroke-width:1px;"/><path d="M19.5,16.708c-1.738,0.432 0.2,-8.654 -2.119,-7.782c-0.795,0.298 -0.558,0.927 -1.819,-0.682c-0.202,-0.258 -0.958,0.401 -1.517,0.43c-0.267,0.013 -0.679,-0.459 -0.866,-0.61c-0.224,-0.181 -1.354,0.635 -1.633,1.463c-0.172,0.514 -1.169,-0.618 -2.626,-1.432c-1.443,-0.806 -3.233,-3.94 -4.447,-3.295c-1.804,0.96 1.421,3.761 3.209,5.982c1.327,1.646 1.875,4.112 1.664,4.578c-0.722,0.091 -1.422,0.43 -1.931,0.258c-2.432,-0.822 -3.364,0.873 -2.947,1.588c0.417,0.715 2.168,0.175 3.548,0.841c1.251,0.604 5.431,1.494 7.426,1.452l4.058,-2.791Z" style="fill:#e0e0e0;stroke:#000;stroke-opacity:0.745098;stroke-width:1px;"/></g></svg>