<?xml version="1.0" encoding="UTF-8" standalone="no"?><!DOCTYPE svg PUBLIC "-//W3C//DTD SVG 1.1//EN" "http://www.w3.org/Graphics/SVG/1.1/DTD/svg11.dtd"><svg width="100%" height="100%" viewBox="0 0 18 18" version="1.1" xmlns="http://www.w3.org/2000/svg" xmlns:xlink="http://www.w3.org/1999/xlink" xml:space="preserve" xmlns:serif="http://www.serif.com/" style="fill-rule:evenodd;clip-rule:evenodd;stroke-linejoin:round;stroke-miterlimit:1.41421;"><g><g><path d="M11.07,1l-5.035,0l-5.035,5.571l0,7.429l10.07,0l0,-13Z" style="fill:#fff;"/><path d="M11.07,14l-10.07,0l0,-7.429l5.035,-5.571l5.035,0l0,13Zm-4.728,-12.308l-4.65,5.146l0,6.47l8.687,0l0,-11.616l-4.037,0Z" style="fill:#181818;"/><path d="M5.577,6.571c0.066,0.059 -3.891,0.05 -3.891,0.05l4.42,-4.927c0,0 -0.543,4.864 -0.529,4.877Z" style="fill:#d8d8d8;"/><path d="M6.143,1.003l0.036,0.003l0.036,0.005l0.036,0.006l0.035,0.009l0.035,0.01l0.034,0.013l0.034,0.014l0.032,0.015l0.032,0.018l0.031,0.019l0.03,0.02l0.029,0.023l0.027,0.023l0.027,0.025l0.025,0.027l0.023,0.027l0.022,0.029l0.02,0.03l0.019,0.031l0.018,0.032l0.015,0.033l0.014,0.034l0.012,0.034l0.01,0.035l0.008,0.035l0.007,0.036l0.004,0.036l0.003,0.036l0.001,0.037l-0.002,0.036l-0.003,0.036l-0.084,0.76l-0.185,1.673l-0.098,0.894l-0.085,0.78l-0.032,0.311l-0.025,0.238l-0.014,0.149l0,0.004l-0.001,0.021l-0.002,0.036l-0.004,0.035l-0.006,0.035l-0.008,0.035l-0.01,0.035l-0.011,0.033l-0.013,0.034l-0.015,0.032l0,0.002l-0.017,0.032l-0.018,0.031l-0.02,0.03l-0.022,0.029l-0.023,0.028l-0.024,0.027l-0.026,0.025l-0.027,0.024l-0.028,0.023l-0.03,0.021l-0.03,0.019l-0.031,0.018l-0.033,0.016l-0.005,0.003l-0.028,0.012l-0.027,0.011l-0.029,0.009l-0.028,0.009l-0.029,0.007l-0.037,0.009l-0.06,0.008l-0.077,0.008l-0.085,0.005l-0.094,0.004l-0.109,0.004l-0.252,0.006l-0.297,0.006l-0.332,0.004l-0.355,0.003l-0.368,0.002l-0.723,0.003l-0.633,0l-0.618,0l-0.036,-0.001l-0.036,-0.003l-0.036,-0.005l-0.036,-0.006l-0.035,-0.009l-0.034,-0.01l-0.034,-0.012l-0.034,-0.014l-0.033,-0.016l-0.031,-0.017l-0.031,-0.019l-0.03,-0.02l-0.029,-0.022l-0.027,-0.024l-0.026,-0.025l-0.025,-0.026l-0.024,-0.027l-0.022,-0.029l-0.02,-0.03l-0.019,-0.031l-0.017,-0.031l-0.016,-0.033l-0.014,-0.034l-0.012,-0.034l-0.01,-0.034l-0.009,-0.035l-0.006,-0.036l-0.005,-0.036l-0.003,-0.036l-0.001,-0.036l0.001,-0.036l0.003,-0.036l0.004,-0.036l0.007,-0.036l0.008,-0.035l0.011,-0.035l0.012,-0.034l0.013,-0.033l0.016,-0.033l0.017,-0.032l0.019,-0.03l0.02,-0.03l0.022,-0.029l0.024,-0.028l4.42,-4.927l0.025,-0.027l0.027,-0.025l0.027,-0.023l0.029,-0.022l0.03,-0.021l0.031,-0.019l0.032,-0.017l0.032,-0.016l0.034,-0.014l0.034,-0.012l0.035,-0.01l0.035,-0.009l0.036,-0.006l0.036,-0.005l0.036,-0.003l0.037,-0.001l0.036,0.001Zm-4.457,5.618l0.617,0.001l0.631,-0.001l0.722,-0.003l0.366,-0.002l0.353,-0.003l0.329,-0.004l0.293,-0.005l0.246,-0.006l0.101,-0.004l0.085,-0.004l0.067,-0.004l0.048,-0.004l0.017,-0.003l0.011,-0.002l0.006,-0.003l0,-0.001l-0.001,-0.002l0.001,-0.015l0.003,-0.042l0.015,-0.156l0.025,-0.242l0.033,-0.312l0.084,-0.782l0.098,-0.894l0.185,-1.674l0.085,-0.76l-4.42,4.927Z" style="fill:#181818;"/></g><g><path d="M16,4l-5,0l-5,5.571l0,7.429l10,0l0,-13Z" style="fill:#fff;"/><path d="M16,17l-10,0l0,-7.429l5,-5.571l5,0l0,13Zm-4.692,-12.311l-4.619,5.146l0,6.476l8.622,0l0,-11.622l-4.003,0Z" style="fill:#181818;"/><path d="M10.545,9.571c0.065,0.059 -3.864,0.05 -3.864,0.05l4.389,-4.927c0,0 -0.539,4.864 -0.525,4.877Z" style="fill:#d8d8d8;"/><path d="M11.105,4.005l0.036,0.003l0.036,0.005l0.036,0.006l0.035,0.009l0.035,0.01l0.034,0.012l0.034,0.014l0.032,0.016l0.032,0.017l0.031,0.019l0.03,0.02l0.029,0.023l0.027,0.023l0.026,0.025l0.025,0.026l0.024,0.028l0.022,0.029l0.02,0.03l0.019,0.031l0.017,0.032l0.016,0.032l0.014,0.034l0.012,0.034l0.01,0.035l0.008,0.035l0.006,0.036l0.005,0.036l0.003,0.036l0.001,0.036l-0.002,0.036l-0.003,0.036l-0.084,0.76l-0.183,1.673l-0.098,0.894l-0.083,0.78l-0.033,0.311l-0.024,0.239l-0.014,0.148l-0.001,0.005l0,0.021l-0.002,0.035l-0.004,0.035l-0.006,0.035l-0.008,0.035l-0.009,0.034l-0.012,0.033l-0.013,0.033l-0.014,0.032l-0.001,0.002l-0.016,0.032l-0.018,0.031l-0.02,0.03l-0.022,0.029l-0.022,0.028l-0.025,0.027l-0.025,0.025l-0.027,0.024l-0.028,0.023l-0.029,0.021l-0.031,0.019l-0.031,0.018l-0.032,0.016l-0.006,0.003l-0.027,0.012l-0.028,0.011l-0.028,0.01l-0.029,0.008l-0.029,0.008l-0.037,0.008l-0.06,0.009l-0.077,0.007l-0.084,0.006l-0.094,0.004l-0.107,0.004l-0.25,0.006l-0.296,0.005l-0.33,0.004l-0.352,0.003l-0.365,0.003l-0.719,0.002l-0.628,0.001l-0.614,-0.001l-0.037,-0.001l-0.036,-0.003l-0.037,-0.004l-0.036,-0.007l-0.036,-0.009l-0.035,-0.011l-0.035,-0.012l-0.033,-0.015l-0.033,-0.016l-0.033,-0.018l-0.031,-0.02l-0.03,-0.021l-0.029,-0.023l-0.027,-0.024l-0.027,-0.026l-0.025,-0.027l-0.023,-0.028l-0.022,-0.03l-0.02,-0.031l-0.019,-0.032l-0.016,-0.032l-0.015,-0.034l-0.014,-0.034l-0.011,-0.035l-0.01,-0.036l-0.007,-0.036l-0.006,-0.036l-0.003,-0.037l-0.002,-0.037l0,-0.036l0.002,-0.037l0.004,-0.037l0.006,-0.036l0.009,-0.036l0.009,-0.036l0.012,-0.034l0.014,-0.035l0.015,-0.033l0.018,-0.033l0.019,-0.031l0.02,-0.031l0.022,-0.029l0.024,-0.028l4.39,-4.928l0.025,-0.026l0.026,-0.025l0.027,-0.024l0.029,-0.022l0.03,-0.021l0.03,-0.019l0.032,-0.017l0.033,-0.016l0.033,-0.014l0.034,-0.012l0.035,-0.011l0.035,-0.008l0.036,-0.007l0.036,-0.005l0.036,-0.002l0.036,-0.002l0.036,0.001Zm-4.424,5.616l0.613,0.001l0.627,-0.001l0.716,-0.003l0.363,-0.002l0.351,-0.003l0.327,-0.004l0.291,-0.005l0.244,-0.006l0.101,-0.004l0.084,-0.004l0.067,-0.004l0.048,-0.004l0.016,-0.003l0.011,-0.002l0.006,-0.003l0,-0.001l-0.001,-0.002l0.001,-0.015l0.003,-0.042l0.015,-0.156l0.024,-0.242l0.033,-0.312l0.084,-0.782l0.097,-0.894l0.184,-1.674l0.084,-0.76l-4.389,4.927Z" style="fill:#181818;"/></g></g></svg>