<?xml version="1.0" encoding="UTF-8" standalone="no"?>
<!-- Generator: Adobe Illustrator 10.0, SVG Export Plug-In . SVG Version: 3.0.0 Build 76)  -->

<svg
   xmlns:a="http://ns.adobe.com/AdobeSVGViewerExtensions/3.0/"
   xmlns:ns4="http://ns.adobe.com/SaveForWeb/1.0/"
   xmlns:ns3="http://ns.adobe.com/Variables/1.0/"
   xmlns:ns2="http://ns.adobe.com/AdobeIllustrator/10.0/"
   xmlns:dc="http://purl.org/dc/elements/1.1/"
   xmlns:cc="http://creativecommons.org/ns#"
   xmlns:rdf="http://www.w3.org/1999/02/22-rdf-syntax-ns#"
   xmlns:svg="http://www.w3.org/2000/svg"
   xmlns="http://www.w3.org/2000/svg"
   xmlns:sodipodi="http://sodipodi.sourceforge.net/DTD/sodipodi-0.dtd"
   xmlns:inkscape="http://www.inkscape.org/namespaces/inkscape"
   ns2:viewOrigin="387 312"
   ns2:rulerOrigin="0 0"
   ns2:pageBounds="0 600 800 0"
   width="26"
   height="26"
   viewBox="0 0 26 26"
   overflow="visible"
   enable-background="new 0 0 26 26"
   xml:space="preserve"
   version="1.1"
   id="svg33"
   sodipodi:docname="fill_area_rollover.svg"
   inkscape:version="0.92.1 r15371"><sodipodi:namedview
     pagecolor="#ffffff"
     bordercolor="#666666"
     borderopacity="1"
     objecttolerance="10"
     gridtolerance="10"
     guidetolerance="10"
     inkscape:pageopacity="0"
     inkscape:pageshadow="2"
     inkscape:window-width="1129"
     inkscape:window-height="762"
     id="namedview35"
     showgrid="false"
     inkscape:zoom="18.153846"
     inkscape:cx="10.671708"
     inkscape:cy="13.695609"
     inkscape:window-x="77"
     inkscape:window-y="6"
     inkscape:window-maximized="0"
     inkscape:current-layer="svg33" /><defs
     id="defs37" /><metadata
     id="metadata2"><ns3:variableSets><ns3:variableSet
         locked="none"
         varSetName="binding1"><ns3:variables /><ns3:sampleDataSets /></ns3:variableSet></ns3:variableSets><ns4:sfw><ns4:slices /><ns4:sliceSourceBounds
         bottomLeftOrigin="true"
         height="26"
         width="26"
         x="387"
         y="286" /></ns4:sfw><rdf:RDF><cc:Work
         rdf:about=""><dc:format>image/svg+xml</dc:format><dc:type
           rdf:resource="http://purl.org/dc/dcmitype/StillImage" /><dc:title /></cc:Work></rdf:RDF></metadata><g
     ns2:rgbTrio="#4F008000FFFF"
     ns2:dimmedPercent="50"
     ns2:layer="yes"
     id="Layer_1"><path
       fill="none"
       id="path4"
       d="M26,26H0V0h26V26z"
       ns2:knockout="Off" /><linearGradient
       y2="16.1354"
       x2="14.882"
       y1="9.3774"
       x1="8.1245"
       gradientUnits="userSpaceOnUse"
       id="XMLID_1_"><stop
         id="stop6"
         style="stop-color:#ac27d8;opacity:1"
         offset="0" /><stop
         id="stop8"
         style="stop-color:#fbcb98;opacity:1"
         offset="0.8595" /><stop
         id="stop10"
         style="stop-color:#dee5df;opacity:1"
         offset="1" /><a:midPointStop
         style="stop-color:#7af583;opacity:1"
         offset="0" /><a:midPointStop
         style="stop-color:#cfb596;opacity:1"
         offset="0.5" /><a:midPointStop
         style="stop-color:#e0eb3a;opacity:1"
         offset="0.8595" /><a:midPointStop
         style="stop-color:#284211;opacity:1"
         offset="0.5" /><a:midPointStop
         style="stop-color:#071a34;opacity:1"
         offset="1" /></linearGradient><path
       fill="url(#XMLID_1_-264)"
       id="path13"
       d="M20.208,11.303l-8.958,8.959c0,0-2.533-0.134-4.678-2.277    c-2.144-2.145-2.349-4.75-2.349-4.75l8.958-8.958"
       ns2:knockout="Off" /><path
       fill="none"
       stroke="#c2c1e4"
       id="path15"
       d="M20.208,11.303l-8.958,8.959c0,0-2.533-0.134-4.678-2.277    c-2.144-2.145-2.349-4.75-2.349-4.75l8.958-8.958"
       ns2:knockout="Off" /><path
       fill="none"
       stroke="#b3b4b8"
       id="path17"
       d="M12.701,11.401c0,0-7.188-6.737-5.66-8.242    c0.5-0.492,2.577,1.19,4.324,2.825"
       ns2:knockout="Off" /><path
       fill="none"
       stroke="#101106"
       id="path19"
       d="M13.343,11.401c0,0.355-0.288,0.644-0.642,0.644    c-0.356,0-0.645-0.289-0.645-0.644c0-0.356,0.288-0.645,0.645-0.645C13.055,10.757,13.343,11.045,13.343,11.401z"
       ns2:knockout="Off" /><linearGradient
       y2="4.4947"
       x2="13.4068"
       y1="11.2783"
       x1="20.1904"
       gradientUnits="userSpaceOnUse"
       id="XMLID_2_"><stop
         id="stop21"
         style="stop-color:#8a999b;opacity:1"
         offset="0" /><stop
         id="stop23"
         style="stop-color:#a95a34;opacity:1"
         offset="0.8595" /><a:midPointStop
         style="stop-color:#a05f2f;opacity:1"
         offset="0" /><a:midPointStop
         style="stop-color:#d5c4fb;opacity:1"
         offset="0.5" /><a:midPointStop
         style="stop-color:#e1bad2;opacity:1"
         offset="0.8595" /></linearGradient><path
       fill="url(#XMLID_2_-258)"
       id="path26"
       d="M17.735,6.72c1.945,1.95,3.054,4.001,2.473,4.583    c-0.58,0.582-2.627-0.528-4.574-2.477c-1.945-1.95-3.053-4.001-2.474-4.583C13.741,3.662,15.79,4.771,17.735,6.72z"
       ns2:knockout="Off" /><path
       fill="none"
       stroke="#d0fdd6"
       id="path28"
       d="M17.735,6.72c1.945,1.95,3.054,4.001,2.473,4.583    c-0.58,0.582-2.627-0.528-4.574-2.477c-1.945-1.95-3.053-4.001-2.474-4.583C13.741,3.662,15.79,4.771,17.735,6.72z"
       ns2:knockout="Off" /><path
       fill="#fdd14a"
       id="path30"
       d="M19.917,14.395c0.337-1.02,0.591-1.686,0.096-2.684c-0.407-0.82-0.753-0.771-1.517-1.294    c-1.539-1.057,1.811-3.29,3.053-1.814c0.996,1.182,1.348,3.042,1.425,4.524c0.106,2.084-0.265,3.951-0.503,6.006    c-0.19,1.646-0.604,2.581-1.461,3.968c0.178-0.288,0.101-1.499,0.117-1.894c0.03-0.697-0.11-1.422-0.253-2.1    c-0.15-0.709-0.243-1.64-0.462-2.353C20.126,15.826,19.545,15.527,19.917,14.395z"
       ns2:knockout="Off" /><linearGradient
       y2="16.1354"
       x2="14.882"
       y1="9.3774"
       x1="8.1245"
       gradientUnits="userSpaceOnUse"
       id="XMLID_1_-264"><stop
         id="stop3735"
         style="stop-color:#f3efc6;opacity:1"
         offset="0" /><stop
         id="stop3737"
         style="stop-color:#52a8d5;opacity:1"
         offset="0.8595" /><stop
         id="stop3739"
         style="stop-color:#f79299;opacity:1"
         offset="1" /><a:midPointStop
         style="stop-color:#1f1d20;opacity:1"
         offset="0" /><a:midPointStop
         style="stop-color:#b8e9c8;opacity:1"
         offset="0.5" /><a:midPointStop
         style="stop-color:#de8a65;opacity:1"
         offset="0.8595" /><a:midPointStop
         style="stop-color:#f4effe;opacity:1"
         offset="0.5" /><a:midPointStop
         style="stop-color:#05497e;opacity:1"
         offset="1" /></linearGradient><linearGradient
       y2="4.4947"
       x2="13.4068"
       y1="11.2783"
       x1="20.1904"
       gradientUnits="userSpaceOnUse"
       id="XMLID_2_-258"><stop
         id="stop3742"
         style="stop-color:#6b8f60;opacity:1"
         offset="0" /><stop
         id="stop3744"
         style="stop-color:#fef1f5;opacity:1"
         offset="0.8595" /><a:midPointStop
         style="stop-color:#116409;opacity:1"
         offset="0" /><a:midPointStop
         style="stop-color:#cbe2db;opacity:1"
         offset="0.5" /><a:midPointStop
         style="stop-color:#b84c37;opacity:1"
         offset="0.8595" /></linearGradient></g><text
     id="text3711"
     y="14.470564"
     x="20.721825"
     style="font-style:normal;font-weight:normal;font-size:40px;line-height:1.25;font-family:sans-serif;letter-spacing:0px;word-spacing:0px;fill:#000000;fill-opacity:1;stroke:none"
     xml:space="preserve"><tspan
       y="49.861191"
       x="20.721825"
       id="tspan3709"
       sodipodi:role="line" /></text>
<text
     id="text3715"
     y="26.121899"
     x="17.124033"
     style="font-style:normal;font-variant:normal;font-weight:normal;font-stretch:normal;font-size:13.33333302px;line-height:1.25;font-family:sans-serif;-inkscape-font-specification:'sans-serif, Normal';font-variant-ligatures:normal;font-variant-caps:normal;font-variant-numeric:normal;font-feature-settings:normal;text-align:start;letter-spacing:0px;word-spacing:0px;writing-mode:lr-tb;text-anchor:start;fill:#000000;fill-opacity:1;stroke:none"
     xml:space="preserve"><tspan
       y="26.121899"
       x="17.124033"
       id="tspan3713"
       sodipodi:role="line">A</tspan></text>
</svg>