<?xml version="1.0" encoding="UTF-8" standalone="no"?>
<!-- Generator: Adobe Illustrator 10.0, SVG Export Plug-In . SVG Version: 3.0.0 Build 76)  -->

<svg
   xmlns:a="http://ns.adobe.com/AdobeSVGViewerExtensions/3.0/"
   xmlns:ns4="http://ns.adobe.com/SaveForWeb/1.0/"
   xmlns:ns3="http://ns.adobe.com/Variables/1.0/"
   xmlns:ns2="http://ns.adobe.com/AdobeIllustrator/10.0/"
   xmlns:dc="http://purl.org/dc/elements/1.1/"
   xmlns:cc="http://creativecommons.org/ns#"
   xmlns:rdf="http://www.w3.org/1999/02/22-rdf-syntax-ns#"
   xmlns:svg="http://www.w3.org/2000/svg"
   xmlns="http://www.w3.org/2000/svg"
   xmlns:sodipodi="http://sodipodi.sourceforge.net/DTD/sodipodi-0.dtd"
   xmlns:inkscape="http://www.inkscape.org/namespaces/inkscape"
   ns2:viewOrigin="387 312"
   ns2:rulerOrigin="0 0"
   ns2:pageBounds="0 600 800 0"
   width="26"
   height="26"
   viewBox="0 0 26 26"
   overflow="visible"
   enable-background="new 0 0 26 26"
   xml:space="preserve"
   version="1.1"
   id="svg33"
   sodipodi:docname="fill_area.svg"
   inkscape:version="0.92.1 r15371"><defs
     id="defs37" /><sodipodi:namedview
     pagecolor="#ffffff"
     bordercolor="#666666"
     borderopacity="1"
     objecttolerance="10"
     gridtolerance="10"
     guidetolerance="10"
     inkscape:pageopacity="0"
     inkscape:pageshadow="2"
     inkscape:window-width="1920"
     inkscape:window-height="1079"
     id="namedview35"
     showgrid="false"
     inkscape:snap-text-baseline="false"
     inkscape:zoom="25.673416"
     inkscape:cx="14.24729"
     inkscape:cy="11.772557"
     inkscape:window-x="0"
     inkscape:window-y="0"
     inkscape:window-maximized="1"
     inkscape:current-layer="svg33" /><metadata
     id="metadata2"><ns3:variableSets><ns3:variableSet
         varSetName="binding1"
         locked="none"><ns3:variables /><ns3:sampleDataSets /></ns3:variableSet></ns3:variableSets><ns4:sfw><ns4:slices /><ns4:sliceSourceBounds
         y="286"
         x="387"
         width="26"
         height="26"
         bottomLeftOrigin="true" /></ns4:sfw><rdf:RDF><cc:Work
         rdf:about=""><dc:format>image/svg+xml</dc:format><dc:type
           rdf:resource="http://purl.org/dc/dcmitype/StillImage" /><dc:title /></cc:Work></rdf:RDF></metadata><g
     id="Layer_1"
     ns2:layer="yes"
     ns2:dimmedPercent="50"
     ns2:rgbTrio="#4F008000FFFF"
     transform="translate(0.05508475,-0.05508475)"><path
       ns2:knockout="Off"
       d="M 26,26 H 0 V 0 h 26 z"
       id="path4"
       inkscape:connector-curvature="0"
       style="fill:none" /><linearGradient
       id="XMLID_1_"
       gradientUnits="userSpaceOnUse"
       x1="8.1245003"
       y1="9.3774004"
       x2="14.882"
       y2="16.135401"><stop
         offset="0"
         style="stop-color:#FFFFFF"
         id="stop6" /><stop
         offset="0.8595"
         style="stop-color:#BCBCBC"
         id="stop8" /><stop
         offset="1"
         style="stop-color:#F0EDF7"
         id="stop10" /><a:midPointStop
         offset="0"
         style="stop-color:#FFFFFF" /><a:midPointStop
         offset="0.5"
         style="stop-color:#FFFFFF" /><a:midPointStop
         offset="0.8595"
         style="stop-color:#BCBCBC" /><a:midPointStop
         offset="0.5"
         style="stop-color:#BCBCBC" /><a:midPointStop
         offset="1"
         style="stop-color:#F0EDF7" /></linearGradient><path
       ns2:knockout="Off"
       d="m 20.208,11.303 -8.958,8.959 c 0,0 -2.533,-0.134 -4.678,-2.277 -2.144,-2.145 -2.349,-4.75 -2.349,-4.75 l 8.958,-8.958"
       id="path13"
       style="fill:url(#XMLID_1_)"
       inkscape:connector-curvature="0" /><path
       ns2:knockout="Off"
       d="m 20.208,11.303 -8.958,8.959 c 0,0 -2.533,-0.134 -4.678,-2.277 -2.144,-2.145 -2.349,-4.75 -2.349,-4.75 l 8.958,-8.958"
       id="path15"
       inkscape:connector-curvature="0"
       style="fill:none;stroke:#000000" /><path
       ns2:knockout="Off"
       d="m 12.701,11.401 c 0,0 -7.188,-6.737 -5.66,-8.242 0.5,-0.492 2.577,1.19 4.324,2.825"
       id="path17"
       inkscape:connector-curvature="0"
       style="fill:none;stroke:#000000" /><path
       ns2:knockout="Off"
       d="m 13.343,11.401 c 0,0.355 -0.288,0.644 -0.642,0.644 -0.356,0 -0.645,-0.289 -0.645,-0.644 0,-0.356 0.288,-0.645 0.645,-0.645 0.354,10e-4 0.642,0.289 0.642,0.645 z"
       id="path19"
       inkscape:connector-curvature="0"
       style="fill:none;stroke:#000000" /><linearGradient
       id="XMLID_2_"
       gradientUnits="userSpaceOnUse"
       x1="20.190399"
       y1="11.2783"
       x2="13.4068"
       y2="4.4947"><stop
         offset="0"
         style="stop-color:#FFFFFF"
         id="stop21" /><stop
         offset="0.8595"
         style="stop-color:#7C7C7C"
         id="stop23" /><a:midPointStop
         offset="0"
         style="stop-color:#FFFFFF" /><a:midPointStop
         offset="0.5"
         style="stop-color:#FFFFFF" /><a:midPointStop
         offset="0.8595"
         style="stop-color:#7C7C7C" /></linearGradient><path
       ns2:knockout="Off"
       d="m 17.735,6.72 c 1.945,1.95 3.054,4.001 2.473,4.583 -0.58,0.582 -2.627,-0.528 -4.574,-2.477 -1.945,-1.95 -3.053,-4.001 -2.474,-4.583 0.581,-0.581 2.63,0.528 4.575,2.477 z"
       id="path26"
       style="fill:url(#XMLID_2_)"
       inkscape:connector-curvature="0" /><path
       ns2:knockout="Off"
       d="m 17.735,6.72 c 1.945,1.95 3.054,4.001 2.473,4.583 -0.58,0.582 -2.627,-0.528 -4.574,-2.477 -1.945,-1.95 -3.053,-4.001 -2.474,-4.583 0.581,-0.581 2.63,0.528 4.575,2.477 z"
       id="path28"
       inkscape:connector-curvature="0"
       style="fill:none;stroke:#000000" /><path
       ns2:knockout="Off"
       d="m 19.917,14.395 c 0.337,-1.02 0.591,-1.686 0.096,-2.684 -0.407,-0.82 -0.753,-0.771 -1.517,-1.294 -1.539,-1.057 1.811,-3.29 3.053,-1.814 0.996,1.182 1.348,3.042 1.425,4.524 0.106,2.084 -0.265,3.951 -0.503,6.006 -0.19,1.646 -0.604,2.581 -1.461,3.968 0.178,-0.288 0.101,-1.499 0.117,-1.894 0.03,-0.697 -0.11,-1.422 -0.253,-2.1 -0.15,-0.709 -0.243,-1.64 -0.462,-2.353 -0.286,-0.928 -0.867,-1.227 -0.495,-2.359 z"
       id="path30"
       inkscape:connector-curvature="0"
       style="fill:#999999" /></g><text
     xml:space="preserve"
     style="font-style:normal;font-variant:normal;font-weight:normal;font-stretch:normal;font-size:13.33333302px;line-height:1.25;font-family:sans-serif;-inkscape-font-specification:'sans-serif, Normal';font-variant-ligatures:normal;font-variant-caps:normal;font-variant-numeric:normal;font-feature-settings:normal;text-align:start;letter-spacing:0px;word-spacing:0px;writing-mode:lr-tb;text-anchor:start;fill:#000000;fill-opacity:1;stroke:none"
     x="17.054951"
     y="25.997232"
     id="text3711"><tspan
       sodipodi:role="line"
       id="tspan3709"
       x="17.054951"
       y="25.997232">A</tspan></text>
</svg>