<?xml version="1.0" encoding="utf-8"?>
<!-- Generator: Adobe Illustrator 15.1.0, SVG Export Plug-In . SVG Version: 6.00 Build 0)  -->
<!DOCTYPE svg PUBLIC "-//W3C//DTD SVG 1.1//EN" "http://www.w3.org/Graphics/SVG/1.1/DTD/svg11.dtd">
<svg version="1.1" id="Layer_1" xmlns="http://www.w3.org/2000/svg" xmlns:xlink="http://www.w3.org/1999/xlink" x="0px" y="0px"
	 width="26px" height="26.184px" viewBox="0 0 26 26.184" enable-background="new 0 0 26 26.184" xml:space="preserve">
<path fill="none" d="M26,26H0V0h26V26z"/>
<path fill="none" stroke="#000000" stroke-linecap="round" stroke-linejoin="round" d="M19.251,6.934
	c0,1.28-1.037,2.318-2.316,2.318c-1.278,0-2.317-1.038-2.317-2.318c0-1.279,1.039-2.317,2.317-2.317
	C18.214,4.617,19.251,5.655,19.251,6.934z"/>
<path fill="#999999" stroke="#000000" stroke-width="0.5" stroke-linecap="round" stroke-linejoin="round" d="M21.518,16.74
	c-0.906,2.747-1.431,0.541-1.431,0.541L17.38,10.12c0,0,0.463-0.791,1.431-0.542C19.779,9.827,22.425,13.992,21.518,16.74z"/>
<path fill="none" stroke="#000000" stroke-width="0.75" stroke-linecap="round" stroke-linejoin="round" d="M4.584,13.598
	l2.127-1.616"/>
<path fill="#999999" stroke="#000000" stroke-width="0.5" stroke-linecap="round" stroke-linejoin="round" d="M12.427,16.74
	c0.906,2.747,1.432,0.541,1.432,0.541l2.707-7.161c0,0-0.464-0.791-1.432-0.542C14.165,9.828,11.52,13.992,12.427,16.74z"/>
<linearGradient id="SVGID_1_" gradientUnits="userSpaceOnUse" x1="4.0391" y1="3.7622" x2="20.214" y2="14.9497">
	<stop  offset="0" style="stop-color:#FFFFFF"/>
	<stop  offset="0.0725" style="stop-color:#FCD0D0"/>
	<stop  offset="0.1534" style="stop-color:#FAA3A3"/>
	<stop  offset="0.24" style="stop-color:#F87B7B"/>
	<stop  offset="0.3312" style="stop-color:#F65A5A"/>
	<stop  offset="0.4283" style="stop-color:#F53E3E"/>
	<stop  offset="0.5332" style="stop-color:#F32929"/>
	<stop  offset="0.6498" style="stop-color:#F31A1A"/>
	<stop  offset="0.7877" style="stop-color:#F21212"/>
	<stop  offset="1" style="stop-color:#F20F0F"/>
</linearGradient>
<rect x="1.417" y="1.333" fill="url(#SVGID_1_)" stroke="#000000" stroke-miterlimit="10" width="19.667" height="14.833"/>
<linearGradient id="SVGID_2_" gradientUnits="userSpaceOnUse" x1="13.1982" y1="12.085" x2="21.7404" y2="24.8303">
	<stop  offset="0.0727" style="stop-color:#FFF100"/>
	<stop  offset="0.2133" style="stop-color:#FCEE00"/>
	<stop  offset="0.333" style="stop-color:#F1E400"/>
	<stop  offset="0.4451" style="stop-color:#E0D300"/>
	<stop  offset="0.5525" style="stop-color:#C7BC00"/>
	<stop  offset="0.6566" style="stop-color:#A79E00"/>
	<stop  offset="0.7583" style="stop-color:#7F7800"/>
	<stop  offset="0.858" style="stop-color:#514C00"/>
	<stop  offset="0.9537" style="stop-color:#1C1B00"/>
	<stop  offset="1" style="stop-color:#000000"/>
</linearGradient>
<circle fill="url(#SVGID_2_)" stroke="#000000" stroke-miterlimit="10" cx="16.88" cy="17.578" r="7.605"/>
<line fill="none" stroke="#001CBF" stroke-width="2" stroke-linecap="round" stroke-miterlimit="10" x1="5.25" y1="23.833" x2="24.485" y2="6.417"/>
</svg>
