<?xml version="1.0" encoding="utf-8"?>
<!-- Generator: Adobe Illustrator 15.1.0, SVG Export Plug-In . SVG Version: 6.00 Build 0)  -->
<!DOCTYPE svg PUBLIC "-//W3C//DTD SVG 1.1//EN" "http://www.w3.org/Graphics/SVG/1.1/DTD/svg11.dtd">
<svg version="1.1" id="Layer_1" xmlns="http://www.w3.org/2000/svg" xmlns:xlink="http://www.w3.org/1999/xlink" x="0px" y="0px"
	 width="26px" height="26.184px" viewBox="0 0 26 26.184" enable-background="new 0 0 26 26.184" xml:space="preserve">
<path fill="none" d="M26,26H0V0h26V26z"/>
<path fill="none" stroke="#000000" stroke-linecap="round" stroke-linejoin="round" d="M19.251,6.934
	c0,1.28-1.037,2.318-2.315,2.318s-2.317-1.038-2.317-2.318c0-1.278,1.039-2.316,2.317-2.316S19.251,5.656,19.251,6.934z"/>
<path fill="#999999" stroke="#000000" stroke-width="0.5" stroke-linecap="round" stroke-linejoin="round" d="M21.518,16.74
	c-0.906,2.746-1.431,0.541-1.431,0.541L17.38,10.12c0,0,0.463-0.791,1.431-0.542C19.779,9.827,22.425,13.992,21.518,16.74z"/>
<path fill="none" stroke="#000000" stroke-width="0.75" stroke-linecap="round" stroke-linejoin="round" d="M4.584,13.598
	l2.127-1.616"/>
<path fill="#999999" stroke="#000000" stroke-width="0.5" stroke-linecap="round" stroke-linejoin="round" d="M12.427,16.74
	c0.906,2.746,1.433,0.541,1.433,0.541l2.707-7.161c0,0-0.465-0.791-1.433-0.542C14.165,9.828,11.52,13.992,12.427,16.74z"/>
<linearGradient id="SVGID_1_" gradientUnits="userSpaceOnUse" x1="4.5313" y1="28.0315" x2="17.9706" y2="8.838" gradientTransform="matrix(1 0 0 -1 0 27.1841)">
	<stop  offset="0" style="stop-color:#FFFFFF"/>
	<stop  offset="0.9086" style="stop-color:#2A2A2A"/>
	<stop  offset="1" style="stop-color:#000000"/>
</linearGradient>
<rect x="1.417" y="1.333" fill="url(#SVGID_1_)" stroke="#000000" stroke-miterlimit="10" width="19.667" height="14.833"/>
<linearGradient id="SVGID_2_" gradientUnits="userSpaceOnUse" x1="13.4263" y1="16.384" x2="20.3329" y2="2.829" gradientTransform="matrix(1 0 0 -1 0 27.1841)">
	<stop  offset="0" style="stop-color:#FFFFFF"/>
	<stop  offset="0.2361" style="stop-color:#FDFDFD"/>
	<stop  offset="0.3728" style="stop-color:#F4F4F4"/>
	<stop  offset="0.4841" style="stop-color:#E6E6E6"/>
	<stop  offset="0.5818" style="stop-color:#D2D2D2"/>
	<stop  offset="0.6706" style="stop-color:#B8B8B8"/>
	<stop  offset="0.7529" style="stop-color:#999999"/>
	<stop  offset="0.8303" style="stop-color:#737373"/>
	<stop  offset="0.9037" style="stop-color:#474747"/>
	<stop  offset="0.9716" style="stop-color:#171717"/>
	<stop  offset="1" style="stop-color:#000000"/>
</linearGradient>
<circle fill="url(#SVGID_2_)" stroke="#000000" stroke-miterlimit="10" cx="16.88" cy="17.578" r="7.605"/>
<line fill="none" stroke="#111111" stroke-width="2" stroke-linecap="round" stroke-linejoin="round" x1="5.25" y1="23.833" x2="24.484" y2="6.417"/>
</svg>
