<?xml version="1.0" encoding="UTF-8" standalone="no"?><!DOCTYPE svg PUBLIC "-//W3C//DTD SVG 1.1//EN" "http://www.w3.org/Graphics/SVG/1.1/DTD/svg11.dtd"><svg width="100%" height="100%" viewBox="0 0 17 17" version="1.1" xmlns="http://www.w3.org/2000/svg" xmlns:xlink="http://www.w3.org/1999/xlink" xml:space="preserve" style="fill-rule:evenodd;clip-rule:evenodd;stroke-linejoin:round;stroke-miterlimit:1.41421;"><g><g><path d="M11,4l0,-2l5,3l-5,3l0,-2c-1.882,0 -3.764,-0.023 -5.646,0.001c-0.06,0.002 -0.119,0.006 -0.179,0.011c-0.255,0.028 -0.503,0.091 -0.739,0.195c-0.599,0.266 -1.073,0.776 -1.295,1.393c-0.094,0.265 -0.138,0.546 -0.141,0.826l-2,1.192l0,-1.21c0.006,-0.47 0.075,-0.934 0.223,-1.38c0.124,-0.376 0.299,-0.734 0.519,-1.063c0.523,-0.784 1.296,-1.389 2.184,-1.707c0.477,-0.171 0.976,-0.252 1.482,-0.258l5.592,0Z" style="fill:#e6e6e6;"/><path d="M11.088,1.004l0.075,0.009l0.074,0.015l0.072,0.021l0.071,0.026l0.068,0.031l0.066,0.037l5,3l0.064,0.041l0.061,0.047l0.057,0.051l0.052,0.055l0.049,0.059l0.044,0.062l0.038,0.066l0.034,0.068l0.029,0.071l0.023,0.073l0.017,0.074l0.011,0.076l0.006,0.076l0,0.076l-0.006,0.076l-0.011,0.076l-0.017,0.074l-0.023,0.073l-0.029,0.071l-0.034,0.068l-0.038,0.066l-0.044,0.062l-0.049,0.059l-0.052,0.055l-0.057,0.051l-0.061,0.047l-0.064,0.041l-5,3l-0.066,0.037l-0.068,0.031l-0.071,0.026l-0.072,0.021l-0.074,0.015l-0.075,0.009l-0.075,0.004l-0.076,-0.002l-0.075,-0.008l-0.074,-0.013l-0.073,-0.018l-0.071,-0.025l-0.07,-0.029l-0.067,-0.035l-0.064,-0.039l-0.061,-0.045l-0.057,-0.048l-0.054,-0.053l-0.049,-0.057l-0.046,-0.061l-0.04,-0.063l-0.035,-0.067l-0.031,-0.069l-0.025,-0.071l-0.02,-0.073l-0.014,-0.074l-0.008,-0.075l-0.003,-0.075l0,-1.002l-0.415,-0.001l-1.411,-0.005l-0.703,-0.002l-0.703,0.001l-0.351,0.001l-0.35,0.002l-0.35,0.003l-0.333,0.004l-0.057,0.002l-0.055,0.004l-0.016,0.002l-0.031,0.005l-0.03,0.004l-0.03,0.006l-0.029,0.005l-0.029,0.006l-0.028,0.007l-0.028,0.007l-0.028,0.007l-0.027,0.008l-0.027,0.008l-0.026,0.009l-0.026,0.01l-0.025,0.009l-0.026,0.011l-0.024,0.01l-0.033,0.015l-0.032,0.016l-0.031,0.016l-0.031,0.017l-0.031,0.019l-0.03,0.018l-0.03,0.02l-0.029,0.021l-0.029,0.021l-0.028,0.022l-0.028,0.023l-0.027,0.023l-0.027,0.024l-0.026,0.025l-0.026,0.025l-0.025,0.027l-0.024,0.026l-0.023,0.027l-0.023,0.028l-0.022,0.029l-0.022,0.029l-0.02,0.029l-0.02,0.03l-0.019,0.03l-0.018,0.031l-0.018,0.031l-0.017,0.032l-0.015,0.032l-0.015,0.032l-0.014,0.032l-0.014,0.033l-0.012,0.034l-0.009,0.027l-0.009,0.028l-0.009,0.028l-0.007,0.029l-0.008,0.03l-0.006,0.03l-0.007,0.031l-0.005,0.031l-0.005,0.032l-0.004,0.032l-0.004,0.033l-0.003,0.033l-0.003,0.034l-0.002,0.034l-0.001,0.034l-0.001,0.044l-0.004,0.072l-0.01,0.071l-0.014,0.071l-0.02,0.07l-0.024,0.068l-0.03,0.066l-0.034,0.063l-0.038,0.061l-0.043,0.059l-0.047,0.055l-0.051,0.051l-0.055,0.047l-0.057,0.044l-0.061,0.039l-2,1.192l-0.066,0.037l-0.069,0.031l-0.07,0.025l-0.073,0.021l-0.074,0.015l-0.074,0.009l-0.076,0.003l-0.075,-0.002l-0.075,-0.007l-0.074,-0.014l-0.073,-0.018l-0.071,-0.025l-0.069,-0.029l-0.067,-0.035l-0.064,-0.04l-0.061,-0.044l-0.057,-0.049l-0.054,-0.053l-0.049,-0.057l-0.045,-0.06l-0.04,-0.063l-0.036,-0.067l-0.03,-0.069l-0.025,-0.071l-0.02,-0.073l-0.014,-0.073l-0.008,-0.075l-0.003,-0.076l0,-1.221l0.002,-0.107l0.004,-0.105l0.006,-0.105l0.008,-0.106l0.01,-0.105l0.011,-0.106l0.014,-0.105l0.016,-0.106l0.018,-0.105l0.019,-0.106l0.023,-0.105l0.024,-0.105l0.026,-0.105l0.029,-0.104l0.031,-0.105l0.033,-0.103l0.029,-0.087l0.031,-0.085l0.032,-0.085l0.034,-0.085l0.035,-0.084l0.036,-0.083l0.038,-0.082l0.039,-0.082l0.04,-0.082l0.042,-0.08l0.044,-0.08l0.044,-0.079l0.046,-0.079l0.047,-0.078l0.049,-0.077l0.05,-0.076l0.061,-0.089l0.063,-0.089l0.064,-0.087l0.067,-0.086l0.068,-0.084l0.069,-0.083l0.072,-0.081l0.072,-0.08l0.075,-0.078l0.076,-0.077l0.077,-0.075l0.079,-0.074l0.08,-0.072l0.081,-0.07l0.083,-0.069l0.084,-0.067l0.086,-0.066l0.086,-0.063l0.089,-0.062l0.089,-0.061l0.09,-0.058l0.092,-0.057l0.093,-0.055l0.094,-0.053l0.095,-0.052l0.096,-0.049l0.097,-0.048l0.098,-0.045l0.099,-0.044l0.101,-0.042l0.101,-0.039l0.102,-0.038l0.111,-0.038l0.111,-0.036l0.112,-0.033l0.112,-0.031l0.113,-0.028l0.113,-0.025l0.113,-0.024l0.113,-0.02l0.113,-0.018l0.114,-0.016l0.114,-0.014l0.113,-0.011l0.114,-0.009l0.113,-0.007l0.114,-0.005l0.115,-0.002l4.603,0l0,-1l0.003,-0.075l0.008,-0.075l0.014,-0.074l0.02,-0.073l0.025,-0.071l0.031,-0.069l0.035,-0.067l0.04,-0.063l0.046,-0.061l0.049,-0.057l0.054,-0.053l0.057,-0.048l0.061,-0.045l0.064,-0.039l0.067,-0.035l0.07,-0.029l0.071,-0.025l0.073,-0.018l0.074,-0.013l0.075,-0.008l0.076,-0.002l0.075,0.004Zm-0.088,2.996l-5.592,0l-0.095,0.002l-0.094,0.004l-0.095,0.006l-0.094,0.007l-0.094,0.009l-0.094,0.011l-0.093,0.014l-0.093,0.014l-0.093,0.017l-0.092,0.019l-0.092,0.021l-0.091,0.023l-0.092,0.025l-0.09,0.026l-0.09,0.029l-0.09,0.031l-0.083,0.031l-0.082,0.032l-0.082,0.034l-0.08,0.036l-0.08,0.037l-0.08,0.039l-0.078,0.04l-0.077,0.042l-0.077,0.043l-0.076,0.045l-0.075,0.047l-0.073,0.047l-0.073,0.05l-0.072,0.05l-0.071,0.052l-0.07,0.054l-0.069,0.055l-0.068,0.056l-0.066,0.057l-0.066,0.059l-0.064,0.06l-0.063,0.062l-0.062,0.062l-0.06,0.064l-0.06,0.065l-0.058,0.067l-0.056,0.067l-0.056,0.069l-0.054,0.069l-0.052,0.071l-0.052,0.072l-0.049,0.073l-0.041,0.062l-0.04,0.063l-0.038,0.063l-0.037,0.064l-0.037,0.065l-0.035,0.065l-0.034,0.066l-0.033,0.066l-0.032,0.067l-0.031,0.067l-0.03,0.068l-0.028,0.069l-0.028,0.068l-0.026,0.07l-0.025,0.069l-0.024,0.071l-0.026,0.084l-0.025,0.084l-0.024,0.085l-0.021,0.085l-0.02,0.085l-0.018,0.086l-0.016,0.086l-0.015,0.086l-0.012,0.087l-0.012,0.087l-0.009,0.087l-0.008,0.087l-0.007,0.087l-0.005,0.088l-0.003,0.088l-0.002,0.088l0,1.21l2,-1.192l0.001,-0.052l0.002,-0.053l0.003,-0.052l0.004,-0.053l0.005,-0.052l0.006,-0.053l0.007,-0.052l0.008,-0.052l0.01,-0.052l0.01,-0.051l0.011,-0.051l0.013,-0.052l0.013,-0.05l0.015,-0.051l0.016,-0.05l0.017,-0.05l0.022,-0.057l0.023,-0.057l0.024,-0.056l0.026,-0.056l0.027,-0.055l0.029,-0.054l0.03,-0.053l0.031,-0.053l0.032,-0.051l0.034,-0.051l0.035,-0.05l0.036,-0.049l0.038,-0.048l0.038,-0.047l0.04,-0.046l0.041,-0.045l0.042,-0.044l0.043,-0.043l0.044,-0.042l0.045,-0.041l0.047,-0.04l0.047,-0.038l0.048,-0.038l0.049,-0.036l0.05,-0.035l0.051,-0.034l0.052,-0.032l0.052,-0.031l0.054,-0.03l0.054,-0.028l0.055,-0.027l0.056,-0.026l0.045,-0.019l0.044,-0.018l0.045,-0.017l0.045,-0.016l0.046,-0.016l0.045,-0.014l0.046,-0.013l0.046,-0.013l0.047,-0.012l0.046,-0.01l0.047,-0.01l0.047,-0.009l0.048,-0.008l0.047,-0.008l0.048,-0.006l0.047,-0.006l0.09,-0.007l0.089,-0.004l0.353,-0.004l0.353,-0.003l0.353,-0.002l0.353,-0.001l0.705,-0.001l0.706,0.002l1.412,0.005l0.705,0.002l0.706,0.001l0,2l5,-3l-5,-3l0,2Z" style="fill-opacity:0.501961;"/></g><path d="M6,13l0,2l-5,-3l5,-3l0,2c1.882,0 3.764,0.023 5.646,-0.001c0.06,-0.002 0.119,-0.006 0.179,-0.011c0.255,-0.028 0.503,-0.091 0.739,-0.195c0.599,-0.266 1.073,-0.776 1.295,-1.393c0.094,-0.265 0.138,-0.546 0.141,-0.826l2,-1.192l0,1.21c-0.006,0.47 -0.075,0.934 -0.223,1.38c-0.124,0.376 -0.299,0.734 -0.519,1.063c-0.523,0.784 -1.296,1.389 -2.184,1.707c-0.477,0.171 -0.976,0.252 -1.482,0.258l-5.592,0Z" style="fill:#e6e6e6;"/><path d="M16.065,6.384l0.075,0.007l0.074,0.014l0.073,0.018l0.071,0.025l0.069,0.029l0.067,0.035l0.064,0.04l0.061,0.044l0.057,0.049l0.054,0.053l0.049,0.057l0.045,0.06l0.04,0.063l0.036,0.067l0.03,0.069l0.025,0.071l0.02,0.073l0.014,0.073l0.008,0.075l0.003,0.076l0,1.221l-0.002,0.107l-0.004,0.105l-0.006,0.105l-0.008,0.106l-0.01,0.105l-0.011,0.106l-0.014,0.105l-0.016,0.106l-0.018,0.105l-0.019,0.106l-0.023,0.105l-0.024,0.105l-0.026,0.105l-0.029,0.104l-0.031,0.105l-0.033,0.103l-0.029,0.087l-0.031,0.085l-0.032,0.085l-0.034,0.085l-0.035,0.084l-0.036,0.083l-0.038,0.082l-0.039,0.082l-0.04,0.082l-0.042,0.08l-0.044,0.08l-0.044,0.079l-0.046,0.079l-0.047,0.078l-0.049,0.077l-0.05,0.076l-0.061,0.089l-0.063,0.089l-0.064,0.087l-0.067,0.086l-0.068,0.084l-0.069,0.083l-0.072,0.081l-0.072,0.08l-0.075,0.078l-0.076,0.077l-0.077,0.075l-0.079,0.074l-0.08,0.072l-0.081,0.07l-0.083,0.069l-0.084,0.067l-0.086,0.066l-0.086,0.063l-0.089,0.062l-0.089,0.061l-0.09,0.058l-0.092,0.057l-0.093,0.055l-0.094,0.053l-0.095,0.052l-0.096,0.049l-0.097,0.048l-0.098,0.045l-0.099,0.044l-0.101,0.042l-0.101,0.039l-0.102,0.038l-0.111,0.038l-0.111,0.036l-0.112,0.033l-0.112,0.031l-0.113,0.028l-0.113,0.025l-0.113,0.024l-0.113,0.02l-0.113,0.018l-0.114,0.016l-0.114,0.014l-0.113,0.011l-0.114,0.009l-0.113,0.007l-0.114,0.005l-0.115,0.002l-4.603,0l0,1l-0.003,0.075l-0.008,0.075l-0.014,0.074l-0.02,0.073l-0.025,0.071l-0.031,0.069l-0.035,0.067l-0.04,0.063l-0.046,0.061l-0.049,0.057l-0.054,0.053l-0.057,0.048l-0.061,0.045l-0.064,0.039l-0.067,0.035l-0.07,0.029l-0.071,0.025l-0.073,0.018l-0.074,0.013l-0.075,0.008l-0.076,0.002l-0.075,-0.004l-0.075,-0.009l-0.074,-0.015l-0.072,-0.021l-0.071,-0.026l-0.068,-0.031l-0.066,-0.037l-5,-3l-0.064,-0.041l-0.061,-0.047l-0.057,-0.051l-0.052,-0.055l-0.049,-0.059l-0.044,-0.062l-0.038,-0.066l-0.034,-0.068l-0.029,-0.071l-0.023,-0.073l-0.017,-0.074l-0.011,-0.076l-0.006,-0.076l0,-0.076l0.006,-0.076l0.011,-0.076l0.017,-0.074l0.023,-0.073l0.029,-0.071l0.034,-0.068l0.038,-0.066l0.044,-0.062l0.049,-0.059l0.052,-0.055l0.057,-0.051l0.061,-0.047l0.064,-0.041l5,-3l0.066,-0.037l0.068,-0.031l0.071,-0.026l0.072,-0.021l0.074,-0.015l0.075,-0.009l0.075,-0.004l0.076,0.002l0.075,0.008l0.074,0.013l0.073,0.018l0.071,0.025l0.07,0.029l0.067,0.035l0.064,0.039l0.061,0.045l0.057,0.048l0.054,0.053l0.049,0.057l0.046,0.061l0.04,0.063l0.035,0.067l0.031,0.069l0.025,0.071l0.02,0.073l0.014,0.074l0.008,0.075l0.003,0.075l0,1.002l0.415,0.001l1.411,0.005l0.703,0.002l0.703,-0.001l0.351,-0.001l0.35,-0.002l0.35,-0.003l0.333,-0.004l0.057,-0.002l0.055,-0.004l0.016,-0.002l0.031,-0.005l0.03,-0.004l0.03,-0.006l0.029,-0.005l0.029,-0.006l0.028,-0.007l0.028,-0.007l0.028,-0.007l0.027,-0.008l0.027,-0.008l0.026,-0.009l0.026,-0.01l0.025,-0.009l0.026,-0.011l0.024,-0.01l0.033,-0.015l0.032,-0.016l0.031,-0.016l0.031,-0.017l0.031,-0.019l0.03,-0.018l0.03,-0.02l0.029,-0.021l0.029,-0.021l0.028,-0.022l0.028,-0.023l0.027,-0.023l0.027,-0.024l0.026,-0.025l0.026,-0.025l0.025,-0.027l0.024,-0.026l0.023,-0.027l0.023,-0.028l0.022,-0.029l0.022,-0.029l0.02,-0.029l0.02,-0.03l0.019,-0.03l0.018,-0.031l0.018,-0.031l0.017,-0.032l0.015,-0.032l0.015,-0.032l0.014,-0.032l0.014,-0.033l0.012,-0.034l0.009,-0.027l0.009,-0.028l0.009,-0.028l0.007,-0.029l0.008,-0.03l0.006,-0.03l0.007,-0.031l0.005,-0.031l0.005,-0.032l0.004,-0.032l0.004,-0.033l0.003,-0.033l0.003,-0.034l0.002,-0.034l0.001,-0.034l0.001,-0.044l0.004,-0.072l0.01,-0.071l0.014,-0.071l0.02,-0.07l0.024,-0.068l0.03,-0.066l0.034,-0.063l0.038,-0.061l0.043,-0.059l0.047,-0.055l0.051,-0.051l0.055,-0.047l0.057,-0.044l0.061,-0.039l2,-1.192l0.066,-0.037l0.069,-0.031l0.07,-0.025l0.073,-0.021l0.074,-0.015l0.074,-0.009l0.076,-0.003l0.075,0.002Zm-2.065,2.19l-0.001,0.052l-0.002,0.053l-0.003,0.052l-0.004,0.053l-0.005,0.052l-0.006,0.053l-0.007,0.052l-0.008,0.052l-0.01,0.052l-0.01,0.051l-0.011,0.051l-0.013,0.052l-0.013,0.05l-0.015,0.051l-0.016,0.05l-0.017,0.05l-0.022,0.057l-0.023,0.057l-0.024,0.056l-0.026,0.056l-0.027,0.055l-0.029,0.054l-0.03,0.053l-0.031,0.053l-0.032,0.051l-0.034,0.051l-0.035,0.05l-0.036,0.049l-0.038,0.048l-0.038,0.047l-0.04,0.046l-0.041,0.045l-0.042,0.044l-0.043,0.043l-0.044,0.042l-0.045,0.041l-0.047,0.04l-0.047,0.038l-0.048,0.038l-0.049,0.036l-0.05,0.035l-0.051,0.034l-0.052,0.032l-0.052,0.031l-0.054,0.03l-0.054,0.028l-0.055,0.027l-0.056,0.026l-0.045,0.019l-0.044,0.018l-0.045,0.017l-0.045,0.016l-0.046,0.016l-0.045,0.014l-0.046,0.013l-0.046,0.013l-0.047,0.012l-0.046,0.01l-0.047,0.01l-0.047,0.009l-0.048,0.008l-0.047,0.008l-0.048,0.006l-0.047,0.006l-0.09,0.007l-0.089,0.004l-0.353,0.004l-0.353,0.003l-0.353,0.002l-0.353,0.001l-0.705,0.001l-0.706,-0.002l-1.412,-0.005l-0.705,-0.002l-0.706,-0.001l0,-2l-5,3l5,3l0,-2l5.592,0l0.095,-0.002l0.094,-0.004l0.095,-0.006l0.094,-0.007l0.094,-0.009l0.094,-0.011l0.093,-0.014l0.093,-0.014l0.093,-0.017l0.092,-0.019l0.092,-0.021l0.091,-0.023l0.092,-0.025l0.09,-0.026l0.09,-0.029l0.09,-0.031l0.083,-0.031l0.082,-0.032l0.082,-0.034l0.08,-0.036l0.08,-0.037l0.08,-0.039l0.078,-0.04l0.077,-0.042l0.077,-0.043l0.076,-0.045l0.075,-0.047l0.073,-0.047l0.073,-0.05l0.072,-0.05l0.071,-0.052l0.07,-0.054l0.069,-0.055l0.068,-0.056l0.066,-0.057l0.066,-0.059l0.064,-0.06l0.063,-0.062l0.062,-0.062l0.06,-0.064l0.06,-0.065l0.058,-0.067l0.056,-0.067l0.056,-0.069l0.054,-0.069l0.052,-0.071l0.052,-0.072l0.049,-0.073l0.041,-0.062l0.04,-0.063l0.038,-0.063l0.037,-0.064l0.037,-0.065l0.035,-0.065l0.034,-0.066l0.033,-0.066l0.032,-0.067l0.031,-0.067l0.03,-0.068l0.028,-0.069l0.028,-0.068l0.026,-0.07l0.025,-0.069l0.024,-0.071l0.026,-0.084l0.025,-0.084l0.024,-0.085l0.021,-0.085l0.02,-0.085l0.018,-0.086l0.016,-0.086l0.015,-0.086l0.012,-0.087l0.012,-0.087l0.009,-0.087l0.008,-0.087l0.007,-0.087l0.005,-0.088l0.003,-0.088l0.002,-0.088l0,-1.21l-2,1.192Z" style="fill-opacity:0.501961;"/></g></svg>