<?xml version="1.0" encoding="UTF-8" standalone="no"?>
<!-- Generator: Adobe Illustrator 21.0.2, SVG Export Plug-In . SVG Version: 6.00 Build 0)  -->

<svg
   xmlns:dc="http://purl.org/dc/elements/1.1/"
   xmlns:cc="http://creativecommons.org/ns#"
   xmlns:rdf="http://www.w3.org/1999/02/22-rdf-syntax-ns#"
   xmlns:svg="http://www.w3.org/2000/svg"
   xmlns="http://www.w3.org/2000/svg"
   xmlns:sodipodi="http://sodipodi.sourceforge.net/DTD/sodipodi-0.dtd"
   xmlns:inkscape="http://www.inkscape.org/namespaces/inkscape"
   version="1.1"
   id="svg2"
   inkscape:version="0.92.1 r15371"
   sodipodi:docname="palettegizmo.svg"
   x="0px"
   y="0px"
   viewBox="0 0 40 30"
   xml:space="preserve"
   width="42.666668"
   height="32"><sodipodi:namedview
     bordercolor="#666666"
     borderopacity="1"
     gridtolerance="10"
     guidetolerance="10"
     id="namedview62"
     inkscape:current-layer="svg2"
     inkscape:cx="-11.840397"
     inkscape:cy="15"
     inkscape:pageopacity="0"
     inkscape:pageshadow="2"
     inkscape:window-height="500"
     inkscape:window-maximized="0"
     inkscape:window-width="1109"
     inkscape:window-x="0"
     inkscape:window-y="0"
     inkscape:zoom="7.8666667"
     objecttolerance="10"
     pagecolor="#ffffff"
     showgrid="false" /><metadata
     id="metadata37"><rdf:RDF><cc:Work
         rdf:about=""><dc:format>image/svg+xml</dc:format><dc:type
           rdf:resource="http://purl.org/dc/dcmitype/StillImage" /><dc:title></dc:title></cc:Work></rdf:RDF></metadata><defs
     id="defs35" /><style
     id="style2"
     type="text/css">
	.st0{fill:none;}
	.st1{fill:#A5A5A5;}
	.st2{fill:#929292;}
	.st3{fill:#EBEBEB;}
	.st4{fill:#D9D9D9;}
	.st5{fill:#2B9396;}
	.st6{fill:#79B2B3;}
	.st7{fill:#688586;}
	.st8{fill:#DBEAEB;}
	.st9{fill:#A7C4C5;}
	.st10{fill:#4DA4A6;}
	.st11{fill:#007D80;}
	.st12{fill:#207E80;}
	.st13{fill:#607F80;}
	.st14{fill:#407F80;}
</style><rect
     style="fill:none;opacity:1"
     x="0"
     height="30"
     width="40"
     class="st0"
     y="0"
     id="rect4" /><g
     id="g6"><rect
       style="fill:#3b441d;opacity:1"
       height="28"
       width="38"
       class="st1"
       y="1"
       x="1"
       id="rect8" /><path
       style="fill:#42414a;opacity:1"
       d="M 40,0 V 30 H 0 V 0 Z M 1,1 V 29 H 39 V 1 Z"
       class="st2"
       inkscape:connector-curvature="0"
       id="path10" /></g><g
     id="g12"><rect
       style="fill:#f6f5f1;opacity:1"
       height="6"
       width="6"
       class="st3"
       y="2"
       x="2"
       id="rect14" /><path
       style="fill:#c1cbee;opacity:1"
       d="M 9,9 H 1 V 1 H 9 Z M 2,2 V 8 H 8 V 2 Z"
       class="st4"
       inkscape:connector-curvature="0"
       id="path16" /></g><rect
     height="6"
     width="6"
     y="2"
     x="12"
     id="rect18" /><path
     style="fill:#c1c2f6;opacity:1"
     d="M 19,9 H 11 V 1 h 8 z M 12,2 v 6 h 6 V 2 Z"
     class="st4"
     inkscape:connector-curvature="0"
     id="path20" /><rect
     style="fill:#a48681;opacity:1"
     height="6"
     width="6"
     class="st5"
     y="2"
     x="22"
     id="rect22" /><path
     style="fill:#2e2d2d;opacity:1"
     d="M 29,9 H 21 V 1 h 8 z M 22,2 v 6 h 6 V 2 Z"
     class="st4"
     inkscape:connector-curvature="0"
     id="path24" /><rect
     style="fill:#c705e4;opacity:1"
     height="6"
     width="6"
     class="st6"
     y="2"
     x="32"
     id="rect26" /><path
     style="fill:#d9ece1;opacity:1"
     d="M 39,9 H 31 V 1 h 8 z M 32,2 v 6 h 6 V 2 Z"
     class="st4"
     inkscape:connector-curvature="0"
     id="path28" /><rect
     style="fill:#c3864a;opacity:1"
     height="6"
     width="6"
     class="st7"
     y="12"
     x="2"
     id="rect30" /><path
     style="fill:#000203;opacity:1"
     d="M 9,19 H 1 V 11 H 9 Z M 2,12 v 6 h 6 v -6 z"
     class="st4"
     inkscape:connector-curvature="0"
     id="path32" /><rect
     style="fill:#d5dafc;opacity:1"
     height="6"
     width="6"
     class="st8"
     y="12"
     x="12"
     id="rect34" /><path
     style="fill:#46250d;opacity:1"
     d="m 19,19 h -8 v -8 h 8 z m -7,-7 v 6 h 6 v -6 z"
     class="st4"
     inkscape:connector-curvature="0"
     id="path36" /><rect
     style="fill:#f9eaf4;opacity:1"
     height="6"
     width="6"
     class="st9"
     y="12"
     x="22"
     id="rect38" /><path
     style="fill:#2d1622;opacity:1"
     d="m 29,19 h -8 v -8 h 8 z m -7,-7 v 6 h 6 v -6 z"
     class="st4"
     inkscape:connector-curvature="0"
     id="path40" /><rect
     style="fill:#342f38;opacity:1"
     height="6"
     width="6"
     class="st10"
     y="12"
     x="32"
     id="rect42" /><path
     style="fill:#54246f;opacity:1"
     d="m 39,19 h -8 v -8 h 8 z m -7,-7 v 6 h 6 v -6 z"
     class="st4"
     inkscape:connector-curvature="0"
     id="path44" /><rect
     style="fill:#8a313a;opacity:1"
     height="6"
     width="6"
     class="st11"
     y="22"
     x="2"
     id="rect46" /><path
     style="fill:#31263b;opacity:1"
     d="M 9,29 H 1 V 21 H 9 Z M 2,22 v 6 h 6 v -6 z"
     class="st4"
     inkscape:connector-curvature="0"
     id="path48" /><rect
     style="fill:#d1d2d4;opacity:1"
     height="6"
     width="6"
     class="st12"
     y="22"
     x="12"
     id="rect50" /><path
     style="fill:#348780;opacity:1"
     d="m 19,29 h -8 v -8 h 8 z m -7,-7 v 6 h 6 v -6 z"
     class="st4"
     inkscape:connector-curvature="0"
     id="path52" /><rect
     style="fill:#3c6631;opacity:1"
     height="6"
     width="6"
     class="st13"
     y="22"
     x="22"
     id="rect54" /><path
     style="fill:#080108;opacity:1"
     d="m 29,29 h -8 v -8 h 8 z m -7,-7 v 6 h 6 v -6 z"
     class="st4"
     inkscape:connector-curvature="0"
     id="path56" /><rect
     style="fill:#190d1a;opacity:1"
     height="6"
     width="6"
     class="st14"
     y="22"
     x="32"
     id="rect58" /><path
     style="fill:#619c59;opacity:1"
     d="m 39,29 h -8 v -8 h 8 z m -7,-7 v 6 h 6 v -6 z"
     class="st4"
     inkscape:connector-curvature="0"
     id="path60" /></svg>