<?xml version="1.0" encoding="UTF-8" standalone="no"?>
<svg
   xmlns:ns4="http://ns.adobe.com/SaveForWeb/1.0/"
   xmlns:ns3="http://ns.adobe.com/Variables/1.0/"
   xmlns:ns2="http://ns.adobe.com/AdobeIllustrator/10.0/"
   xmlns:dc="http://purl.org/dc/elements/1.1/"
   xmlns:cc="http://creativecommons.org/ns#"
   xmlns:rdf="http://www.w3.org/1999/02/22-rdf-syntax-ns#"
   xmlns:svg="http://www.w3.org/2000/svg"
   xmlns="http://www.w3.org/2000/svg"
   xmlns:sodipodi="http://sodipodi.sourceforge.net/DTD/sodipodi-0.dtd"
   xmlns:inkscape="http://www.inkscape.org/namespaces/inkscape"
   id="svg230"
   version="1.1"
   xml:space="preserve"
   enable-background="new 0 0 26 26"
   overflow="visible"
   viewBox="0 0 26 26"
   height="26"
   width="26"
   ns2:pageBounds="0 600 800 0"
   ns2:rulerOrigin="0 0"
   ns2:viewOrigin="387 312"
   sodipodi:docname="stylepicker_area_rollover.svg"
   inkscape:version="0.92.1 r15371"><sodipodi:namedview
     pagecolor="#ffffff"
     bordercolor="#666666"
     borderopacity="1"
     objecttolerance="10"
     gridtolerance="10"
     guidetolerance="10"
     inkscape:pageopacity="0"
     inkscape:pageshadow="2"
     inkscape:window-width="1404"
     inkscape:window-height="909"
     id="namedview1955"
     showgrid="false"
     inkscape:zoom="36.307692"
     inkscape:cx="5.2350658"
     inkscape:cy="18.229261"
     inkscape:window-x="0"
     inkscape:window-y="0"
     inkscape:window-maximized="0"
     inkscape:current-layer="svg230" /><defs
     id="defs234" /><metadata
     id="metadata217"><ns3:variableSets><ns3:variableSet
         varSetName="binding1"
         locked="none"><ns3:variables /><ns3:sampleDataSets /></ns3:variableSet></ns3:variableSets><ns4:sfw><ns4:slices /><ns4:sliceSourceBounds
         y="286"
         x="387"
         width="26"
         height="26"
         bottomLeftOrigin="true" /></ns4:sfw><rdf:RDF><cc:Work
         rdf:about=""><dc:format>image/svg+xml</dc:format><dc:type
           rdf:resource="http://purl.org/dc/dcmitype/StillImage" /><dc:title /></cc:Work></rdf:RDF></metadata><g
     id="Layer_1"
     ns2:layer="yes"
     ns2:dimmedPercent="50"
     ns2:rgbTrio="#4F008000FFFF"><path
       ns2:knockout="Off"
       fill="none"
       d="M26,26H0V0h26V26z"
       id="path219" /><path
       ns2:knockout="Off"
       fill="#49182d"
       d="M5.53,24.045c0.711-0.987,1.09-0.891,1.449-1.107c0.295-0.18,1.852-1.684,2.198-2.18    l3.577-5.133c0.349-0.496-0.276-0.352-0.705-0.65l-1.043-0.727c-0.429-0.301-0.508-0.936-0.854-0.438l-3.579,5.132    c-0.347,0.498-1.223,2.479-1.286,2.817c-0.068,0.382,0.202,0.683-0.537,1.742"
       id="path221" /><path
       ns2:knockout="Off"
       fill="none"
       stroke="#d57a04"
       stroke-width="0.7789"
       stroke-linecap="round"
       d="M5.53,24.045    c0.711-0.987,1.09-0.891,1.449-1.107c0.295-0.18,1.852-1.684,2.198-2.18l6.914-9.916c0.347-0.497,0.28-1.148-0.15-1.448    l-1.043-0.728c-0.429-0.299-1.063-0.137-1.411,0.36l-6.914,9.915c-0.347,0.498-1.223,2.479-1.286,2.817    c-0.068,0.382,0.202,0.683-0.537,1.742"
       id="path223" /><path
       ns2:knockout="Off"
       fill="#9f9ea5"
       stroke="#15370a"
       stroke-width="0.7789"
       stroke-linejoin="round"
       d="M20.255,2.096    c-0.997-0.697-2.371-0.452-3.068,0.547l-3.982,5.711l3.616,2.521l3.982-5.711C21.5,4.167,21.255,2.792,20.255,2.096z"
       id="path225" /><path
       ns2:knockout="Off"
       fill="#86c7c3"
       stroke="#f1f8f5"
       stroke-width="0.7789"
       stroke-linejoin="round"
       d="M17.791,12.189    l-6.156-4.292l1.945-2.79l6.156,4.293L17.791,12.189z"
       id="path227" /></g><text
     xml:space="preserve"
     style="font-style:normal;font-variant:normal;font-weight:normal;font-stretch:normal;font-size:13.33333302px;line-height:1.25;font-family:sans-serif;-inkscape-font-specification:'sans-serif, Normal';font-variant-ligatures:normal;font-variant-caps:normal;font-variant-numeric:normal;font-feature-settings:normal;text-align:start;letter-spacing:0px;word-spacing:0px;writing-mode:lr-tb;text-anchor:start;opacity:1;fill:#000000;fill-opacity:1;stroke:none"
     x="-0.11017"
     y="9.75"
     id="text238"><tspan
       id="tspan236"
       x="-0.11017"
       y="9.75"
       style="font-style:normal;font-variant:normal;font-weight:normal;font-stretch:normal;font-size:13.33333302px;font-family:sans-serif;-inkscape-font-specification:'sans-serif, Normal';font-variant-ligatures:normal;font-variant-caps:normal;font-variant-numeric:normal;font-feature-settings:normal;text-align:start;writing-mode:lr-tb;text-anchor:start;fill:#000000">A</tspan></text>
</svg>