<?xml version="1.0" encoding="UTF-8" standalone="no"?>
<svg
   xmlns:ns4="http://ns.adobe.com/SaveForWeb/1.0/"
   xmlns:ns3="http://ns.adobe.com/Variables/1.0/"
   xmlns:ns2="http://ns.adobe.com/AdobeIllustrator/10.0/"
   xmlns:dc="http://purl.org/dc/elements/1.1/"
   xmlns:cc="http://creativecommons.org/ns#"
   xmlns:rdf="http://www.w3.org/1999/02/22-rdf-syntax-ns#"
   xmlns:svg="http://www.w3.org/2000/svg"
   xmlns="http://www.w3.org/2000/svg"
   xmlns:sodipodi="http://sodipodi.sourceforge.net/DTD/sodipodi-0.dtd"
   xmlns:inkscape="http://www.inkscape.org/namespaces/inkscape"
   id="svg108"
   version="1.1"
   xml:space="preserve"
   enable-background="new 0 0 26 26"
   overflow="visible"
   viewBox="0 0 26 26"
   height="26"
   width="26"
   ns2:pageBounds="0 600 800 0"
   ns2:rulerOrigin="0 0"
   ns2:viewOrigin="387 312"
   sodipodi:docname="stylepicker_line.svg"
   inkscape:version="0.92.1 r15371"><sodipodi:namedview
     pagecolor="#ffffff"
     bordercolor="#666666"
     borderopacity="1"
     objecttolerance="10"
     gridtolerance="10"
     guidetolerance="10"
     inkscape:pageopacity="0"
     inkscape:pageshadow="2"
     inkscape:window-width="1140"
     inkscape:window-height="793"
     id="namedview1811"
     showgrid="false"
     inkscape:zoom="9.0769231"
     inkscape:cx="13"
     inkscape:cy="13"
     inkscape:window-x="27"
     inkscape:window-y="0"
     inkscape:window-maximized="0"
     inkscape:current-layer="svg108" /><defs
     id="defs112" /><metadata
     id="metadata95"><ns3:variableSets><ns3:variableSet
         locked="none"
         varSetName="binding1"><ns3:variables /><ns3:sampleDataSets /></ns3:variableSet></ns3:variableSets><ns4:sfw><ns4:slices /><ns4:sliceSourceBounds
         bottomLeftOrigin="true"
         height="26"
         width="26"
         x="387"
         y="286" /></ns4:sfw><rdf:RDF><cc:Work
         rdf:about=""><dc:format>image/svg+xml</dc:format><dc:type
           rdf:resource="http://purl.org/dc/dcmitype/StillImage" /><dc:title /></cc:Work></rdf:RDF></metadata><g
     ns2:rgbTrio="#4F008000FFFF"
     ns2:dimmedPercent="50"
     ns2:layer="yes"
     id="Layer_1"><path
       id="path97"
       d="M26,26H0V0h26V26z"
       ns2:knockout="Off"
       fill="none" /><path
       id="path99"
       d="M5.53,24.045c0.711-0.987,1.09-0.891,1.449-1.107c0.295-0.18,1.852-1.684,2.198-2.18    l3.577-5.133c0.349-0.496-0.276-0.352-0.705-0.65l-1.043-0.727c-0.429-0.301-0.508-0.936-0.854-0.438l-3.579,5.132    c-0.347,0.498-1.223,2.479-1.286,2.817c-0.068,0.382,0.202,0.683-0.537,1.742"
       ns2:knockout="Off"
       fill="#7D7D7D" /><path
       id="path101"
       d="M5.53,24.045    c0.711-0.987,1.09-0.891,1.449-1.107c0.295-0.18,1.852-1.684,2.198-2.18l6.914-9.916c0.347-0.497,0.28-1.148-0.15-1.448    l-1.043-0.728c-0.429-0.299-1.063-0.137-1.411,0.36l-6.914,9.915c-0.347,0.498-1.223,2.479-1.286,2.817    c-0.068,0.382,0.202,0.683-0.537,1.742"
       ns2:knockout="Off"
       stroke-linecap="round"
       stroke-width="0.7789"
       stroke="#000000"
       fill="none" /><path
       id="path103"
       d="M20.255,2.096    c-0.997-0.697-2.371-0.452-3.068,0.547l-3.982,5.711l3.616,2.521l3.982-5.711C21.5,4.167,21.255,2.792,20.255,2.096z"
       ns2:knockout="Off"
       stroke-linejoin="round"
       stroke-width="0.7789"
       stroke="#000000"
       fill="#B9B9B9" /><path
       id="path105"
       d="M17.791,12.189    l-6.156-4.292l1.945-2.79l6.156,4.293L17.791,12.189z"
       ns2:knockout="Off"
       stroke-linejoin="round"
       stroke-width="0.7789"
       stroke="#000000"
       fill="#B9B9B9" /></g><text
     id="text116"
     y="9.7803974"
     x="-1.2908373"
     style="font-style:normal;font-variant:normal;font-weight:normal;font-stretch:normal;font-size:13.33333302px;line-height:1.25;font-family:sans-serif;-inkscape-font-specification:'sans-serif, Normal';font-variant-ligatures:normal;font-variant-caps:normal;font-variant-numeric:normal;font-feature-settings:normal;text-align:start;letter-spacing:0px;word-spacing:0px;writing-mode:lr-tb;text-anchor:start;fill:#000000;fill-opacity:1;stroke:none"
     xml:space="preserve"><tspan
       y="9.7803974"
       x="-1.2908373"
       id="tspan114"
       style="font-style:normal;font-variant:normal;font-weight:normal;font-stretch:normal;font-size:13.33333302px;font-family:sans-serif;-inkscape-font-specification:'sans-serif, Normal';font-variant-ligatures:normal;font-variant-caps:normal;font-variant-numeric:normal;font-feature-settings:normal;text-align:start;writing-mode:lr-tb;text-anchor:start">L</tspan></text>
</svg>