<?xml version="1.0" encoding="utf-8"?>
<!-- Generator: Adobe Illustrator 21.0.2, SVG Export Plug-In . SVG Version: 6.00 Build 0)  -->
<svg version="1.1"
	 id="svg2" inkscape:version="0.91 r13725" sodipodi:docname="sublayer_key.svg" xmlns:cc="http://creativecommons.org/ns#" xmlns:dc="http://purl.org/dc/elements/1.1/" xmlns:inkscape="http://www.inkscape.org/namespaces/inkscape" xmlns:rdf="http://www.w3.org/1999/02/22-rdf-syntax-ns#" xmlns:sodipodi="http://sodipodi.sourceforge.net/DTD/sodipodi-0.dtd" xmlns:svg="http://www.w3.org/2000/svg"
	 xmlns="http://www.w3.org/2000/svg" x="0px" y="0px" viewBox="0 0 11 13"
	 style="enable-background:new 0 0 11 13;" xml:space="preserve">
<style
     type="text/css"
     id="style3">
	.st0{fill:none;}
	.st1{fill:#FFFFFF;}
</style>
<rect id="rect4" y="0" class="st0" width="11" height="13" />
<path
     d="m 6.0244821,2.2900188 -2.4529189,0 0,2.452919 2.4529189,0 0,-2.452919 z m 2.4529191,0 0,2.452919 -1.2264596,0 0,1.2264595 -1.2264595,0 0,2.4529191 2.4529191,0 0,1.2264594 -2.4529191,0 0,1.2264602 3.6793786,0 0,1.226459 -6.1322975,0 0,-6.1322977 -1.2264596,0 0,-1.2264595 -1.2264595,0 0,-2.452919 1.2264595,0 0,-1.2264595 4.905838,0 0,1.2264595 1.2264596,0 z"
     inkscape:connector-curvature="0"
     id="path12"
     style="fill:#dfdfdf;fill-opacity:1" />
</svg>
