<?xml version="1.0" encoding="UTF-8" standalone="no"?><!DOCTYPE svg PUBLIC "-//W3C//DTD SVG 1.1//EN" "http://www.w3.org/Graphics/SVG/1.1/DTD/svg11.dtd"><svg width="100%" height="100%" viewBox="0 0 18 18" version="1.1" xmlns="http://www.w3.org/2000/svg" xmlns:xlink="http://www.w3.org/1999/xlink" xml:space="preserve" xmlns:serif="http://www.serif.com/" style="fill-rule:evenodd;clip-rule:evenodd;stroke-linecap:round;stroke-miterlimit:1.5;"><g><path d="M11.193,16.201l-10.193,0c0,-1.075 0.972,-2.02 2.429,-2.546c-0.248,-0.432 -0.39,-0.931 -0.39,-1.462c0,-0.986 1.446,-2.464 2.016,-2.996c-0.931,-0.465 -2.016,-1.979 -2.016,-3.12c0,-0.554 0.154,-1.073 0.425,-1.518c-1.476,-0.524 -2.464,-1.475 -2.464,-2.559l10.193,0l0,0.019c-0.011,1.076 -0.995,2.019 -2.463,2.54c0.27,0.445 0.425,0.964 0.425,1.518c0,1.119 -1.124,2.631 -2.039,3.129c0.001,0.036 2.039,1.943 2.039,2.987c0,0.531 -0.142,1.03 -0.391,1.462c1.449,0.523 2.418,1.459 2.429,2.527l0,0.019Z" style="fill:#e0e0e0;stroke:#181818;stroke-width:0.9px;"/><path d="M13,11l-3,0l0,-3l3,0l0,-2l4,3.469l-4,3.531l0,-2Z" style="fill:#e0e0e0;"/><path d="M17,9.469l-4,3.531l0,-2l-3,0l0,-3l3,0l0,-2l4,3.469Zm-3.205,-0.674l-3,0l0,1.41l3,0l0,1.032l1.997,-1.763l-1.997,-1.732l0,1.053Z" style="fill:#181818;"/></g></svg>