<?xml version="1.0" encoding="UTF-8" standalone="no"?>
<!-- Created with Inkscape (http://www.inkscape.org/) -->

<svg
   xmlns:osb="http://www.openswatchbook.org/uri/2009/osb"
   xmlns:dc="http://purl.org/dc/elements/1.1/"
   xmlns:cc="http://creativecommons.org/ns#"
   xmlns:rdf="http://www.w3.org/1999/02/22-rdf-syntax-ns#"
   xmlns:svg="http://www.w3.org/2000/svg"
   xmlns="http://www.w3.org/2000/svg"
   xmlns:sodipodi="http://sodipodi.sourceforge.net/DTD/sodipodi-0.dtd"
   xmlns:inkscape="http://www.inkscape.org/namespaces/inkscape"
   id="svg4136"
   version="1.1"
   inkscape:version="0.91 r13725"
   width="26"
   height="26"
   viewBox="0 0 26 26"
   sodipodi:docname="x_level_config_disabled.svg"
   enable-background="new">
  <metadata
     id="metadata4142">
    <rdf:RDF>
      <cc:Work
         rdf:about="">
        <dc:format>image/svg+xml</dc:format>
        <dc:type
           rdf:resource="http://purl.org/dc/dcmitype/StillImage" />
        <dc:title />
      </cc:Work>
    </rdf:RDF>
  </metadata>
  <defs
     id="defs4140">
    <linearGradient
       id="linearGradient5179"
       osb:paint="solid">
      <stop
         style="stop-color:#000000;stop-opacity:1;"
         offset="0"
         id="stop5181" />
    </linearGradient>
    <inkscape:path-effect
       effect="spiro"
       id="path-effect4887"
       is_visible="true" />
    <inkscape:path-effect
       effect="spiro"
       id="path-effect4883"
       is_visible="true" />
    <inkscape:path-effect
       effect="spiro"
       id="path-effect4879"
       is_visible="true" />
    <inkscape:path-effect
       effect="spiro"
       id="path-effect4875"
       is_visible="true" />
    <inkscape:path-effect
       effect="powerstroke"
       id="path-effect4855"
       is_visible="true"
       offset_points="0,0.5"
       sort_points="true"
       interpolator_type="CubicBezierJohan"
       interpolator_beta="0.2"
       start_linecap_type="zerowidth"
       linejoin_type="round"
       miter_limit="4"
       end_linecap_type="zerowidth"
       cusp_linecap_type="round" />
    <linearGradient
       id="linearGradient4847"
       osb:paint="solid">
      <stop
         style="stop-color:#000000;stop-opacity:1;"
         offset="0"
         id="stop4849" />
    </linearGradient>
    <inkscape:path-effect
       effect="skeletal"
       id="path-effect4845"
       is_visible="true"
       pattern="m 0.15776699,4.3373786 c 0,-2.76 2.24000001,-4.99999996 5.00000001,-4.99999996 2.76,0 5,2.23999996 5,4.99999996 0,2.76 -2.24,5 -5,5 -2.76,0 -5.00000001,-2.24 -5.00000001,-5 z"
       copytype="single_stretched"
       prop_scale="1"
       scale_y_rel="false"
       spacing="0"
       normal_offset="0"
       tang_offset="0"
       prop_units="false"
       vertical_pattern="false"
       fuse_tolerance="0" />
    <inkscape:path-effect
       effect="skeletal"
       id="path-effect4777"
       is_visible="true"
       pattern="M 0,5 C 0,2.24 2.24,0 5,0 7.76,0 10,2.24 10,5 10,7.76 7.76,10 5,10 2.24,10 0,7.76 0,5 Z"
       copytype="single_stretched"
       prop_scale="1"
       scale_y_rel="false"
       spacing="0"
       normal_offset="0"
       tang_offset="0"
       prop_units="false"
       vertical_pattern="false"
       fuse_tolerance="0" />
    <inkscape:path-effect
       effect="spiro"
       id="path-effect4773"
       is_visible="true" />
    <inkscape:path-effect
       effect="spiro"
       id="path-effect4769"
       is_visible="true" />
  </defs>
  <sodipodi:namedview
     pagecolor="#ffffff"
     bordercolor="#666666"
     borderopacity="1"
     objecttolerance="10"
     gridtolerance="10"
     guidetolerance="10"
     inkscape:pageopacity="0"
     inkscape:pageshadow="2"
     inkscape:window-width="934"
     inkscape:window-height="624"
     id="namedview4138"
     showgrid="false"
     borderlayer="true"
     inkscape:zoom="15.423077"
     inkscape:cx="13"
     inkscape:cy="13.113032"
     inkscape:window-x="487"
     inkscape:window-y="1261"
     inkscape:window-maximized="0"
     inkscape:current-layer="layer4"
     inkscape:object-paths="false"
     inkscape:snap-grids="false"
     inkscape:snap-page="false"
     inkscape:snap-to-guides="false"
     showguides="true"
     inkscape:guide-bbox="true"
     inkscape:snap-others="true"
     inkscape:snap-bbox="false" />
  <g
     inkscape:groupmode="layer"
     id="layer4"
     inkscape:label="Cog"
     style="display:inline">
    <path
       style="opacity:1;fill:#000000;fill-opacity:1;stroke:none;stroke-width:0.00128538;stroke-linecap:square;stroke-linejoin:miter;stroke-miterlimit:4;stroke-dasharray:none;stroke-opacity:1"
       d=""
       id="path4223"
       inkscape:connector-curvature="0" />
    <path
       style="opacity:1;fill:#000000;fill-opacity:1;stroke:none;stroke-width:0.00128538;stroke-linecap:square;stroke-linejoin:miter;stroke-miterlimit:4;stroke-dasharray:none;stroke-opacity:1"
       d=""
       id="path4225"
       inkscape:connector-curvature="0" />
    <path
       style="opacity:1;fill:#7d7d7d;fill-opacity:1;stroke:none;stroke-width:0.1;stroke-linecap:square;stroke-linejoin:miter;stroke-miterlimit:4;stroke-dasharray:none;stroke-opacity:0.96052629"
       d="m 10.053726,12.785748 c -0.064251,0.778849 0.460946,1.769539 1.065241,2.198923 0.686203,0.487583 1.489467,0.726059 1.864046,0.677464 0.687787,-0.08923 1.509906,-0.362455 2.010359,-0.886845 0.567569,-0.594717 0.694952,-1.510237 0.650376,-1.84088 -0.100815,-0.747813 -0.325063,-1.214413 -0.724114,-1.742197 -0.593083,-0.784412 -1.547907,-0.857166 -1.920237,-0.856743 -0.816023,9.27e-4 -1.59816,0.172717 -2.018802,0.687224 -0.44172,0.540289 -0.848154,0.80881 -0.926869,1.763054 z m 0.952846,-7.5175104 c 0.381125,-0.078898 -0.01233,-2.2177096 0.390354,-2.2554679 0.249337,-0.023379 2.568336,-0.1188955 2.813737,-0.1113462 0.255995,0.00787 -0.104746,2.3797246 0.147127,2.4230336 1.258893,0.2219751 1.644968,0.5640131 2.568417,1.2339395 0.228317,0.1656357 1.679466,-1.7852954 1.892406,-1.6020291 0.2113,0.1818537 1.814424,1.7143926 2.012574,1.9098137 0.151253,0.1491698 -1.883314,1.756612 -1.738703,1.9117469 0.780883,0.8405736 1.103518,1.7177159 1.394902,2.6320159 0.128645,0.403666 2.197212,-0.225159 2.199712,0.212318 l 0.0149,2.606728 c 0.0034,0.600386 -2.068216,-0.07048 -2.309715,0.228994 -0.178464,0.805873 -0.594251,1.788728 -1.002167,2.479208 -0.134435,0.22755 1.734253,1.622742 1.577989,1.834624 -0.304232,0.412519 -1.375818,1.689173 -1.754265,2.033628 -0.286432,0.260706 -1.823534,-1.849902 -2.146798,-1.633957 -0.892642,0.596294 -1.636589,1.236288 -2.739864,1.41998 -0.378887,0.06308 0.128142,2.392998 -0.267419,2.399105 -0.317108,0.0049 -2.442905,0.02446 -2.713471,0.02942 -0.332798,0.0061 0.07497,-2.192108 -0.285813,-2.284474 C 10.140687,20.500043 9.117634,19.93192 8.3612405,19.39951 8.0882521,19.207361 6.7649697,21.180302 6.5193242,20.955257 6.2361731,20.695854 4.853137,19.240531 4.6109127,18.941812 4.386278,18.664785 6.3625804,17.364644 6.1772243,17.057698 5.7360731,16.327162 5.4117289,15.517198 5.2306579,14.65307 5.138455,14.213047 2.6213433,14.878112 2.6069348,14.413337 2.5975248,14.109603 2.6616668,11.906838 2.6865518,11.611073 2.7154398,11.267724 5.11697,11.713804 5.1894161,11.384072 5.3740189,10.543872 5.751341,9.8088743 6.1857648,9.0927804 6.384699,8.7648631 4.0333706,7.5573385 4.2774442,7.2632771 4.4942664,7.0020482 6.3199951,5.069434 6.3199951,5.069434 c 0,0 1.64266,1.8621623 1.9111296,1.6702852 0.7736726,-0.7177111 1.5577284,-1.419848 2.7754473,-1.4714816 z"
       id="path4162"
       inkscape:connector-curvature="0"
       sodipodi:nodetypes="ssssssssscsscssscssscssssssssssssssssscccc" />
    <path
       style="opacity:1;fill:none;fill-opacity:1;stroke:none;stroke-width:1;stroke-linecap:square;stroke-linejoin:miter;stroke-miterlimit:4;stroke-dasharray:none;stroke-opacity:0.93421054"
       d="m 11.377008,23.445068 c -0.01712,-0.04975 -0.03971,-0.563594 -0.0502,-1.141876 -0.01507,-0.83073 -0.03949,-1.071292 -0.116331,-1.146094 -0.05349,-0.05207 -0.286908,-0.157806 -0.518703,-0.234967 -0.541184,-0.180154 -1.4128236,-0.613182 -2.0037951,-0.995479 -0.2552494,-0.16512 -0.5318506,-0.300218 -0.61467,-0.300218 -0.1082694,0 -0.3834756,0.241396 -0.9794281,0.859102 L 6.2650303,21.344638 5.328582,20.37207 C 4.8135355,19.837157 4.3450975,19.330425 4.2876088,19.245999 4.1841863,19.094115 4.1921055,19.083716 5.0384247,18.260055 5.5498518,17.76232 5.8937656,17.37754 5.8937656,17.303076 c 0,-0.0685 -0.1594251,-0.456368 -0.3542781,-0.861937 C 5.3446346,16.03557 5.1054749,15.419632 5.0080216,15.072387 4.8379377,14.466347 4.8218766,14.438078 4.6074234,14.367302 c -0.1675731,-0.0553 -0.4696563,-0.05454 -1.208664,0.0031 -0.5418894,0.04223 -1.0629183,0.05729 -1.1578419,0.03347 l -0.1725883,-0.04332 0.00687,-0.94933 c 0.00378,-0.522131 0.025659,-1.211923 0.048628,-1.532871 l 0.041763,-0.583541 1.2390438,-7.26e-4 c 0.8645369,-5.19e-4 1.2672616,-0.02415 1.3324017,-0.07821 0.051343,-0.04266 0.1326951,-0.231984 0.180779,-0.420764 C 5.0354397,10.333306 5.3615551,9.5694854 5.6541009,9.0705941 5.7859165,8.8458004 5.8937656,8.5932179 5.8937656,8.5092969 5.8937656,8.3424671 5.6420997,8.112458 4.7591022,7.4722756 4.4738155,7.2654398 4.1466708,7.0077334 4.032114,6.8995947 L 3.823829,6.702979 4.3362701,6.1460033 C 4.6181127,5.8396665 5.0960113,5.3264339 5.3982669,5.0054863 L 5.9478224,4.4219451 6.5205447,4.9810964 c 0.7677741,0.7495815 1.2898674,1.1590532 1.4778403,1.1590532 0.08494,0 0.3974578,-0.150803 0.6944842,-0.3351177 0.6934958,-0.4303368 1.3379228,-0.7227441 2.0438968,-0.9274131 0.309576,-0.089749 0.587678,-0.1998141 0.618005,-0.244589 0.03033,-0.044775 0.04674,-0.6113051 0.03647,-1.258956 -0.01027,-0.647651 -0.0027,-1.1937154 0.01692,-1.2134766 0.01957,-0.019761 0.712528,-0.05611 1.5399,-0.080774 l 1.504312,-0.044845 0,1.2341729 c 0,0.9103472 0.02127,1.2507846 0.08105,1.2974837 0.04458,0.034821 0.285287,0.1130465 0.534913,0.1738345 0.613072,0.1492931 1.026907,0.3461849 1.707748,0.8125012 0.315319,0.215966 0.626603,0.3926655 0.691742,0.3926655 0.06514,0 0.504828,-0.3826073 0.977086,-0.8502385 0.472259,-0.4676312 0.891797,-0.8391898 0.93231,-0.8256859 0.04051,0.013504 0.536396,0.4617597 1.101966,0.9961238 l 1.028309,0.9715712 -0.934044,0.930595 c -0.513724,0.5118271 -0.934045,0.9724237 -0.934045,1.0235479 0,0.051124 0.147488,0.2853804 0.327751,0.5205695 0.385879,0.5034586 0.753521,1.2120266 1.003594,1.934265 0.09878,0.285287 0.226234,0.557118 0.28323,0.60407 0.07882,0.06493 0.359753,0.08045 1.173455,0.06484 l 1.069826,-0.02053 0,1.457292 0,1.457291 -0.178824,0.06289 c -0.119005,0.04185 -0.478568,0.03607 -1.074887,-0.01728 -1.073585,-0.09605 -1.205742,-0.0656 -1.272391,0.293233 -0.06956,0.374492 -0.470483,1.416801 -0.76237,1.981984 -0.173155,0.33528 -0.247052,0.55082 -0.222298,0.648379 0.0204,0.08038 0.402889,0.50779 0.849986,0.949806 0.447097,0.442018 0.812605,0.82132 0.812241,0.842893 -0.0025,0.146528 -1.793549,2.146458 -1.922299,2.146458 -0.05429,0 -0.45349,-0.345305 -0.887121,-0.767345 -0.843447,-0.820899 -1.044991,-0.983279 -1.220428,-0.983279 -0.06126,0 -0.476494,0.245367 -0.922741,0.54526 -0.754404,0.506984 -1.66861,0.946012 -1.96992,0.946012 -0.06566,0 -0.176012,0.04164 -0.245234,0.09253 -0.117266,0.08621 -0.124824,0.169205 -0.110701,1.21571 0.0083,0.617751 -0.01011,1.163115 -0.041,1.211921 -0.08445,0.13344 -2.907345,0.197078 -2.952264,0.06655 z m 2.605374,-7.585626 c 0.394298,-0.13027 1.006124,-0.529684 1.292104,-0.843514 0.453088,-0.497212 0.798831,-1.403351 0.798831,-2.093615 0,-1.167373 -0.713457,-2.299252 -1.76007,-2.792301 -1.27207,-0.5992607 -2.667589,-0.3571326 -3.594181,0.623605 -0.620584,0.656847 -0.8701882,1.278438 -0.8701882,2.167032 0,0.898062 0.2708052,1.556128 0.9075072,2.205275 0.824138,0.840245 2.055506,1.12023 3.225997,0.733518 z"
       id="path4203"
       inkscape:connector-curvature="0" />
  </g>
</svg>
