<?xml version="1.0" encoding="UTF-8" standalone="no"?>
<!-- Created with Inkscape (http://www.inkscape.org/) -->

<svg
   xmlns:osb="http://www.openswatchbook.org/uri/2009/osb"
   xmlns:dc="http://purl.org/dc/elements/1.1/"
   xmlns:cc="http://creativecommons.org/ns#"
   xmlns:rdf="http://www.w3.org/1999/02/22-rdf-syntax-ns#"
   xmlns:svg="http://www.w3.org/2000/svg"
   xmlns="http://www.w3.org/2000/svg"
   xmlns:sodipodi="http://sodipodi.sourceforge.net/DTD/sodipodi-0.dtd"
   xmlns:inkscape="http://www.inkscape.org/namespaces/inkscape"
   id="svg4136"
   version="1.1"
   inkscape:version="0.91 r13725"
   width="26"
   height="26"
   viewBox="0 0 26 26"
   sodipodi:docname="x_level_config.svg"
   enable-background="new">
  <metadata
     id="metadata4142">
    <rdf:RDF>
      <cc:Work
         rdf:about="">
        <dc:format>image/svg+xml</dc:format>
        <dc:type
           rdf:resource="http://purl.org/dc/dcmitype/StillImage" />
        <dc:title />
      </cc:Work>
    </rdf:RDF>
  </metadata>
  <defs
     id="defs4140">
    <linearGradient
       id="linearGradient5179"
       osb:paint="solid">
      <stop
         style="stop-color:#000000;stop-opacity:1;"
         offset="0"
         id="stop5181" />
    </linearGradient>
    <inkscape:path-effect
       effect="spiro"
       id="path-effect4887"
       is_visible="true" />
    <inkscape:path-effect
       effect="spiro"
       id="path-effect4883"
       is_visible="true" />
    <inkscape:path-effect
       effect="spiro"
       id="path-effect4879"
       is_visible="true" />
    <inkscape:path-effect
       effect="spiro"
       id="path-effect4875"
       is_visible="true" />
    <inkscape:path-effect
       effect="powerstroke"
       id="path-effect4855"
       is_visible="true"
       offset_points="0,0.5"
       sort_points="true"
       interpolator_type="CubicBezierJohan"
       interpolator_beta="0.2"
       start_linecap_type="zerowidth"
       linejoin_type="round"
       miter_limit="4"
       end_linecap_type="zerowidth"
       cusp_linecap_type="round" />
    <linearGradient
       id="linearGradient4847"
       osb:paint="solid">
      <stop
         style="stop-color:#000000;stop-opacity:1;"
         offset="0"
         id="stop4849" />
    </linearGradient>
    <inkscape:path-effect
       effect="skeletal"
       id="path-effect4845"
       is_visible="true"
       pattern="m 0.15776699,4.3373786 c 0,-2.76 2.24000001,-4.99999996 5.00000001,-4.99999996 2.76,0 5,2.23999996 5,4.99999996 0,2.76 -2.24,5 -5,5 -2.76,0 -5.00000001,-2.24 -5.00000001,-5 z"
       copytype="single_stretched"
       prop_scale="1"
       scale_y_rel="false"
       spacing="0"
       normal_offset="0"
       tang_offset="0"
       prop_units="false"
       vertical_pattern="false"
       fuse_tolerance="0" />
    <inkscape:path-effect
       effect="skeletal"
       id="path-effect4777"
       is_visible="true"
       pattern="M 0,5 C 0,2.24 2.24,0 5,0 7.76,0 10,2.24 10,5 10,7.76 7.76,10 5,10 2.24,10 0,7.76 0,5 Z"
       copytype="single_stretched"
       prop_scale="1"
       scale_y_rel="false"
       spacing="0"
       normal_offset="0"
       tang_offset="0"
       prop_units="false"
       vertical_pattern="false"
       fuse_tolerance="0" />
    <inkscape:path-effect
       effect="spiro"
       id="path-effect4773"
       is_visible="true" />
    <inkscape:path-effect
       effect="spiro"
       id="path-effect4769"
       is_visible="true" />
  </defs>
  <sodipodi:namedview
     pagecolor="#ffffff"
     bordercolor="#666666"
     borderopacity="1"
     objecttolerance="10"
     gridtolerance="10"
     guidetolerance="10"
     inkscape:pageopacity="0"
     inkscape:pageshadow="2"
     inkscape:window-width="934"
     inkscape:window-height="624"
     id="namedview4138"
     showgrid="false"
     borderlayer="true"
     inkscape:zoom="15.423077"
     inkscape:cx="13"
     inkscape:cy="13"
     inkscape:window-x="338"
     inkscape:window-y="1126"
     inkscape:window-maximized="0"
     inkscape:current-layer="layer4"
     inkscape:object-paths="false"
     inkscape:snap-grids="false"
     inkscape:snap-page="false"
     inkscape:snap-to-guides="false"
     showguides="true"
     inkscape:guide-bbox="true"
     inkscape:snap-others="true"
     inkscape:snap-bbox="false" />
  <g
     inkscape:groupmode="layer"
     id="layer4"
     inkscape:label="Cog"
     style="display:inline">
    <path
       style="opacity:1;fill:#000000;fill-opacity:1;stroke:none;stroke-width:0.00128538;stroke-linecap:square;stroke-linejoin:miter;stroke-miterlimit:4;stroke-dasharray:none;stroke-opacity:1"
       d=""
       id="path4223"
       inkscape:connector-curvature="0" />
    <path
       style="opacity:1;fill:#000000;fill-opacity:1;stroke:none;stroke-width:0.00128538;stroke-linecap:square;stroke-linejoin:miter;stroke-miterlimit:4;stroke-dasharray:none;stroke-opacity:1"
       d=""
       id="path4225"
       inkscape:connector-curvature="0" />
    <path
       style="opacity:1;fill:#cbcbcb;fill-opacity:1;stroke:none;stroke-width:0.1;stroke-linecap:square;stroke-linejoin:miter;stroke-miterlimit:4;stroke-dasharray:none;stroke-opacity:0.96052629"
       d="m 10.054208,12.785407 c -0.06425,0.778838 0.460945,1.769515 1.065239,2.198893 0.686202,0.487576 1.489464,0.726049 1.864043,0.677454 0.687785,-0.08923 1.509903,-0.36245 2.010355,-0.886833 0.567568,-0.594708 0.69495,-1.510216 0.650375,-1.840854 -0.100815,-0.747803 -0.325063,-1.214397 -0.724113,-1.742174 -0.593082,-0.784401 -1.547904,-0.857154 -1.920234,-0.856731 -0.81602,9.27e-4 -1.598156,0.172715 -2.018798,0.687215 -0.441719,0.540281 -0.848152,0.808798 -0.926867,1.76303 z m 0.952845,-7.5174084 c 0.381123,-0.078897 -0.01233,-2.2176793 0.390352,-2.2554371 0.249337,-0.023379 2.568331,-0.1188938 2.813733,-0.1113447 0.255994,0.00787 -0.104747,2.3796921 0.147126,2.4230005 1.25889,0.2219721 1.644965,0.5640055 2.568413,1.2339226 0.228316,0.1656335 1.679462,-1.7852709 1.892402,-1.6020072 0.211299,0.1818513 1.81442,1.7143693 2.01257,1.9097877 0.151252,0.1491678 -1.883311,1.756588 -1.7387,1.9117208 0.780882,0.8405616 1.103516,1.7176928 1.3949,2.6319798 0.128645,0.403661 2.197208,-0.225155 2.199708,0.212315 l 0.0149,2.606693 c 0.0034,0.600378 -2.068212,-0.07048 -2.30971,0.228991 -0.178464,0.805862 -0.59425,1.788704 -1.002165,2.479174 -0.134435,0.227547 1.73425,1.62272 1.577986,1.834599 -0.304231,0.412514 -1.375815,1.68915 -1.754262,2.0336 -0.286432,0.260703 -1.823531,-1.849876 -2.146794,-1.633935 -0.89264,0.596287 -1.636585,1.236271 -2.739859,1.419962 -0.378886,0.06308 0.128142,2.392964 -0.267418,2.399071 -0.317107,0.0049 -2.442901,0.02446 -2.713467,0.02942 -0.332797,0.0061 0.07497,-2.192078 -0.285811,-2.284443 C 10.141169,20.499597 9.1181183,19.931481 8.3617264,19.399079 8.0887385,19.206932 6.7654586,21.179846 6.5198135,20.954804 6.236663,20.695405 4.8536295,19.240102 4.6114056,18.941387 4.3867713,18.664363 6.3630701,17.36424 6.1777143,17.057298 5.7365639,16.326772 5.4122203,15.516819 5.2311497,14.652704 c -0.092203,-0.440018 -2.6093098,0.225039 -2.6237182,-0.23973 -0.00941,-0.303731 0.054732,-2.506465 0.079617,-2.802226 0.028888,-0.343345 2.4304137,0.10273 2.5028596,-0.226998 C 5.3745104,10.543562 5.7518318,9.8085738 6.1862548,9.0924892 6.3851886,8.7645764 4.0338646,7.5570683 4.2779377,7.2630109 4.4947596,7.0017856 6.3204848,5.0691978 6.3204848,5.0691978 c 0,0 1.642657,1.8621368 1.9111261,1.6702623 C 9.0052821,6.0217588 9.7893363,5.3196315 11.007053,5.2679986 Z"
       id="path4162"
       inkscape:connector-curvature="0"
       sodipodi:nodetypes="ssssssssscsscssscssscssssssssssssssssscccc" />
    <path
       style="opacity:1;fill:none;fill-opacity:1;stroke:none;stroke-width:1;stroke-linecap:square;stroke-linejoin:miter;stroke-miterlimit:4;stroke-dasharray:none;stroke-opacity:0.93421054"
       d="m 11.377008,23.445068 c -0.01712,-0.04975 -0.03971,-0.563594 -0.0502,-1.141876 -0.01507,-0.83073 -0.03949,-1.071292 -0.116331,-1.146094 -0.05349,-0.05207 -0.286908,-0.157806 -0.518703,-0.234967 -0.541184,-0.180154 -1.4128236,-0.613182 -2.0037951,-0.995479 -0.2552494,-0.16512 -0.5318506,-0.300218 -0.61467,-0.300218 -0.1082694,0 -0.3834756,0.241396 -0.9794281,0.859102 L 6.2650303,21.344638 5.328582,20.37207 C 4.8135355,19.837157 4.3450975,19.330425 4.2876088,19.245999 4.1841863,19.094115 4.1921055,19.083716 5.0384247,18.260055 5.5498518,17.76232 5.8937656,17.37754 5.8937656,17.303076 c 0,-0.0685 -0.1594251,-0.456368 -0.3542781,-0.861937 C 5.3446346,16.03557 5.1054749,15.419632 5.0080216,15.072387 4.8379377,14.466347 4.8218766,14.438078 4.6074234,14.367302 c -0.1675731,-0.0553 -0.4696563,-0.05454 -1.208664,0.0031 -0.5418894,0.04223 -1.0629183,0.05729 -1.1578419,0.03347 l -0.1725883,-0.04332 0.00687,-0.94933 c 0.00378,-0.522131 0.025659,-1.211923 0.048628,-1.532871 l 0.041763,-0.583541 1.2390438,-7.26e-4 c 0.8645369,-5.19e-4 1.2672616,-0.02415 1.3324017,-0.07821 0.051343,-0.04266 0.1326951,-0.231984 0.180779,-0.420764 C 5.0354397,10.333306 5.3615551,9.5694854 5.6541009,9.0705941 5.7859165,8.8458004 5.8937656,8.5932179 5.8937656,8.5092969 5.8937656,8.3424671 5.6420997,8.112458 4.7591022,7.4722756 4.4738155,7.2654398 4.1466708,7.0077334 4.032114,6.8995947 L 3.823829,6.702979 4.3362701,6.1460033 C 4.6181127,5.8396665 5.0960113,5.3264339 5.3982669,5.0054863 L 5.9478224,4.4219451 6.5205447,4.9810964 c 0.7677741,0.7495815 1.2898674,1.1590532 1.4778403,1.1590532 0.08494,0 0.3974578,-0.150803 0.6944842,-0.3351177 0.6934958,-0.4303368 1.3379228,-0.7227441 2.0438968,-0.9274131 0.309576,-0.089749 0.587678,-0.1998141 0.618005,-0.244589 0.03033,-0.044775 0.04674,-0.6113051 0.03647,-1.258956 -0.01027,-0.647651 -0.0027,-1.1937154 0.01692,-1.2134766 0.01957,-0.019761 0.712528,-0.05611 1.5399,-0.080774 l 1.504312,-0.044845 0,1.2341729 c 0,0.9103472 0.02127,1.2507846 0.08105,1.2974837 0.04458,0.034821 0.285287,0.1130465 0.534913,0.1738345 0.613072,0.1492931 1.026907,0.3461849 1.707748,0.8125012 0.315319,0.215966 0.626603,0.3926655 0.691742,0.3926655 0.06514,0 0.504828,-0.3826073 0.977086,-0.8502385 0.472259,-0.4676312 0.891797,-0.8391898 0.93231,-0.8256859 0.04051,0.013504 0.536396,0.4617597 1.101966,0.9961238 l 1.028309,0.9715712 -0.934044,0.930595 c -0.513724,0.5118271 -0.934045,0.9724237 -0.934045,1.0235479 0,0.051124 0.147488,0.2853804 0.327751,0.5205695 0.385879,0.5034586 0.753521,1.2120266 1.003594,1.934265 0.09878,0.285287 0.226234,0.557118 0.28323,0.60407 0.07882,0.06493 0.359753,0.08045 1.173455,0.06484 l 1.069826,-0.02053 0,1.457292 0,1.457291 -0.178824,0.06289 c -0.119005,0.04185 -0.478568,0.03607 -1.074887,-0.01728 -1.073585,-0.09605 -1.205742,-0.0656 -1.272391,0.293233 -0.06956,0.374492 -0.470483,1.416801 -0.76237,1.981984 -0.173155,0.33528 -0.247052,0.55082 -0.222298,0.648379 0.0204,0.08038 0.402889,0.50779 0.849986,0.949806 0.447097,0.442018 0.812605,0.82132 0.812241,0.842893 -0.0025,0.146528 -1.793549,2.146458 -1.922299,2.146458 -0.05429,0 -0.45349,-0.345305 -0.887121,-0.767345 -0.843447,-0.820899 -1.044991,-0.983279 -1.220428,-0.983279 -0.06126,0 -0.476494,0.245367 -0.922741,0.54526 -0.754404,0.506984 -1.66861,0.946012 -1.96992,0.946012 -0.06566,0 -0.176012,0.04164 -0.245234,0.09253 -0.117266,0.08621 -0.124824,0.169205 -0.110701,1.21571 0.0083,0.617751 -0.01011,1.163115 -0.041,1.211921 -0.08445,0.13344 -2.907345,0.197078 -2.952264,0.06655 z m 2.605374,-7.585626 c 0.394298,-0.13027 1.006124,-0.529684 1.292104,-0.843514 0.453088,-0.497212 0.798831,-1.403351 0.798831,-2.093615 0,-1.167373 -0.713457,-2.299252 -1.76007,-2.792301 -1.27207,-0.5992607 -2.667589,-0.3571326 -3.594181,0.623605 -0.620584,0.656847 -0.8701882,1.278438 -0.8701882,2.167032 0,0.898062 0.2708052,1.556128 0.9075072,2.205275 0.824138,0.840245 2.055506,1.12023 3.225997,0.733518 z"
       id="path4203"
       inkscape:connector-curvature="0" />
  </g>
</svg>
