<?xml version="1.0" encoding="UTF-8" standalone="no"?>
<!-- Created with Inkscape (http://www.inkscape.org/) -->

<svg
   xmlns:osb="http://www.openswatchbook.org/uri/2009/osb"
   xmlns:dc="http://purl.org/dc/elements/1.1/"
   xmlns:cc="http://creativecommons.org/ns#"
   xmlns:rdf="http://www.w3.org/1999/02/22-rdf-syntax-ns#"
   xmlns:svg="http://www.w3.org/2000/svg"
   xmlns="http://www.w3.org/2000/svg"
   xmlns:sodipodi="http://sodipodi.sourceforge.net/DTD/sodipodi-0.dtd"
   xmlns:inkscape="http://www.inkscape.org/namespaces/inkscape"
   id="svg4136"
   version="1.1"
   inkscape:version="0.91 r13725"
   width="26"
   height="26"
   viewBox="0 0 26 26"
   sodipodi:docname="x_prev_eye_on.svg"
   enable-background="new">
  <metadata
     id="metadata4142">
    <rdf:RDF>
      <cc:Work
         rdf:about="">
        <dc:format>image/svg+xml</dc:format>
        <dc:type
           rdf:resource="http://purl.org/dc/dcmitype/StillImage" />
        <dc:title />
      </cc:Work>
    </rdf:RDF>
  </metadata>
  <defs
     id="defs4140">
    <linearGradient
       id="linearGradient5179"
       osb:paint="solid">
      <stop
         style="stop-color:#000000;stop-opacity:1;"
         offset="0"
         id="stop5181" />
    </linearGradient>
    <inkscape:path-effect
       effect="spiro"
       id="path-effect4887"
       is_visible="true" />
    <inkscape:path-effect
       effect="spiro"
       id="path-effect4883"
       is_visible="true" />
    <inkscape:path-effect
       effect="spiro"
       id="path-effect4879"
       is_visible="true" />
    <inkscape:path-effect
       effect="spiro"
       id="path-effect4875"
       is_visible="true" />
    <inkscape:path-effect
       effect="powerstroke"
       id="path-effect4855"
       is_visible="true"
       offset_points="0,0.5"
       sort_points="true"
       interpolator_type="CubicBezierJohan"
       interpolator_beta="0.2"
       start_linecap_type="zerowidth"
       linejoin_type="round"
       miter_limit="4"
       end_linecap_type="zerowidth"
       cusp_linecap_type="round" />
    <linearGradient
       id="linearGradient4847"
       osb:paint="solid">
      <stop
         style="stop-color:#000000;stop-opacity:1;"
         offset="0"
         id="stop4849" />
    </linearGradient>
    <inkscape:path-effect
       effect="skeletal"
       id="path-effect4845"
       is_visible="true"
       pattern="m 0.15776699,4.3373786 c 0,-2.76 2.24000001,-4.99999996 5.00000001,-4.99999996 2.76,0 5,2.23999996 5,4.99999996 0,2.76 -2.24,5 -5,5 -2.76,0 -5.00000001,-2.24 -5.00000001,-5 z"
       copytype="single_stretched"
       prop_scale="1"
       scale_y_rel="false"
       spacing="0"
       normal_offset="0"
       tang_offset="0"
       prop_units="false"
       vertical_pattern="false"
       fuse_tolerance="0" />
    <inkscape:path-effect
       effect="skeletal"
       id="path-effect4777"
       is_visible="true"
       pattern="M 0,5 C 0,2.24 2.24,0 5,0 7.76,0 10,2.24 10,5 10,7.76 7.76,10 5,10 2.24,10 0,7.76 0,5 Z"
       copytype="single_stretched"
       prop_scale="1"
       scale_y_rel="false"
       spacing="0"
       normal_offset="0"
       tang_offset="0"
       prop_units="false"
       vertical_pattern="false"
       fuse_tolerance="0" />
    <inkscape:path-effect
       effect="spiro"
       id="path-effect4773"
       is_visible="true" />
    <inkscape:path-effect
       effect="spiro"
       id="path-effect4769"
       is_visible="true" />
  </defs>
  <sodipodi:namedview
     pagecolor="#ffffff"
     bordercolor="#666666"
     borderopacity="1"
     objecttolerance="10"
     gridtolerance="10"
     guidetolerance="10"
     inkscape:pageopacity="0"
     inkscape:pageshadow="2"
     inkscape:window-width="668"
     inkscape:window-height="459"
     id="namedview4138"
     showgrid="false"
     borderlayer="true"
     inkscape:zoom="9.0769231"
     inkscape:cx="11.677966"
     inkscape:cy="13"
     inkscape:window-x="479"
     inkscape:window-y="518"
     inkscape:window-maximized="0"
     inkscape:current-layer="layer4"
     inkscape:object-paths="false"
     inkscape:snap-grids="false"
     inkscape:snap-page="false"
     inkscape:snap-to-guides="false"
     showguides="false" />
  <g
     inkscape:groupmode="layer"
     id="layer1"
     inkscape:label="Eye Outline"
     style="display:inline">
    <path
       style="display:inline;opacity:1;fill:#464646;fill-opacity:1;stroke:#000000;stroke-width:0.004;stroke-linecap:square;stroke-linejoin:miter;stroke-miterlimit:4;stroke-dasharray:none;stroke-opacity:1"
       d="M 11.357812,20.875473 C 8.1972708,20.348785 4.9463488,18.275613 2.4199468,15.175637 1.3798547,13.899411 1.2047958,13.558743 1.2744165,12.946414 1.4182544,11.68133 3.9906191,8.8056431 6.4584798,7.1510692 10.914483,4.1635472 15.740728,4.2814639 20.297555,7.4891909 c 1.14952,0.8091922 3.404722,3.0458501 4.118138,4.0842781 0.493313,0.718053 0.555654,0.873944 0.555654,1.389476 0,0.496511 -0.06443,0.674174 -0.444523,1.225697 -0.583004,0.845954 -2.663637,2.975893 -3.747151,3.835948 -2.509381,1.991856 -5.07265,2.940366 -7.866029,2.910737 -0.702903,-0.0075 -1.403027,-0.03439 -1.555832,-0.05985 z M 11.611647,7.4202525 c -0.241138,0.019255 -0.759586,0.1696882 -1.349879,0.4078316 -1.8466054,0.744978 -3.4147752,1.847479 -5.1108752,3.5931929 -1.3267869,1.365599 -1.4590308,1.582156 -1.2028552,1.969746 0.3918431,0.592855 2.1814132,2.347272 3.0111122,2.951967 1.713529,1.248837 4.1345082,2.291479 5.2877132,2.277256 l 0.500089,-0.0062 1.834788,-0.107361 c 0.155863,-0.02151 0.437757,-0.0889 0.792752,-0.200327 l 1.12e-4,4e-6 c 1.642923,-0.515685 3.838944,-1.895505 5.387509,-3.38512 1.190981,-1.145643 1.743637,-1.839764 1.663504,-2.089316 -0.09691,-0.301804 -2.646854,-2.8345839 -3.430209,-3.4071259 -1.668758,-1.21967 -3.815674,-1.985296 -5.692805,-2.0795639 -0.532642,-0.026749 -0.338267,-0.037073 -0.862701,-0.01788 z"
       id="path4213"
       inkscape:connector-curvature="0"
       sodipodi:nodetypes="ssssssssscscsssscccccsssscc" />
    <path
       style="opacity:1;fill:#dbdbdb;fill-opacity:1;stroke:none;stroke-width:0;stroke-linecap:square;stroke-linejoin:miter;stroke-miterlimit:4;stroke-dasharray:none;stroke-opacity:0"
       d="m 11.479661,18.467716 c -0.09089,-0.03311 -0.4875,-0.162924 -0.881356,-0.288468 -0.8654283,-0.27586 -2.0065137,-0.836204 -2.9761907,-1.461494 -1.3182455,-0.850063 -3.7441482,-3.214997 -3.7441482,-3.65005 0,-0.242074 1.543593,-1.912981 2.5515209,-2.761967 1.694899,-1.4276287 3.3470311,-2.3655385 4.843162,-2.7494465 0.940052,-0.241218 2.902876,-0.1563599 4.062944,0.1756519 0.974196,0.2788149 2.630204,1.0420993 3.379696,1.5577632 0.580781,0.3995878 3.122696,2.8308524 3.47079,3.3197054 0.216363,0.303854 0.216329,0.305695 -0.01255,0.676038 -0.389905,0.630879 -2.450029,2.525862 -3.534822,3.251468 -1.140081,0.762588 -2.269243,1.360081 -3.192939,1.689535 -0.464821,0.165788 -0.977955,0.226056 -2.20339,0.258794 -0.878602,0.02347 -1.671822,0.01558 -1.762712,-0.01753 z"
       id="path4186"
       inkscape:connector-curvature="0" />
  </g>
  <g
     inkscape:groupmode="layer"
     id="layer4"
     inkscape:label="Eye ball"
     style="display:inline">
    <path
       style="opacity:1;fill:#000000;fill-opacity:1;stroke:#d8d8d8;stroke-width:0.00128538;stroke-linecap:square;stroke-linejoin:miter;stroke-miterlimit:4;stroke-dasharray:none;stroke-opacity:0.01315786"
       d=""
       id="path4223"
       inkscape:connector-curvature="0" />
    <path
       style="opacity:1;fill:#000000;fill-opacity:1;stroke:#d8d8d8;stroke-width:0.00128538;stroke-linecap:square;stroke-linejoin:miter;stroke-miterlimit:4;stroke-dasharray:none;stroke-opacity:0.01315786"
       d=""
       id="path4225"
       inkscape:connector-curvature="0" />
    <path
       style="display:inline;opacity:1;fill:#464646;fill-opacity:1;stroke:none;stroke-width:0.004;stroke-linecap:square;stroke-linejoin:miter;stroke-miterlimit:4;stroke-dasharray:none;stroke-opacity:1"
       d="m 12.08593,7.1877379 0.991526,0.1472595 c 1.928187,0.2863712 2.957464,0.7367706 3.909198,1.7106166 1.170984,1.198193 1.633875,2.569542 1.515238,4.489002 -0.127693,2.065957 -1.765356,4.061873 -3.882063,4.731301 -0.242373,0.07665 -0.722089,0.197769 -0.611587,0.201822 l -1.040956,0.0367 -0.591747,-0.09831 0,3e-6 C 11.125954,18.198536 9.5974768,17.361395 8.8886615,16.49638 8.4152837,15.918684 7.759364,14.519015 7.5951618,13.736176 7.449039,13.03953 7.5987718,11.849668 7.9510467,10.908131 8.2856215,10.0139 8.4085752,9.87863 8.7344827,10.046219 c 0.1466862,0.07543 0.4402191,0.302378 0.6522954,0.504332 0.9216319,0.877642 1.9778899,0.8376 2.6946739,-0.102152 0.233565,-0.30622 0.279902,-0.485796 0.279902,-1.084743 0,-0.675083 -0.02286,-0.739987 -0.38442,-1.091296 C 11.551757,7.8592353 11.490799,7.5862653 11.782964,7.4037566 11.934983,7.3087936 12.08593,7.1877379 12.08593,7.1877379 Z"
       id="path4153"
       inkscape:connector-curvature="0"
       sodipodi:nodetypes="cssssccccsssssssscc" />
  </g>
</svg>
