<?xml version="1.0" encoding="UTF-8" standalone="no"?>
<!DOCTYPE svg PUBLIC "-//W3C//DTD SVG 1.1//EN" "http://www.w3.org/Graphics/SVG/1.1/DTD/svg11.dtd">
<svg width="100%" height="100%" viewBox="0 0 18 18" version="1.1" xmlns="http://www.w3.org/2000/svg" xmlns:xlink="http://www.w3.org/1999/xlink" xml:space="preserve" xmlns:serif="http://www.serif.com/" style="fill-rule:evenodd;clip-rule:evenodd;stroke-linejoin:round;stroke-miterlimit:2;">
    <rect x="0" y="0" width="18" height="18" style="fill-opacity:0;"/>
    <g>
        <path d="M3,8.991C3,8.991 5.248,5 9,5C12.752,5 15,8.991 15,8.991C15,8.991 12.761,13 9,13C5.239,13 3,8.991 3,8.991ZM9,6C10.656,6 12,7.344 12,9C12,10.656 10.656,12 9,12C7.344,12 6,10.656 6,9C6,7.344 7.344,6 9,6Z" style="fill:rgb(97,174,191);"/>
        <g>
            <path d="M9,7.5C9.828,7.5 10.5,8.172 10.5,9C10.5,9.828 9.828,10.5 9,10.5C8.172,10.5 7.5,9.828 7.5,9C7.5,8.172 8.172,7.5 9,7.5Z" style="fill:rgb(97,174,191);"/>
        </g>
    </g>
</svg>
