<?xml version="1.0" encoding="UTF-8" standalone="no"?><!DOCTYPE svg PUBLIC "-//W3C//DTD SVG 1.1//EN" "http://www.w3.org/Graphics/SVG/1.1/DTD/svg11.dtd"><svg width="100%" height="100%" viewBox="0 0 18 18" version="1.1" xmlns="http://www.w3.org/2000/svg" xmlns:xlink="http://www.w3.org/1999/xlink" xml:space="preserve" style="fill-rule:evenodd;clip-rule:evenodd;stroke-linejoin:round;stroke-miterlimit:1.41421;"><rect x="0" y="0" width="18" height="18" style="fill:none;"/><g><path d="M6.019,8c0,0 -0.015,-0.567 0,-1.61c0.008,-0.17 0.032,-1.15 0.082,-1.313c0.087,-0.285 0.244,-0.55 0.421,-0.787c0.391,-0.522 0.936,-0.919 1.552,-1.122c0.295,-0.097 0.6,-0.146 0.909,-0.154c1.034,-0.01 0.068,-0.027 1.101,0.001c0.291,0.013 0.577,0.062 0.854,0.153c0.616,0.203 1.161,0.6 1.552,1.122c0.177,0.237 0.335,0.502 0.421,0.787c0.05,0.163 0.075,0.33 0.082,0.5c0.014,0.972 0.002,1.4 0.001,2.423l1.006,0l0.065,0.002l0.066,0.007l0.064,0.01l0.064,0.015l0.062,0.019l0.062,0.023l0.059,0.027l0.058,0.031l0.056,0.035l0.053,0.038l0.05,0.041l0.048,0.045l0.045,0.048l0.041,0.05l0.038,0.053l0.035,0.056l0.031,0.058l0.027,0.059l0.023,0.062l0.019,0.062l0.015,0.064l0.01,0.064l0.007,0.066l0.002,0.065l0,6l-0.002,0.065l-0.007,0.066l-0.01,0.064l-0.015,0.064l-0.019,0.062l-0.023,0.062l-0.027,0.059l-0.031,0.058l-0.035,0.056l-0.038,0.053l-0.041,0.05l-0.045,0.048l-0.048,0.045l-0.05,0.041l-0.053,0.038l-0.056,0.035l-0.058,0.031l-0.059,0.027l-0.062,0.023l-0.062,0.019l-0.064,0.015l-0.064,0.01l-0.066,0.007l-0.065,0.002l-9,0l-0.065,-0.002l-0.066,-0.007l-0.064,-0.01l-0.064,-0.015l-0.062,-0.019l-0.062,-0.023l-0.059,-0.027l-0.058,-0.031l-0.056,-0.035l-0.053,-0.038l-0.05,-0.041l-0.048,-0.045l-0.045,-0.048l-0.041,-0.05l-0.038,-0.053l-0.035,-0.056l-0.031,-0.058l-0.027,-0.059l-0.023,-0.062l-0.019,-0.062l-0.015,-0.064l-0.01,-0.064l-0.007,-0.066l-0.002,-0.065l0,-6l0.002,-0.065l0.007,-0.066l0.01,-0.064l0.015,-0.064l0.019,-0.062l0.023,-0.062l0.027,-0.059l0.031,-0.058l0.035,-0.056l0.038,-0.053l0.041,-0.05l0.045,-0.048l0.048,-0.045l0.05,-0.041l0.053,-0.038l0.056,-0.035l0.058,-0.031l0.059,-0.027l0.062,-0.023l0.062,-0.019l0.064,-0.015l0.064,-0.01l0.066,-0.007l0.065,-0.002l6.703,0c-0.016,-1.032 0.073,-1.451 0.001,-2.42c-0.012,-0.115 -0.055,-0.211 -0.112,-0.31c-0.05,-0.087 -0.107,-0.17 -0.17,-0.249c-0.249,-0.31 -0.592,-0.54 -0.974,-0.644c-0.144,-0.04 -0.292,-0.059 -0.442,-0.063c-1,-0.009 0,-0.009 -1,0c-0.149,0.004 -0.297,0.023 -0.442,0.063c-0.382,0.104 -0.725,0.334 -0.974,0.644c-0.056,0.07 -0.107,0.143 -0.152,0.22c-0.036,0.059 -0.071,0.119 -0.095,0.184c-0.023,0.061 -0.032,2.575 -0.032,2.575l-1.292,0l0,0Zm7.981,1l-9,0l0,6l9,0l0,-6Z" style="fill:#cdcdcd;stroke:#000;stroke-opacity:0.447059;stroke-width:1px;"/></g><path d="M6.019,8c0,0 -0.015,-0.567 0,-1.61c0.008,-0.17 0.032,-1.15 0.082,-1.313c0.087,-0.285 0.244,-0.55 0.421,-0.787c0.391,-0.522 0.936,-0.919 1.552,-1.122c0.295,-0.097 0.6,-0.146 0.909,-0.154c1.034,-0.01 0.068,-0.027 1.101,0.001c0.291,0.013 0.577,0.062 0.854,0.153c0.616,0.203 1.161,0.6 1.552,1.122c0.177,0.237 0.335,0.502 0.421,0.787c0.05,0.163 0.075,0.33 0.082,0.5c0.014,0.972 0.002,1.4 0.001,2.423l1.006,0l0.065,0.002l0.066,0.007l0.064,0.01l0.064,0.015l0.062,0.019l0.062,0.023l0.059,0.027l0.058,0.031l0.056,0.035l0.053,0.038l0.05,0.041l0.048,0.045l0.045,0.048l0.041,0.05l0.038,0.053l0.035,0.056l0.031,0.058l0.027,0.059l0.023,0.062l0.019,0.062l0.015,0.064l0.01,0.064l0.007,0.066l0.002,0.065l0,6l-0.002,0.065l-0.007,0.066l-0.01,0.064l-0.015,0.064l-0.019,0.062l-0.023,0.062l-0.027,0.059l-0.031,0.058l-0.035,0.056l-0.038,0.053l-0.041,0.05l-0.045,0.048l-0.048,0.045l-0.05,0.041l-0.053,0.038l-0.056,0.035l-0.058,0.031l-0.059,0.027l-0.062,0.023l-0.062,0.019l-0.064,0.015l-0.064,0.01l-0.066,0.007l-0.065,0.002l-9,0l-0.065,-0.002l-0.066,-0.007l-0.064,-0.01l-0.064,-0.015l-0.062,-0.019l-0.062,-0.023l-0.059,-0.027l-0.058,-0.031l-0.056,-0.035l-0.053,-0.038l-0.05,-0.041l-0.048,-0.045l-0.045,-0.048l-0.041,-0.05l-0.038,-0.053l-0.035,-0.056l-0.031,-0.058l-0.027,-0.059l-0.023,-0.062l-0.019,-0.062l-0.015,-0.064l-0.01,-0.064l-0.007,-0.066l-0.002,-0.065l0,-6l0.002,-0.065l0.007,-0.066l0.01,-0.064l0.015,-0.064l0.019,-0.062l0.023,-0.062l0.027,-0.059l0.031,-0.058l0.035,-0.056l0.038,-0.053l0.041,-0.05l0.045,-0.048l0.048,-0.045l0.05,-0.041l0.053,-0.038l0.056,-0.035l0.058,-0.031l0.059,-0.027l0.062,-0.023l0.062,-0.019l0.064,-0.015l0.064,-0.01l0.066,-0.007l0.065,-0.002l6.703,0c-0.016,-1.032 0.073,-1.451 0.001,-2.42c-0.012,-0.115 -0.055,-0.211 -0.112,-0.31c-0.05,-0.087 -0.107,-0.17 -0.17,-0.249c-0.249,-0.31 -0.592,-0.54 -0.974,-0.644c-0.144,-0.04 -0.292,-0.059 -0.442,-0.063c-1,-0.009 0,-0.009 -1,0c-0.149,0.004 -0.297,0.023 -0.442,0.063c-0.382,0.104 -0.725,0.334 -0.974,0.644c-0.056,0.07 -0.107,0.143 -0.152,0.22c-0.036,0.059 -0.071,0.119 -0.095,0.184c-0.023,0.061 -0.032,2.575 -0.032,2.575l-1.292,0l0,0Zm7.981,1l-9,0l0,6l9,0l0,-6Z" style="fill:#ff9c2c;"/></svg>