<?xml version="1.0" encoding="UTF-8" standalone="no"?><!DOCTYPE svg PUBLIC "-//W3C//DTD SVG 1.1//EN" "http://www.w3.org/Graphics/SVG/1.1/DTD/svg11.dtd"><svg width="100%" height="100%" viewBox="0 0 18 18" version="1.1" xmlns="http://www.w3.org/2000/svg" xmlns:xlink="http://www.w3.org/1999/xlink" xml:space="preserve" style="fill-rule:evenodd;clip-rule:evenodd;stroke-linejoin:round;stroke-miterlimit:1.41421;"><rect x="0" y="0" width="18" height="18" style="fill:none;"/><path d="M8.819,2.102c0.623,-0.009 -0.35,-0.001 0.274,-0.001c0.383,0.006 0.76,0.067 1.121,0.198c0.918,0.332 1.656,1.071 1.989,1.989c0.126,0.346 0.19,0.708 0.199,1.075c0.008,0.879 0.002,1.758 0.001,2.637l1.597,0l0,7l-10,0l0,-7l6.997,0c-0.01,-0.893 0.042,-1.788 0.003,-2.681c-0.012,-0.2 -0.052,-0.396 -0.124,-0.584c-0.191,-0.499 -0.591,-0.904 -1.088,-1.1c-0.206,-0.082 -0.423,-0.123 -0.645,-0.133c-0.627,-0.009 0.343,-0.009 -0.284,0l0.284,0c-0.627,-0.009 0.343,-0.009 -0.284,0c-0.221,0.01 -0.438,0.051 -0.645,0.133c-0.518,0.205 -0.929,0.635 -1.11,1.162c-0.065,0.189 -0.104,0.203 -0.104,0.203l-1.399,0c0,0 0.079,-0.385 0.198,-0.712c0.322,-0.887 1.023,-1.608 1.9,-1.955c0.359,-0.142 0.735,-0.214 1.12,-0.231c0.623,-0.009 -0.35,-0.001 0.274,-0.001l-0.274,0.001Z" style="fill:none;stroke:#000;stroke-opacity:0.501961;stroke-width:1px;"/><path d="M8.819,2.102c0.623,-0.009 -0.35,-0.001 0.274,-0.001c0.383,0.006 0.76,0.067 1.121,0.198c0.918,0.332 1.656,1.071 1.989,1.989c0.126,0.346 0.19,0.708 0.199,1.075c0.008,0.879 0.002,1.758 0.001,2.637l1.597,0l0,7l-10,0l0,-7l6.997,0c-0.01,-0.893 0.042,-1.788 0.003,-2.681c-0.012,-0.2 -0.052,-0.396 -0.124,-0.584c-0.191,-0.499 -0.591,-0.904 -1.088,-1.1c-0.206,-0.082 -0.423,-0.123 -0.645,-0.133c-0.627,-0.009 0.343,-0.009 -0.284,0l0.284,0c-0.627,-0.009 0.343,-0.009 -0.284,0c-0.221,0.01 -0.438,0.051 -0.645,0.133c-0.518,0.205 -0.929,0.635 -1.11,1.162c-0.065,0.189 -0.104,0.203 -0.104,0.203l-1.399,0c0,0 0.079,-0.385 0.198,-0.712c0.322,-0.887 1.023,-1.608 1.9,-1.955c0.359,-0.142 0.735,-0.214 1.12,-0.231c0.623,-0.009 -0.35,-0.001 0.274,-0.001l-0.274,0.001Z" style="fill:#d9d9d9;"/></svg>