<?xml version="1.0" encoding="UTF-8" standalone="no"?><!DOCTYPE svg PUBLIC "-//W3C//DTD SVG 1.1//EN" "http://www.w3.org/Graphics/SVG/1.1/DTD/svg11.dtd"><svg width="100%" height="100%" viewBox="0 0 18 18" version="1.1" xmlns="http://www.w3.org/2000/svg" xmlns:xlink="http://www.w3.org/1999/xlink" xml:space="preserve" style="fill-rule:evenodd;clip-rule:evenodd;stroke-linejoin:round;stroke-miterlimit:1.41421;"><path d="M13,8l1,0l0,7l-10,0l0,-7l1,0l0,-3.103c0,-0.499 0.207,-0.98 0.578,-1.344c0.001,0 0.001,0 0.001,-0.001c0.36,-0.352 0.861,-0.552 1.386,-0.552l4.07,0c0.525,0 1.026,0.2 1.386,0.552c0,0.001 0,0.001 0.001,0.001c0.371,0.364 0.578,0.845 0.578,1.344l0,0.695m-4,4.908c0.69,0 1.25,0.56 1.25,1.25c0,0.69 -0.56,1.25 -1.25,1.25c-0.69,0 -1.25,-0.56 -1.25,-1.25c0,-0.69 0.56,-1.25 1.25,-1.25Zm4,-4.908l-1.5,-0.005c0,-0.312 -0.129,-0.613 -0.361,-0.84c-0.001,0 -0.001,0 -0.001,-0.001c-0.225,-0.22 -0.538,-0.345 -0.866,-0.345l-2.544,0c-0.328,0 -0.641,0.125 -0.866,0.345c0,0.001 0,0.001 -0.001,0.001c-0.232,0.227 -0.361,0.528 -0.361,0.84l0,2.413l6.5,0" style="fill:#999;fill-opacity:0.447059;"/></svg>