<?xml version="1.0" encoding="UTF-8" standalone="no"?><!DOCTYPE svg PUBLIC "-//W3C//DTD SVG 1.1//EN" "http://www.w3.org/Graphics/SVG/1.1/DTD/svg11.dtd"><svg width="100%" height="100%" viewBox="0 0 18 18" version="1.1" xmlns="http://www.w3.org/2000/svg" xmlns:xlink="http://www.w3.org/1999/xlink" xml:space="preserve" style="fill-rule:evenodd;clip-rule:evenodd;stroke-linejoin:round;stroke-miterlimit:1.41421;"><path d="M8.285,2.036l0.088,-0.008l0.089,-0.008l0.089,-0.006l0.089,-0.005l0.09,-0.004l0.089,-0.003l0.091,-0.001l0.09,-0.001l0.181,0.002l0.089,0.003l0.09,0.004l0.089,0.005l0.089,0.006l0.089,0.008l0.088,0.008l0.176,0.02l0.087,0.012l0.087,0.013l0.087,0.014l0.086,0.014l0.086,0.016l0.086,0.017l0.085,0.018l0.085,0.019l0.084,0.02l0.085,0.022l0.083,0.022l0.083,0.023l0.083,0.024l0.083,0.025l0.082,0.026l0.081,0.027l0.081,0.028l0.081,0.029l0.08,0.03l0.08,0.031l0.158,0.064l0.078,0.034l0.078,0.035l0.077,0.035l0.077,0.037l0.076,0.037l0.076,0.038l0.075,0.039l0.074,0.04l0.075,0.041l0.073,0.042l0.146,0.086l0.071,0.044l0.072,0.045l0.071,0.046l0.07,0.047l0.138,0.096l0.068,0.049l0.068,0.05l0.067,0.051l0.067,0.052l0.065,0.052l0.066,0.053l0.064,0.054l0.064,0.055l0.063,0.055l0.063,0.056l0.061,0.057l0.062,0.058l0.06,0.058l0.06,0.059l0.059,0.06l0.058,0.06l0.058,0.062l0.057,0.061l0.056,0.063l0.055,0.063l0.055,0.064l0.054,0.064l0.053,0.066l0.052,0.065l0.052,0.067l0.051,0.067l0.05,0.068l0.049,0.068l0.096,0.138l0.047,0.07l0.046,0.071l0.045,0.072l0.044,0.071l0.086,0.146l0.042,0.073l0.041,0.075l0.04,0.074l0.039,0.075l0.038,0.076l0.037,0.076l0.037,0.077l0.035,0.077l0.035,0.078l0.034,0.078l0.064,0.158l0.031,0.08l0.03,0.08l0.029,0.081l0.028,0.081l0.027,0.081l0.026,0.082l0.025,0.083l0.024,0.083l0.023,0.083l0.022,0.083l0.022,0.085l0.02,0.084l0.019,0.085l0.018,0.085l0.017,0.086l0.016,0.086l0.014,0.086l0.014,0.087l0.013,0.087l0.012,0.087l0.02,0.176l0.008,0.088l0.008,0.089l0.006,0.089l0.005,0.089l0.004,0.09l0.003,0.089l0.002,0.181l-0.001,0.09l-0.001,0.091l-0.003,0.089l-0.004,0.09l-0.005,0.089l-0.006,0.089l-0.008,0.089l-0.008,0.088l-0.02,0.176l-0.012,0.087l-0.013,0.087l-0.014,0.087l-0.014,0.086l-0.016,0.086l-0.017,0.086l-0.018,0.085l-0.019,0.085l-0.02,0.084l-0.022,0.085l-0.022,0.083l-0.023,0.083l-0.024,0.083l-0.025,0.083l-0.026,0.082l-0.027,0.081l-0.028,0.081l-0.029,0.081l-0.03,0.08l-0.031,0.08l-0.064,0.158l-0.034,0.078l-0.035,0.078l-0.035,0.077l-0.037,0.077l-0.037,0.076l-0.038,0.076l-0.039,0.075l-0.04,0.074l-0.041,0.075l-0.042,0.073l-0.086,0.146l-0.044,0.071l-0.045,0.072l-0.046,0.071l-0.047,0.07l-0.096,0.138l-0.049,0.068l-0.05,0.068l-0.051,0.067l-0.052,0.067l-0.052,0.065l-0.053,0.066l-0.054,0.064l-0.055,0.064l-0.055,0.063l-0.056,0.063l-0.057,0.061l-0.058,0.062l-0.058,0.06l-0.059,0.06l-0.06,0.059l-0.06,0.058l-0.062,0.058l-0.061,0.057l-0.063,0.056l-0.063,0.055l-0.064,0.055l-0.064,0.054l-0.066,0.053l-0.065,0.052l-0.067,0.052l-0.067,0.051l-0.068,0.05l-0.068,0.049l-0.138,0.096l-0.07,0.047l-0.071,0.046l-0.072,0.045l-0.071,0.044l-0.146,0.086l-0.073,0.042l-0.075,0.041l-0.074,0.04l-0.075,0.039l-0.076,0.038l-0.076,0.037l-0.077,0.037l-0.077,0.035l-0.078,0.035l-0.078,0.034l-0.158,0.064l-0.08,0.031l-0.08,0.03l-0.081,0.029l-0.081,0.028l-0.081,0.027l-0.082,0.026l-0.083,0.025l-0.083,0.024l-0.083,0.023l-0.083,0.022l-0.085,0.022l-0.084,0.02l-0.085,0.019l-0.085,0.018l-0.086,0.017l-0.086,0.016l-0.086,0.014l-0.087,0.014l-0.087,0.013l-0.087,0.012l-0.176,0.02l-0.088,0.008l-0.089,0.008l-0.089,0.006l-0.089,0.005l-0.09,0.004l-0.089,0.003l-0.091,0.001l-0.09,0.001l-0.09,-0.001l-0.091,-0.001l-0.089,-0.003l-0.09,-0.004l-0.089,-0.005l-0.089,-0.006l-0.089,-0.008l-0.088,-0.008l-0.176,-0.02l-0.087,-0.012l-0.087,-0.013l-0.087,-0.014l-0.086,-0.014l-0.086,-0.016l-0.086,-0.017l-0.085,-0.018l-0.085,-0.019l-0.084,-0.02l-0.085,-0.022l-0.083,-0.022l-0.083,-0.023l-0.083,-0.024l-0.083,-0.025l-0.082,-0.026l-0.081,-0.027l-0.081,-0.028l-0.081,-0.029l-0.08,-0.03l-0.08,-0.031l-0.158,-0.064l-0.078,-0.034l-0.078,-0.035l-0.077,-0.035l-0.077,-0.037l-0.076,-0.037l-0.076,-0.038l-0.075,-0.039l-0.074,-0.04l-0.075,-0.041l-0.073,-0.042l-0.146,-0.086l-0.071,-0.044l-0.072,-0.045l-0.071,-0.046l-0.07,-0.047l-0.138,-0.096l-0.068,-0.049l-0.068,-0.05l-0.067,-0.051l-0.067,-0.052l-0.065,-0.052l-0.066,-0.053l-0.064,-0.054l-0.064,-0.055l-0.063,-0.055l-0.063,-0.056l-0.061,-0.057l-0.062,-0.058l-0.06,-0.058l-0.06,-0.059l-0.059,-0.06l-0.058,-0.06l-0.058,-0.062l-0.057,-0.061l-0.056,-0.063l-0.055,-0.063l-0.055,-0.064l-0.054,-0.064l-0.053,-0.066l-0.052,-0.065l-0.052,-0.067l-0.051,-0.067l-0.05,-0.068l-0.049,-0.068l-0.096,-0.138l-0.047,-0.07l-0.046,-0.071l-0.045,-0.072l-0.044,-0.071l-0.086,-0.146l-0.042,-0.073l-0.041,-0.075l-0.04,-0.074l-0.039,-0.075l-0.038,-0.076l-0.037,-0.076l-0.037,-0.077l-0.035,-0.077l-0.035,-0.078l-0.034,-0.078l-0.064,-0.158l-0.031,-0.08l-0.03,-0.08l-0.029,-0.081l-0.028,-0.081l-0.027,-0.081l-0.026,-0.082l-0.025,-0.083l-0.024,-0.083l-0.023,-0.083l-0.022,-0.083l-0.022,-0.085l-0.02,-0.084l-0.019,-0.085l-0.018,-0.085l-0.017,-0.086l-0.016,-0.086l-0.014,-0.086l-0.014,-0.087l-0.013,-0.087l-0.012,-0.087l-0.02,-0.176l-0.008,-0.088l-0.008,-0.089l-0.006,-0.089l-0.005,-0.089l-0.004,-0.09l-0.003,-0.089l-0.001,-0.091l-0.001,-0.09l0.001,-0.09l0.001,-0.091l0.003,-0.089l0.004,-0.09l0.005,-0.089l0.006,-0.089l0.008,-0.089l0.008,-0.088l0.02,-0.176l0.012,-0.087l0.013,-0.087l0.014,-0.087l0.014,-0.086l0.016,-0.086l0.017,-0.086l0.018,-0.085l0.019,-0.085l0.02,-0.084l0.022,-0.085l0.022,-0.083l0.023,-0.083l0.024,-0.083l0.025,-0.083l0.026,-0.082l0.027,-0.081l0.028,-0.081l0.029,-0.081l0.03,-0.08l0.031,-0.08l0.064,-0.158l0.034,-0.078l0.035,-0.078l0.035,-0.077l0.037,-0.077l0.037,-0.076l0.038,-0.076l0.039,-0.075l0.04,-0.074l0.041,-0.075l0.042,-0.073l0.086,-0.146l0.044,-0.071l0.045,-0.072l0.046,-0.071l0.047,-0.07l0.096,-0.138l0.049,-0.068l0.05,-0.068l0.051,-0.067l0.052,-0.067l0.052,-0.065l0.053,-0.066l0.054,-0.064l0.055,-0.064l0.055,-0.063l0.056,-0.063l0.057,-0.061l0.058,-0.062l0.058,-0.06l0.059,-0.06l0.06,-0.059l0.06,-0.058l0.062,-0.058l0.061,-0.057l0.063,-0.056l0.063,-0.055l0.064,-0.055l0.064,-0.054l0.066,-0.053l0.065,-0.052l0.067,-0.052l0.067,-0.051l0.068,-0.05l0.068,-0.049l0.138,-0.096l0.07,-0.047l0.071,-0.046l0.072,-0.045l0.071,-0.044l0.146,-0.086l0.073,-0.042l0.075,-0.041l0.074,-0.04l0.075,-0.039l0.076,-0.038l0.076,-0.037l0.077,-0.037l0.077,-0.035l0.078,-0.035l0.078,-0.034l0.158,-0.064l0.08,-0.031l0.08,-0.03l0.081,-0.029l0.081,-0.028l0.081,-0.027l0.082,-0.026l0.083,-0.025l0.083,-0.024l0.083,-0.023l0.083,-0.022l0.085,-0.022l0.084,-0.02l0.085,-0.019l0.085,-0.018l0.086,-0.017l0.086,-0.016l0.086,-0.014l0.087,-0.014l0.087,-0.013l0.087,-0.012l0.176,-0.02l0,0Zm1.393,1.103l-0.074,-0.008l-0.075,-0.008l-0.074,-0.006l-0.075,-0.005l-0.076,-0.004l-0.075,-0.004l-0.076,-0.002l-0.077,-0.001l-0.076,-0.001l-0.076,0.001l-0.077,0.001l-0.076,0.002l-0.075,0.004l-0.076,0.004l-0.075,0.005l-0.074,0.006l-0.075,0.008l-0.074,0.008l-0.148,0.018l-0.073,0.011l-0.146,0.024l-0.144,0.028l-0.072,0.015l-0.071,0.016l-0.071,0.017l-0.142,0.036l-0.07,0.02l-0.069,0.02l-0.07,0.021l-0.069,0.022l-0.068,0.023l-0.136,0.048l-0.068,0.025l-0.067,0.026l-0.067,0.027l-0.066,0.027l-0.066,0.029l-0.065,0.029l-0.065,0.03l-0.065,0.031l-0.064,0.031l-0.064,0.032l-0.063,0.033l-0.126,0.068l-0.062,0.035l-0.061,0.036l-0.122,0.074l-0.06,0.038l-0.06,0.039l-0.059,0.04l-0.058,0.04l-0.116,0.082l-0.057,0.042l-0.057,0.043l-0.056,0.044l-0.055,0.044l-0.11,0.09l-0.054,0.046l-0.106,0.094l-0.052,0.048l-0.052,0.049l-0.051,0.049l-0.1,0.1l-0.049,0.051l-0.049,0.052l-0.048,0.052l-0.094,0.106l-0.046,0.054l-0.09,0.11l-0.044,0.055l-0.044,0.056l-0.043,0.057l-0.042,0.057l-0.082,0.116l-0.04,0.058l-0.04,0.059l-0.039,0.06l-0.038,0.06l-0.074,0.122l-0.036,0.061l-0.035,0.062l-0.068,0.126l-0.033,0.063l-0.032,0.064l-0.031,0.064l-0.031,0.065l-0.03,0.065l-0.029,0.065l-0.029,0.066l-0.027,0.066l-0.027,0.067l-0.026,0.067l-0.025,0.068l-0.048,0.136l-0.023,0.068l-0.022,0.069l-0.021,0.07l-0.02,0.069l-0.02,0.07l-0.036,0.142l-0.017,0.071l-0.016,0.071l-0.015,0.072l-0.028,0.144l-0.024,0.146l-0.011,0.073l-0.018,0.148l-0.008,0.074l-0.008,0.075l-0.006,0.074l-0.005,0.075l-0.004,0.076l-0.004,0.075l-0.002,0.076l-0.001,0.077l-0.001,0.076l0.002,0.153l0.002,0.076l0.004,0.075l0.004,0.076l0.005,0.075l0.006,0.074l0.008,0.075l0.008,0.074l0.018,0.148l0.011,0.073l0.024,0.146l0.028,0.144l0.015,0.072l0.016,0.071l0.017,0.071l0.036,0.142l0.02,0.07l0.02,0.069l0.021,0.07l0.022,0.069l0.023,0.068l0.048,0.136l0.025,0.068l0.026,0.067l0.027,0.067l0.027,0.066l0.029,0.066l0.029,0.065l0.03,0.065l0.031,0.065l0.031,0.064l0.032,0.064l0.033,0.063l0.068,0.126l0.035,0.062l0.036,0.061l0.074,0.122l0.038,0.06l0.039,0.06l0.04,0.059l0.04,0.058l0.082,0.116l0.042,0.057l0.043,0.057l0.044,0.056l0.044,0.055l0.09,0.11l0.046,0.054l0.094,0.106l0.048,0.052l0.049,0.052l0.049,0.051l0.1,0.1l0.052,0.049l0.051,0.049l0.052,0.048l0.106,0.094l0.054,0.046l0.11,0.09l0.055,0.044l0.056,0.044l0.057,0.043l0.057,0.042l0.116,0.082l0.058,0.04l0.059,0.04l0.06,0.039l0.06,0.038l0.122,0.074l0.061,0.036l0.062,0.035l0.126,0.068l0.063,0.033l0.064,0.032l0.064,0.031l0.065,0.031l0.065,0.03l0.065,0.029l0.066,0.029l0.066,0.027l0.067,0.027l0.067,0.026l0.068,0.025l0.136,0.048l0.068,0.023l0.069,0.022l0.07,0.021l0.069,0.02l0.07,0.02l0.142,0.036l0.071,0.017l0.071,0.016l0.072,0.015l0.144,0.028l0.146,0.024l0.073,0.011l0.148,0.018l0.074,0.008l0.075,0.008l0.074,0.006l0.075,0.005l0.076,0.004l0.075,0.004l0.076,0.002l0.153,0.002l0.076,-0.001l0.077,-0.001l0.076,-0.002l0.075,-0.004l0.076,-0.004l0.075,-0.005l0.074,-0.006l0.075,-0.008l0.074,-0.008l0.148,-0.018l0.073,-0.011l0.146,-0.024l0.144,-0.028l0.072,-0.015l0.071,-0.016l0.071,-0.017l0.142,-0.036l0.07,-0.02l0.069,-0.02l0.07,-0.021l0.069,-0.022l0.068,-0.023l0.136,-0.048l0.068,-0.025l0.067,-0.026l0.067,-0.027l0.066,-0.027l0.066,-0.029l0.065,-0.029l0.065,-0.03l0.065,-0.031l0.064,-0.031l0.064,-0.032l0.063,-0.033l0.126,-0.068l0.062,-0.035l0.061,-0.036l0.122,-0.074l0.06,-0.038l0.06,-0.039l0.059,-0.04l0.058,-0.04l0.116,-0.082l0.057,-0.042l0.057,-0.043l0.056,-0.044l0.055,-0.044l0.11,-0.09l0.054,-0.046l0.106,-0.094l0.052,-0.048l0.051,-0.049l0.052,-0.049l0.1,-0.1l0.049,-0.052l0.049,-0.051l0.048,-0.052l0.094,-0.106l0.046,-0.054l0.09,-0.11l0.044,-0.055l0.044,-0.056l0.043,-0.057l0.042,-0.057l0.082,-0.116l0.04,-0.058l0.04,-0.059l0.039,-0.06l0.038,-0.06l0.074,-0.122l0.036,-0.061l0.035,-0.062l0.068,-0.126l0.033,-0.063l0.032,-0.064l0.031,-0.064l0.031,-0.065l0.03,-0.065l0.029,-0.065l0.029,-0.066l0.027,-0.066l0.027,-0.067l0.026,-0.067l0.025,-0.068l0.048,-0.136l0.023,-0.068l0.022,-0.069l0.021,-0.07l0.02,-0.069l0.02,-0.07l0.036,-0.142l0.017,-0.071l0.016,-0.071l0.015,-0.072l0.028,-0.144l0.024,-0.146l0.011,-0.073l0.018,-0.148l0.008,-0.074l0.008,-0.075l0.006,-0.074l0.005,-0.075l0.004,-0.076l0.004,-0.075l0.002,-0.076l0.001,-0.077l0.001,-0.076l-0.001,-0.076l-0.001,-0.077l-0.002,-0.076l-0.004,-0.075l-0.004,-0.076l-0.005,-0.075l-0.006,-0.074l-0.008,-0.075l-0.008,-0.074l-0.018,-0.148l-0.011,-0.073l-0.024,-0.146l-0.028,-0.144l-0.015,-0.072l-0.016,-0.071l-0.017,-0.071l-0.036,-0.142l-0.02,-0.07l-0.02,-0.069l-0.021,-0.07l-0.022,-0.069l-0.023,-0.068l-0.048,-0.136l-0.025,-0.068l-0.026,-0.067l-0.027,-0.067l-0.027,-0.066l-0.029,-0.066l-0.029,-0.065l-0.03,-0.065l-0.031,-0.065l-0.031,-0.064l-0.032,-0.064l-0.033,-0.063l-0.068,-0.126l-0.035,-0.062l-0.036,-0.061l-0.074,-0.122l-0.038,-0.06l-0.039,-0.06l-0.04,-0.059l-0.04,-0.058l-0.082,-0.116l-0.042,-0.057l-0.043,-0.057l-0.044,-0.056l-0.044,-0.055l-0.09,-0.11l-0.046,-0.054l-0.094,-0.106l-0.048,-0.052l-0.049,-0.051l-0.049,-0.052l-0.1,-0.1l-0.051,-0.049l-0.052,-0.049l-0.052,-0.048l-0.106,-0.094l-0.054,-0.046l-0.11,-0.09l-0.055,-0.044l-0.056,-0.044l-0.057,-0.043l-0.057,-0.042l-0.116,-0.082l-0.058,-0.04l-0.059,-0.04l-0.06,-0.039l-0.06,-0.038l-0.122,-0.074l-0.061,-0.036l-0.062,-0.035l-0.126,-0.068l-0.063,-0.033l-0.064,-0.032l-0.064,-0.031l-0.065,-0.031l-0.065,-0.03l-0.065,-0.029l-0.066,-0.029l-0.066,-0.027l-0.067,-0.027l-0.067,-0.026l-0.068,-0.025l-0.136,-0.048l-0.068,-0.023l-0.069,-0.022l-0.07,-0.021l-0.069,-0.02l-0.07,-0.02l-0.142,-0.036l-0.071,-0.017l-0.071,-0.016l-0.072,-0.015l-0.144,-0.028l-0.146,-0.024l-0.073,-0.011l-0.148,-0.018l0,0Zm3.322,2.861l0,6l-8,0l0,-6l8,0Z" style="fill:#999;fill-opacity:0.45;"/></svg>