<?xml version="1.0" encoding="UTF-8" standalone="no"?><!DOCTYPE svg PUBLIC "-//W3C//DTD SVG 1.1//EN" "http://www.w3.org/Graphics/SVG/1.1/DTD/svg11.dtd"><svg width="100%" height="100%" viewBox="0 0 18 18" version="1.1" xmlns="http://www.w3.org/2000/svg" xmlns:xlink="http://www.w3.org/1999/xlink" xml:space="preserve" style="fill-rule:evenodd;clip-rule:evenodd;stroke-linejoin:round;stroke-miterlimit:1.41421;"><rect x="0" y="0" width="18" height="18" style="fill:none;"/><g><path d="M8.819,3.102c0.623,-0.009 -0.35,-0.001 0.274,-0.001c0.383,0.006 0.76,0.067 1.121,0.198c0.918,0.332 1.656,1.071 1.989,1.989c0.126,0.346 0.19,0.708 0.199,1.075c0.005,0.545 0.005,1.091 0.004,1.637l1.594,0l0,7l-10,0l0,-7l1.579,0c-0.001,-0.566 0.008,-1.131 0.023,-1.696c0.015,-0.347 0.078,-0.689 0.197,-1.016c0.322,-0.887 1.023,-1.608 1.9,-1.955c0.359,-0.142 0.735,-0.214 1.12,-0.231l0.096,-0.001l-0.096,0.001l0,0Zm0.324,1.4c-0.627,-0.009 0.343,-0.009 -0.284,0c-0.221,0.01 -0.438,0.051 -0.645,0.133c-0.518,0.205 -0.929,0.635 -1.11,1.162c-0.066,0.191 -0.099,0.389 -0.104,0.59c-0.005,0.538 -0.004,1.076 -0.003,1.613l4.007,0c0.009,-0.561 0.02,-1.121 -0.004,-1.681c-0.012,-0.2 -0.052,-0.396 -0.124,-0.584c-0.191,-0.499 -0.591,-0.904 -1.088,-1.1c-0.206,-0.082 -0.423,-0.123 -0.645,-0.133c-0.627,-0.009 0.343,-0.009 -0.284,0l0.284,0Z" style="fill:#f15f22;"/><path d="M9.051,2.098l0.063,0.003l0.085,0.002l0.09,0.004l0.09,0.006l0.09,0.007l0.091,0.009l0.091,0.011l0.09,0.013l0.091,0.015l0.091,0.016l0.091,0.019l0.09,0.021l0.091,0.023l0.09,0.024l0.091,0.027l0.09,0.03l0.09,0.031l0.11,0.042l0.111,0.045l0.109,0.049l0.107,0.051l0.105,0.054l0.104,0.057l0.102,0.059l0.101,0.063l0.098,0.064l0.096,0.068l0.095,0.07l0.092,0.072l0.091,0.075l0.088,0.077l0.086,0.08l0.084,0.082l0.082,0.084l0.079,0.086l0.078,0.088l0.074,0.091l0.073,0.092l0.07,0.095l0.067,0.096l0.065,0.098l0.062,0.1l0.06,0.102l0.057,0.104l0.054,0.106l0.051,0.107l0.048,0.109l0.046,0.11l0.041,0.11l0.031,0.086l0.028,0.086l0.026,0.086l0.024,0.087l0.023,0.086l0.02,0.087l0.019,0.087l0.017,0.088l0.015,0.087l0.013,0.088l0.012,0.087l0.01,0.088l0.008,0.088l0.006,0.087l0.005,0.088l0.003,0.092l0.003,0.424l0.001,0.233l0.594,0l0.068,0.002l0.068,0.007l0.067,0.012l0.067,0.016l0.065,0.021l0.063,0.025l0.062,0.029l0.06,0.034l0.057,0.037l0.054,0.041l0.052,0.045l0.048,0.048l0.045,0.052l0.041,0.054l0.037,0.057l0.034,0.06l0.029,0.062l0.025,0.063l0.021,0.065l0.016,0.067l0.012,0.067l0.007,0.068l0.002,0.068l0,7l-0.002,0.068l-0.007,0.068l-0.012,0.067l-0.016,0.067l-0.021,0.065l-0.025,0.063l-0.029,0.062l-0.034,0.06l-0.037,0.057l-0.041,0.054l-0.045,0.052l-0.048,0.048l-0.052,0.045l-0.054,0.041l-0.057,0.037l-0.06,0.034l-0.062,0.029l-0.063,0.025l-0.065,0.021l-0.067,0.016l-0.067,0.012l-0.068,0.007l-0.068,0.002l-10,0l-0.068,-0.002l-0.068,-0.007l-0.067,-0.012l-0.067,-0.016l-0.065,-0.021l-0.063,-0.025l-0.062,-0.029l-0.06,-0.034l-0.057,-0.037l-0.054,-0.041l-0.052,-0.045l-0.048,-0.048l-0.045,-0.052l-0.041,-0.054l-0.037,-0.057l-0.034,-0.06l-0.029,-0.062l-0.025,-0.063l-0.021,-0.065l-0.016,-0.067l-0.012,-0.067l-0.007,-0.068l-0.002,-0.068l0,-7l0.002,-0.068l0.007,-0.068l0.012,-0.067l0.016,-0.067l0.021,-0.065l0.025,-0.063l0.029,-0.062l0.034,-0.06l0.037,-0.057l0.041,-0.054l0.045,-0.052l0.048,-0.048l0.052,-0.045l0.054,-0.041l0.057,-0.037l0.06,-0.034l0.062,-0.029l0.063,-0.025l0.065,-0.021l0.067,-0.016l0.067,-0.012l0.068,-0.007l0.068,-0.002l0.587,0l0.005,-0.293l0.011,-0.441l0.004,-0.088l0.006,-0.082l0.007,-0.083l0.009,-0.082l0.01,-0.083l0.012,-0.083l0.013,-0.082l0.015,-0.083l0.017,-0.082l0.018,-0.082l0.02,-0.082l0.022,-0.082l0.023,-0.082l0.025,-0.082l0.027,-0.081l0.029,-0.082l0.04,-0.106l0.044,-0.107l0.046,-0.105l0.049,-0.104l0.052,-0.102l0.055,-0.101l0.057,-0.099l0.059,-0.097l0.062,-0.096l0.065,-0.094l0.067,-0.092l0.069,-0.09l0.071,-0.088l0.074,-0.086l0.076,-0.085l0.078,-0.082l0.08,-0.08l0.082,-0.079l0.084,-0.076l0.086,-0.073l0.088,-0.072l0.09,-0.07l0.092,-0.067l0.094,-0.064l0.096,-0.063l0.097,-0.059l0.099,-0.058l0.101,-0.055l0.102,-0.052l0.104,-0.049l0.105,-0.047l0.106,-0.044l0.09,-0.034l0.089,-0.032l0.09,-0.029l0.09,-0.028l0.09,-0.025l0.091,-0.024l0.09,-0.021l0.091,-0.02l0.09,-0.017l0.091,-0.015l0.091,-0.014l0.09,-0.012l0.091,-0.01l0.09,-0.008l0.091,-0.006l0.102,-0.006l0.019,0l0.011,0l0.014,-0.001l0.037,-0.002l0.077,-0.001l0.074,0l0.032,0Zm-0.095,1l-0.06,0.001l-0.021,0.001l0.039,0l-0.095,0.002l-0.072,0.004l-0.072,0.005l-0.072,0.006l-0.071,0.008l-0.071,0.01l-0.071,0.01l-0.07,0.012l-0.071,0.014l-0.07,0.015l-0.069,0.016l-0.07,0.018l-0.069,0.019l-0.068,0.021l-0.069,0.023l-0.067,0.024l-0.068,0.026l-0.082,0.034l-0.08,0.035l-0.08,0.038l-0.078,0.04l-0.077,0.042l-0.076,0.044l-0.075,0.046l-0.074,0.048l-0.072,0.05l-0.07,0.052l-0.07,0.053l-0.068,0.055l-0.066,0.057l-0.065,0.059l-0.063,0.06l-0.062,0.062l-0.06,0.064l-0.059,0.065l-0.057,0.066l-0.055,0.068l-0.053,0.07l-0.051,0.07l-0.05,0.073l-0.048,0.073l-0.045,0.075l-0.044,0.076l-0.042,0.077l-0.04,0.079l-0.038,0.079l-0.035,0.081l-0.034,0.081l-0.031,0.083l-0.022,0.061l-0.02,0.062l-0.019,0.062l-0.018,0.063l-0.016,0.063l-0.016,0.063l-0.014,0.063l-0.012,0.064l-0.012,0.063l-0.01,0.064l-0.01,0.064l-0.008,0.065l-0.006,0.064l-0.006,0.065l-0.005,0.065l-0.003,0.065l-0.01,0.424l-0.007,0.424l-0.003,0.212l-0.002,0.212l-0.001,0.212l0,0.212l-1.579,0l0,7l10,0l0,-7l-1.594,0l0.001,-0.409l-0.001,-0.41l-0.001,-0.409l-0.003,-0.409l-0.002,-0.069l-0.004,-0.068l-0.005,-0.069l-0.006,-0.068l-0.008,-0.068l-0.009,-0.068l-0.01,-0.068l-0.012,-0.067l-0.013,-0.068l-0.014,-0.067l-0.016,-0.066l-0.017,-0.067l-0.019,-0.066l-0.02,-0.066l-0.021,-0.065l-0.023,-0.065l-0.032,-0.086l-0.035,-0.084l-0.037,-0.083l-0.039,-0.082l-0.042,-0.081l-0.044,-0.08l-0.045,-0.078l-0.048,-0.077l-0.05,-0.076l-0.052,-0.074l-0.054,-0.073l-0.056,-0.071l-0.057,-0.07l-0.06,-0.068l-0.061,-0.066l-0.063,-0.065l-0.065,-0.063l-0.066,-0.062l-0.068,-0.059l-0.07,-0.058l-0.071,-0.056l-0.073,-0.053l-0.074,-0.052l-0.076,-0.05l-0.077,-0.048l-0.078,-0.046l-0.08,-0.043l-0.081,-0.042l-0.082,-0.039l-0.083,-0.037l-0.084,-0.035l-0.086,-0.032l-0.068,-0.024l-0.068,-0.022l-0.069,-0.02l-0.069,-0.019l-0.069,-0.018l-0.069,-0.016l-0.07,-0.014l-0.07,-0.013l-0.071,-0.011l-0.07,-0.01l-0.071,-0.009l-0.071,-0.007l-0.071,-0.006l-0.072,-0.004l-0.071,-0.003l-0.072,-0.002l-0.165,0l-0.014,-0.001l0.07,-0.001l0.053,-0.001l-0.022,0l-0.059,0Zm0.229,1.406l0.041,0.003l0.041,0.004l0.041,0.004l0.041,0.006l0.041,0.006l0.041,0.007l0.041,0.007l0.04,0.009l0.04,0.01l0.04,0.01l0.04,0.011l0.039,0.012l0.039,0.013l0.039,0.014l0.039,0.015l0.046,0.019l0.046,0.02l0.045,0.022l0.045,0.022l0.043,0.024l0.044,0.025l0.042,0.025l0.042,0.027l0.041,0.028l0.04,0.029l0.04,0.031l0.038,0.031l0.038,0.032l0.037,0.033l0.036,0.034l0.036,0.034l0.034,0.036l0.034,0.037l0.032,0.037l0.032,0.038l0.03,0.039l0.03,0.04l0.029,0.041l0.027,0.041l0.027,0.042l0.025,0.043l0.025,0.043l0.023,0.045l0.022,0.044l0.021,0.046l0.019,0.045l0.019,0.047l0.013,0.035l0.013,0.036l0.011,0.036l0.011,0.035l0.02,0.073l0.017,0.072l0.013,0.074l0.012,0.074l0.008,0.074l0.006,0.075l0.004,0.105l0.003,0.105l0.005,0.21l0.002,0.21l0,0.21l-0.001,0.21l-0.002,0.21l-0.007,0.421l-4.007,0l-0.001,-0.403l0,-0.403l0.001,-0.404l0.003,-0.403l0.003,-0.075l0.006,-0.075l0.009,-0.075l0.011,-0.074l0.014,-0.073l0.009,-0.037l0.009,-0.037l0.009,-0.036l0.011,-0.036l0.011,-0.036l0.012,-0.036l0.018,-0.049l0.019,-0.049l0.02,-0.048l0.021,-0.047l0.023,-0.046l0.024,-0.046l0.026,-0.046l0.026,-0.044l0.028,-0.044l0.028,-0.043l0.03,-0.042l0.031,-0.041l0.032,-0.041l0.033,-0.039l0.034,-0.039l0.036,-0.038l0.036,-0.037l0.037,-0.035l0.038,-0.035l0.039,-0.034l0.04,-0.033l0.04,-0.032l0.042,-0.03l0.042,-0.03l0.044,-0.029l0.044,-0.027l0.044,-0.026l0.046,-0.025l0.046,-0.024l0.047,-0.022l0.048,-0.021l0.048,-0.02l0.039,-0.015l0.039,-0.014l0.039,-0.013l0.04,-0.012l0.04,-0.011l0.04,-0.01l0.04,-0.01l0.04,-0.009l0.041,-0.007l0.04,-0.007l0.041,-0.006l0.041,-0.006l0.041,-0.004l0.041,-0.004l0.042,-0.003l0.041,-0.002l0.284,0l0.042,0.002Zm-0.299,0.998l-0.005,0l-0.023,0.002l-0.023,0.002l-0.022,0.002l-0.022,0.003l-0.021,0.003l-0.021,0.004l-0.02,0.004l-0.02,0.004l-0.019,0.005l-0.019,0.004l-0.018,0.006l-0.018,0.005l-0.018,0.006l-0.018,0.006l-0.016,0.006l-0.024,0.01l-0.022,0.01l-0.022,0.011l-0.022,0.011l-0.021,0.012l-0.022,0.012l-0.021,0.013l-0.021,0.014l-0.02,0.014l-0.02,0.015l-0.02,0.015l-0.019,0.016l-0.019,0.017l-0.019,0.017l-0.018,0.017l-0.017,0.018l-0.017,0.019l-0.017,0.018l-0.016,0.02l-0.016,0.019l-0.015,0.02l-0.014,0.021l-0.014,0.02l-0.013,0.021l-0.013,0.022l-0.012,0.021l-0.012,0.022l-0.01,0.022l-0.01,0.023l-0.01,0.022l-0.009,0.023l-0.009,0.025l-0.005,0.016l-0.005,0.016l-0.005,0.017l-0.005,0.017l-0.004,0.017l-0.003,0.013l-0.007,0.04l-0.006,0.036l-0.004,0.038l-0.003,0.038l-0.002,0.04l-0.003,0.383l0,0.205l2.017,0l0,-0.045l-0.002,-0.2l-0.004,-0.199l-0.003,-0.097l-0.003,-0.082l-0.003,-0.037l-0.005,-0.038l-0.005,-0.038l-0.007,-0.036l-0.008,-0.035l-0.011,-0.039l-0.004,-0.012l-0.005,-0.016l-0.006,-0.017l-0.005,-0.015l-0.01,-0.023l-0.009,-0.022l-0.01,-0.021l-0.01,-0.021l-0.011,-0.021l-0.012,-0.021l-0.012,-0.02l-0.013,-0.021l-0.013,-0.02l-0.014,-0.019l-0.014,-0.02l-0.015,-0.018l-0.015,-0.019l-0.016,-0.018l-0.017,-0.018l-0.016,-0.017l-0.018,-0.017l-0.017,-0.017l-0.018,-0.016l-0.019,-0.016l-0.018,-0.015l-0.019,-0.014l-0.02,-0.014l-0.02,-0.014l-0.02,-0.012l-0.02,-0.013l-0.02,-0.012l-0.021,-0.011l-0.021,-0.01l-0.021,-0.01l-0.021,-0.01l-0.024,-0.01l-0.018,-0.006l-0.017,-0.006l-0.017,-0.006l-0.018,-0.006l-0.018,-0.005l-0.019,-0.005l-0.019,-0.004l-0.019,-0.004l-0.021,-0.004l-0.02,-0.004l-0.021,-0.003l-0.022,-0.003l-0.022,-0.002l-0.023,-0.002l-0.023,-0.002l-0.006,0l-0.23,0Z" style="fill-opacity:0.501961;"/></g><path d="M8.819,3.102c0.623,-0.009 -0.35,-0.001 0.274,-0.001c0.383,0.006 0.76,0.067 1.121,0.198c0.918,0.332 1.656,1.071 1.989,1.989c0.126,0.346 0.19,0.708 0.199,1.075c0.005,0.545 0.005,1.091 0.004,1.637l1.594,0l0,7l-10,0l0,-7l1.579,0c-0.001,-0.566 0.008,-1.131 0.023,-1.696c0.015,-0.347 0.078,-0.689 0.197,-1.016c0.322,-0.887 1.023,-1.608 1.9,-1.955c0.359,-0.142 0.735,-0.214 1.12,-0.231l0.096,-0.001l-0.096,0.001l0,0Zm0.324,1.4c-0.627,-0.009 0.343,-0.009 -0.284,0c-0.221,0.01 -0.438,0.051 -0.645,0.133c-0.518,0.205 -0.929,0.635 -1.11,1.162c-0.066,0.191 -0.099,0.389 -0.104,0.59c-0.005,0.538 -0.004,1.076 -0.003,1.613l4.007,0c0.009,-0.561 0.02,-1.121 -0.004,-1.681c-0.012,-0.2 -0.052,-0.396 -0.124,-0.584c-0.191,-0.499 -0.591,-0.904 -1.088,-1.1c-0.206,-0.082 -0.423,-0.123 -0.645,-0.133c-0.627,-0.009 0.343,-0.009 -0.284,0l0.284,0Z" style="fill:#f15f22;"/></svg>