<?xml version="1.0" encoding="UTF-8" standalone="no"?><!DOCTYPE svg PUBLIC "-//W3C//DTD SVG 1.1//EN" "http://www.w3.org/Graphics/SVG/1.1/DTD/svg11.dtd"><svg width="100%" height="100%" viewBox="0 0 17 17" version="1.1" xmlns="http://www.w3.org/2000/svg" xmlns:xlink="http://www.w3.org/1999/xlink" xml:space="preserve" style="fill-rule:evenodd;clip-rule:evenodd;stroke-linejoin:round;stroke-miterlimit:1.41421;"><rect x="0" y="0" width="17" height="17" style="fill:none;"/><path d="M8.301,2.005c0.685,-0.01 -0.385,-0.001 0.301,-0.001c0.422,0.006 0.836,0.073 1.233,0.216c1.01,0.362 1.822,1.17 2.188,2.172c0.139,0.378 0.209,0.774 0.219,1.174c0.006,0.596 0.006,1.192 0.005,1.788l1.753,0l0,7.646l-11,0l0,-7.646l1.737,0c-0.001,-0.618 0.009,-1.235 0.025,-1.852c0.017,-0.379 0.086,-0.753 0.217,-1.11c0.354,-0.969 1.125,-1.756 2.09,-2.135c0.395,-0.155 0.808,-0.234 1.232,-0.252l0.105,-0.001l-0.105,0.001l0,0Zm0.356,1.529c-0.689,-0.01 0.378,-0.01 -0.312,0c-0.243,0.011 -0.482,0.055 -0.71,0.145c-0.569,0.224 -1.022,0.694 -1.221,1.269c-0.072,0.209 -0.109,0.425 -0.114,0.645c-0.006,0.587 -0.004,1.175 -0.003,1.761l4.407,0c0.01,-0.612 0.022,-1.224 -0.004,-1.836c-0.013,-0.218 -0.057,-0.432 -0.136,-0.637c-0.211,-0.546 -0.651,-0.988 -1.197,-1.202c-0.227,-0.09 -0.466,-0.134 -0.71,-0.145c-0.689,-0.01 0.378,-0.01 -0.312,0l0.312,0Z"/></svg>