<?xml version="1.0" encoding="UTF-8" standalone="no"?><!DOCTYPE svg PUBLIC "-//W3C//DTD SVG 1.1//EN" "http://www.w3.org/Graphics/SVG/1.1/DTD/svg11.dtd"><svg width="100%" height="100%" viewBox="0 0 20 20" version="1.1" xmlns="http://www.w3.org/2000/svg" xmlns:xlink="http://www.w3.org/1999/xlink" xml:space="preserve" style="fill-rule:evenodd;clip-rule:evenodd;stroke-linejoin:round;stroke-miterlimit:1.41421;"><path d="M9.693,7.016l0.038,-0.004l0.039,-0.004l0.037,-0.002l0.038,-0.002l0.039,-0.002l0.039,-0.001l0.039,0l0.038,-0.001l0.077,0.001l0.038,0.001l0.039,0.002l0.039,0.002l0.037,0.002l0.077,0.008l0.075,0.008l0.075,0.01l0.073,0.012l0.038,0.007l0.037,0.008l0.035,0.007l0.037,0.008l0.072,0.018l0.036,0.01l0.035,0.01l0.037,0.01l0.035,0.011l0.035,0.011l0.034,0.011l0.036,0.012l0.069,0.026l0.034,0.014l0.068,0.026l0.033,0.015l0.033,0.015l0.034,0.015l0.033,0.016l0.032,0.016l0.033,0.017l0.031,0.016l0.065,0.034l0.03,0.018l0.064,0.037l0.029,0.02l0.031,0.019l0.031,0.02l0.03,0.019l0.059,0.042l0.029,0.021l0.03,0.021l0.028,0.022l0.029,0.023l0.027,0.021l0.029,0.024l0.028,0.023l0.054,0.046l0.027,0.024l0.079,0.075l0.051,0.051l0.074,0.078l0.024,0.027l0.046,0.054l0.024,0.028l0.023,0.028l0.022,0.028l0.022,0.029l0.022,0.028l0.022,0.029l0.021,0.03l0.041,0.059l0.019,0.03l0.021,0.031l0.018,0.03l0.02,0.031l0.037,0.063l0.017,0.03l0.035,0.065l0.017,0.031l0.016,0.033l0.016,0.033l0.016,0.033l0.014,0.033l0.016,0.033l0.015,0.033l0.027,0.069l0.013,0.033l0.026,0.069l0.012,0.036l0.011,0.034l0.011,0.035l0.011,0.036l0.01,0.036l0.01,0.035l0.01,0.036l0.018,0.072l0.008,0.037l0.007,0.036l0.008,0.036l0.007,0.038l0.012,0.073l0.01,0.075l0.008,0.075l0.008,0.077l0.002,0.037l0.002,0.039l0.003,0.077l0.001,0.077l-0.001,0.038l0,0.039l-0.001,0.039l-0.002,0.039l-0.002,0.038l-0.002,0.037l-0.004,0.039l-0.004,0.038l-0.008,0.075l-0.005,0.037l-0.005,0.038l-0.006,0.037l-0.006,0.036l-0.007,0.038l-0.008,0.037l-0.007,0.036l-0.008,0.036l-0.009,0.036l-0.009,0.036l-0.01,0.036l-0.01,0.036l-0.01,0.036l-0.011,0.035l-0.011,0.035l-0.011,0.035l-0.012,0.035l-0.013,0.034l-0.013,0.035l-0.013,0.034l-0.027,0.068l-0.015,0.033l-0.015,0.034l-0.015,0.033l-0.016,0.033l-0.016,0.032l-0.016,0.033l-0.017,0.031l-0.017,0.033l-0.017,0.032l-0.018,0.031l-0.037,0.063l-0.02,0.03l-0.018,0.03l-0.021,0.031l-0.019,0.03l-0.041,0.059l-0.021,0.03l-0.022,0.029l-0.022,0.028l-0.022,0.029l-0.022,0.028l-0.023,0.028l-0.024,0.028l-0.023,0.027l-0.023,0.027l-0.024,0.027l-0.025,0.026l-0.025,0.026l-0.024,0.027l-0.026,0.025l-0.025,0.026l-0.027,0.024l-0.026,0.025l-0.026,0.025l-0.027,0.024l-0.027,0.023l-0.027,0.023l-0.028,0.024l-0.028,0.023l-0.028,0.022l-0.029,0.022l-0.028,0.022l-0.029,0.022l-0.03,0.021l-0.059,0.041l-0.03,0.019l-0.031,0.021l-0.03,0.018l-0.03,0.02l-0.064,0.037l-0.03,0.018l-0.033,0.017l-0.032,0.017l-0.031,0.017l-0.033,0.016l-0.032,0.016l-0.034,0.016l-0.033,0.015l-0.033,0.015l-0.033,0.015l-0.069,0.027l-0.033,0.013l-0.035,0.013l-0.034,0.013l-0.036,0.012l-0.034,0.011l-0.035,0.011l-0.036,0.011l-0.036,0.01l-0.035,0.01l-0.036,0.01l-0.036,0.009l-0.036,0.009l-0.037,0.008l-0.036,0.007l-0.036,0.008l-0.038,0.007l-0.037,0.006l-0.036,0.006l-0.038,0.005l-0.037,0.005l-0.075,0.008l-0.039,0.004l-0.038,0.004l-0.037,0.002l-0.039,0.002l-0.039,0.002l-0.038,0.001l-0.039,0l-0.038,0.001l-0.038,-0.001l-0.039,0l-0.039,-0.001l-0.039,-0.002l-0.038,-0.002l-0.037,-0.002l-0.039,-0.004l-0.038,-0.004l-0.075,-0.008l-0.037,-0.005l-0.038,-0.005l-0.037,-0.006l-0.036,-0.006l-0.038,-0.007l-0.037,-0.008l-0.036,-0.007l-0.036,-0.008l-0.036,-0.009l-0.036,-0.009l-0.036,-0.01l-0.036,-0.01l-0.036,-0.01l-0.035,-0.011l-0.035,-0.011l-0.035,-0.011l-0.035,-0.012l-0.034,-0.013l-0.035,-0.013l-0.034,-0.013l-0.068,-0.027l-0.033,-0.015l-0.034,-0.015l-0.033,-0.015l-0.033,-0.016l-0.032,-0.016l-0.033,-0.016l-0.031,-0.017l-0.033,-0.017l-0.032,-0.017l-0.031,-0.018l-0.063,-0.037l-0.03,-0.02l-0.03,-0.018l-0.031,-0.021l-0.03,-0.019l-0.059,-0.041l-0.03,-0.021l-0.029,-0.022l-0.028,-0.022l-0.029,-0.022l-0.028,-0.022l-0.028,-0.023l-0.028,-0.024l-0.027,-0.023l-0.027,-0.023l-0.027,-0.024l-0.026,-0.025l-0.026,-0.025l-0.027,-0.024l-0.025,-0.026l-0.026,-0.025l-0.024,-0.027l-0.025,-0.026l-0.025,-0.026l-0.024,-0.027l-0.023,-0.027l-0.023,-0.027l-0.024,-0.028l-0.023,-0.028l-0.022,-0.028l-0.022,-0.029l-0.022,-0.028l-0.022,-0.029l-0.021,-0.03l-0.041,-0.059l-0.019,-0.03l-0.021,-0.031l-0.018,-0.03l-0.02,-0.03l-0.037,-0.063l-0.018,-0.031l-0.017,-0.032l-0.017,-0.033l-0.017,-0.031l-0.016,-0.033l-0.016,-0.032l-0.016,-0.033l-0.015,-0.033l-0.015,-0.034l-0.015,-0.033l-0.027,-0.068l-0.013,-0.034l-0.013,-0.035l-0.013,-0.034l-0.012,-0.035l-0.011,-0.035l-0.011,-0.035l-0.011,-0.035l-0.01,-0.036l-0.01,-0.036l-0.01,-0.036l-0.009,-0.036l-0.009,-0.036l-0.008,-0.036l-0.007,-0.036l-0.008,-0.037l-0.007,-0.038l-0.006,-0.036l-0.006,-0.037l-0.005,-0.038l-0.005,-0.037l-0.008,-0.075l-0.004,-0.038l-0.004,-0.039l-0.002,-0.037l-0.002,-0.038l-0.002,-0.039l-0.001,-0.039l0,-0.039l-0.001,-0.038l0.001,-0.038l0,-0.039l0.001,-0.038l0.002,-0.039l0.002,-0.039l0.002,-0.037l0.004,-0.038l0.004,-0.039l0.008,-0.075l0.005,-0.037l0.005,-0.038l0.006,-0.036l0.006,-0.037l0.007,-0.038l0.008,-0.036l0.007,-0.036l0.008,-0.037l0.009,-0.036l0.009,-0.036l0.01,-0.036l0.01,-0.035l0.01,-0.036l0.011,-0.036l0.011,-0.035l0.011,-0.034l0.012,-0.036l0.013,-0.034l0.013,-0.035l0.013,-0.033l0.027,-0.069l0.015,-0.033l0.015,-0.033l0.015,-0.033l0.016,-0.033l0.016,-0.033l0.016,-0.033l0.017,-0.031l0.017,-0.032l0.017,-0.033l0.018,-0.03l0.037,-0.063l0.02,-0.03l0.018,-0.031l0.021,-0.031l0.019,-0.03l0.041,-0.059l0.021,-0.029l0.022,-0.03l0.022,-0.028l0.022,-0.029l0.022,-0.027l0.023,-0.029l0.024,-0.028l0.023,-0.027l0.023,-0.027l0.024,-0.027l0.025,-0.026l0.025,-0.026l0.024,-0.027l0.026,-0.025l0.025,-0.025l0.027,-0.025l0.026,-0.025l0.026,-0.025l0.027,-0.024l0.027,-0.023l0.027,-0.023l0.028,-0.023l0.028,-0.024l0.028,-0.021l0.029,-0.023l0.028,-0.022l0.029,-0.021l0.03,-0.021l0.059,-0.042l0.03,-0.019l0.031,-0.02l0.03,-0.019l0.03,-0.02l0.063,-0.037l0.031,-0.018l0.032,-0.017l0.033,-0.017l0.031,-0.016l0.033,-0.017l0.032,-0.016l0.033,-0.015l0.033,-0.015l0.034,-0.015l0.033,-0.015l0.068,-0.027l0.034,-0.014l0.035,-0.013l0.034,-0.012l0.035,-0.013l0.035,-0.011l0.035,-0.011l0.035,-0.01l0.036,-0.011l0.036,-0.01l0.036,-0.01l0.036,-0.008l0.036,-0.009l0.036,-0.009l0.036,-0.007l0.037,-0.008l0.038,-0.006l0.036,-0.006l0.037,-0.006l0.038,-0.006l0.037,-0.005l0.075,-0.008l0,0Z" style="fill:#999;"/></svg>