<?xml version="1.0" encoding="UTF-8" standalone="no"?><!DOCTYPE svg PUBLIC "-//W3C//DTD SVG 1.1//EN" "http://www.w3.org/Graphics/SVG/1.1/DTD/svg11.dtd"><svg width="100%" height="100%" viewBox="0 0 20 20" version="1.1" xmlns="http://www.w3.org/2000/svg" xmlns:xlink="http://www.w3.org/1999/xlink" xml:space="preserve" style="fill-rule:evenodd;clip-rule:evenodd;stroke-linejoin:round;stroke-miterlimit:1.41421;"><path d="M9.489,5.026l0.063,-0.006l0.064,-0.006l0.063,-0.004l0.064,-0.004l0.064,-0.002l0.064,-0.003l0.065,0l0.064,-0.001l0.129,0.001l0.064,0.003l0.064,0.002l0.064,0.004l0.063,0.004l0.064,0.006l0.063,0.006l0.125,0.014l0.063,0.009l0.062,0.009l0.062,0.01l0.061,0.01l0.062,0.011l0.061,0.012l0.061,0.013l0.061,0.014l0.06,0.014l0.12,0.032l0.059,0.016l0.059,0.017l0.059,0.018l0.059,0.019l0.058,0.019l0.058,0.02l0.058,0.021l0.057,0.021l0.057,0.022l0.113,0.046l0.055,0.024l0.056,0.025l0.055,0.025l0.055,0.027l0.054,0.026l0.055,0.027l0.053,0.028l0.053,0.029l0.054,0.029l0.052,0.03l0.104,0.061l0.102,0.064l0.051,0.033l0.05,0.033l0.099,0.069l0.048,0.035l0.049,0.036l0.048,0.036l0.094,0.074l0.047,0.038l0.046,0.039l0.09,0.078l0.045,0.04l0.088,0.082l0.086,0.084l0.084,0.086l0.082,0.088l0.04,0.045l0.078,0.09l0.039,0.046l0.038,0.047l0.074,0.094l0.036,0.048l0.036,0.049l0.035,0.048l0.069,0.099l0.033,0.05l0.033,0.051l0.064,0.102l0.061,0.104l0.03,0.052l0.029,0.054l0.029,0.053l0.028,0.053l0.027,0.055l0.026,0.054l0.027,0.055l0.025,0.055l0.025,0.056l0.024,0.055l0.046,0.113l0.022,0.057l0.021,0.057l0.021,0.058l0.02,0.058l0.019,0.058l0.019,0.059l0.018,0.059l0.017,0.059l0.016,0.059l0.032,0.12l0.014,0.06l0.014,0.061l0.013,0.061l0.012,0.061l0.011,0.062l0.01,0.061l0.01,0.062l0.009,0.062l0.009,0.063l0.014,0.125l0.006,0.063l0.006,0.064l0.004,0.063l0.004,0.064l0.002,0.064l0.003,0.064l0.001,0.129l-0.001,0.064l0,0.065l-0.003,0.064l-0.002,0.064l-0.004,0.064l-0.004,0.063l-0.006,0.064l-0.006,0.063l-0.014,0.125l-0.009,0.063l-0.009,0.062l-0.01,0.062l-0.01,0.061l-0.011,0.062l-0.012,0.061l-0.013,0.061l-0.014,0.061l-0.014,0.06l-0.016,0.06l-0.016,0.06l-0.016,0.059l-0.017,0.059l-0.018,0.059l-0.019,0.059l-0.019,0.058l-0.02,0.058l-0.021,0.058l-0.021,0.057l-0.022,0.057l-0.046,0.113l-0.024,0.055l-0.025,0.056l-0.025,0.055l-0.027,0.055l-0.026,0.054l-0.027,0.055l-0.028,0.053l-0.029,0.053l-0.029,0.054l-0.03,0.052l-0.061,0.104l-0.032,0.051l-0.032,0.051l-0.033,0.051l-0.033,0.05l-0.069,0.099l-0.035,0.048l-0.036,0.049l-0.036,0.048l-0.037,0.047l-0.037,0.047l-0.038,0.047l-0.039,0.046l-0.039,0.045l-0.039,0.045l-0.04,0.045l-0.041,0.044l-0.041,0.044l-0.042,0.043l-0.042,0.043l-0.043,0.042l-0.043,0.042l-0.044,0.041l-0.044,0.041l-0.045,0.04l-0.045,0.039l-0.045,0.039l-0.046,0.039l-0.047,0.038l-0.047,0.037l-0.047,0.037l-0.048,0.036l-0.049,0.036l-0.048,0.035l-0.099,0.069l-0.05,0.033l-0.051,0.033l-0.051,0.032l-0.051,0.032l-0.104,0.061l-0.052,0.03l-0.054,0.029l-0.053,0.029l-0.053,0.028l-0.055,0.027l-0.054,0.026l-0.055,0.027l-0.055,0.025l-0.056,0.025l-0.055,0.024l-0.113,0.046l-0.057,0.022l-0.057,0.021l-0.058,0.021l-0.058,0.02l-0.058,0.019l-0.059,0.019l-0.059,0.018l-0.059,0.017l-0.059,0.016l-0.06,0.016l-0.06,0.016l-0.06,0.014l-0.061,0.014l-0.061,0.013l-0.061,0.012l-0.062,0.011l-0.061,0.01l-0.062,0.01l-0.062,0.009l-0.063,0.009l-0.125,0.014l-0.063,0.006l-0.064,0.006l-0.063,0.004l-0.064,0.004l-0.064,0.002l-0.064,0.003l-0.065,0l-0.064,0.001l-0.064,-0.001l-0.065,0l-0.064,-0.003l-0.064,-0.002l-0.064,-0.004l-0.063,-0.004l-0.064,-0.006l-0.063,-0.006l-0.125,-0.014l-0.063,-0.009l-0.062,-0.009l-0.062,-0.01l-0.061,-0.01l-0.062,-0.011l-0.061,-0.012l-0.061,-0.013l-0.061,-0.014l-0.06,-0.014l-0.06,-0.016l-0.06,-0.016l-0.059,-0.016l-0.059,-0.017l-0.059,-0.018l-0.059,-0.019l-0.058,-0.019l-0.058,-0.02l-0.058,-0.021l-0.057,-0.021l-0.057,-0.022l-0.113,-0.046l-0.055,-0.024l-0.056,-0.025l-0.055,-0.025l-0.055,-0.027l-0.054,-0.026l-0.055,-0.027l-0.053,-0.028l-0.053,-0.029l-0.054,-0.029l-0.052,-0.03l-0.104,-0.061l-0.051,-0.032l-0.051,-0.032l-0.051,-0.033l-0.05,-0.033l-0.099,-0.069l-0.048,-0.035l-0.049,-0.036l-0.048,-0.036l-0.047,-0.037l-0.047,-0.037l-0.047,-0.038l-0.046,-0.039l-0.045,-0.039l-0.045,-0.039l-0.045,-0.04l-0.044,-0.041l-0.044,-0.041l-0.043,-0.042l-0.043,-0.042l-0.042,-0.043l-0.042,-0.043l-0.041,-0.044l-0.041,-0.044l-0.04,-0.045l-0.039,-0.045l-0.039,-0.045l-0.039,-0.046l-0.038,-0.047l-0.037,-0.047l-0.037,-0.047l-0.036,-0.048l-0.036,-0.049l-0.035,-0.048l-0.069,-0.099l-0.033,-0.05l-0.033,-0.051l-0.032,-0.051l-0.032,-0.051l-0.061,-0.104l-0.03,-0.052l-0.029,-0.054l-0.029,-0.053l-0.028,-0.053l-0.027,-0.055l-0.026,-0.054l-0.027,-0.055l-0.025,-0.055l-0.025,-0.056l-0.024,-0.055l-0.046,-0.113l-0.022,-0.057l-0.021,-0.057l-0.021,-0.058l-0.02,-0.058l-0.019,-0.058l-0.019,-0.059l-0.018,-0.059l-0.017,-0.059l-0.016,-0.059l-0.016,-0.06l-0.016,-0.06l-0.014,-0.06l-0.014,-0.061l-0.013,-0.061l-0.012,-0.061l-0.011,-0.062l-0.01,-0.061l-0.01,-0.062l-0.009,-0.062l-0.009,-0.063l-0.014,-0.125l-0.006,-0.063l-0.006,-0.064l-0.004,-0.063l-0.004,-0.064l-0.002,-0.064l-0.003,-0.064l0,-0.065l-0.001,-0.064l0.001,-0.064l0,-0.065l0.003,-0.064l0.002,-0.064l0.004,-0.064l0.004,-0.063l0.006,-0.064l0.006,-0.063l0.014,-0.125l0.009,-0.063l0.009,-0.062l0.01,-0.062l0.01,-0.061l0.011,-0.062l0.012,-0.061l0.013,-0.061l0.014,-0.061l0.014,-0.06l0.016,-0.06l0.016,-0.06l0.016,-0.059l0.017,-0.059l0.018,-0.059l0.019,-0.059l0.019,-0.058l0.02,-0.058l0.021,-0.058l0.021,-0.057l0.022,-0.057l0.046,-0.113l0.024,-0.055l0.025,-0.056l0.025,-0.055l0.027,-0.055l0.026,-0.054l0.027,-0.055l0.028,-0.053l0.029,-0.053l0.029,-0.054l0.03,-0.052l0.061,-0.104l0.032,-0.051l0.032,-0.051l0.033,-0.051l0.033,-0.05l0.069,-0.099l0.035,-0.048l0.036,-0.049l0.036,-0.048l0.037,-0.047l0.037,-0.047l0.038,-0.047l0.039,-0.046l0.039,-0.045l0.039,-0.045l0.04,-0.045l0.041,-0.044l0.041,-0.044l0.042,-0.043l0.042,-0.043l0.043,-0.042l0.043,-0.042l0.044,-0.041l0.044,-0.041l0.045,-0.04l0.045,-0.039l0.045,-0.039l0.046,-0.039l0.047,-0.038l0.047,-0.037l0.047,-0.037l0.048,-0.036l0.049,-0.036l0.048,-0.035l0.099,-0.069l0.05,-0.033l0.051,-0.033l0.051,-0.032l0.051,-0.032l0.104,-0.061l0.052,-0.03l0.054,-0.029l0.053,-0.029l0.053,-0.028l0.055,-0.027l0.054,-0.026l0.055,-0.027l0.055,-0.025l0.056,-0.025l0.055,-0.024l0.113,-0.046l0.057,-0.022l0.057,-0.021l0.058,-0.021l0.058,-0.02l0.058,-0.019l0.059,-0.019l0.059,-0.018l0.059,-0.017l0.059,-0.016l0.06,-0.016l0.06,-0.016l0.06,-0.014l0.061,-0.014l0.061,-0.013l0.061,-0.012l0.062,-0.011l0.061,-0.01l0.062,-0.01l0.062,-0.009l0.063,-0.009l0.125,-0.014l0,0Z" style="fill-opacity:0.30;"/></svg>