<?xml version="1.0" encoding="UTF-8" standalone="no"?>
<svg
   xmlns:dc="http://purl.org/dc/elements/1.1/"
   xmlns:cc="http://creativecommons.org/ns#"
   xmlns:rdf="http://www.w3.org/1999/02/22-rdf-syntax-ns#"
   xmlns:svg="http://www.w3.org/2000/svg"
   xmlns="http://www.w3.org/2000/svg"
   id="svg4"
   style="clip-rule:evenodd;fill-rule:evenodd;stroke-linejoin:round;stroke-miterlimit:1.41420996"
   xml:space="preserve"
   version="1.1"
   viewBox="0 0 18 18"
   height="100%"
   width="100%"><metadata
     id="metadata10"><rdf:RDF><cc:Work
         rdf:about=""><dc:format>image/svg+xml</dc:format><dc:type
           rdf:resource="http://purl.org/dc/dcmitype/StillImage" /><dc:title></dc:title></cc:Work></rdf:RDF></metadata><defs
     id="defs8"><pattern
       id="EMFhbasepattern"
       patternUnits="userSpaceOnUse"
       width="6"
       height="6"
       x="0"
       y="0" /></defs><path
     style="fill:#fbfbfb;fill-opacity:1;fill-rule:evenodd;stroke:#303030;stroke-width:1.99998522px;stroke-linecap:butt;stroke-linejoin:round;stroke-miterlimit:4;stroke-dasharray:none;stroke-opacity:1"
     d="M 9.479982,3.0000296 C 7.559996,2.9200302 5.960008,4.5200183 5.960008,6.4400041 V 7 H 7 V 6.4400041 C 7,5.0800142 8.119992,3.9600225 9.479982,3.9600225 c 1.359989,0 2.479981,1.1199917 2.479981,2.4799816 V 7 h 1.039992 V 6.4400041 C 12.919956,4.5200183 11.399967,2.9200302 9.479982,3.0000296 Z M 5.000015,7.9599929 V 14.99994 h 8.959933 V 7.9599929 Z"
     id="path820" /><path
     style="fill:#e6e6e6;fill-opacity:1;fill-rule:evenodd;stroke:none"
     d="M 5.000015,7.9599929 V 14.99994 h 8.959933 V 7.9599929 Z"
     id="path822" /><path
     style="fill:#e6e6e6;fill-opacity:1;fill-rule:evenodd;stroke:none"
     d="M 9.479982,3.0000296 C 7.559996,2.9200302 5.960008,4.5200183 5.960008,6.4400041 V 7 H 7 V 6.4400041 C 7,5.0800142 8.119992,3.9600225 9.479982,3.9600225 c 1.359989,0 2.479981,1.1199917 2.479981,2.4799816 V 7 h 1.039992 V 6.4400041 c -0.08,-1.9199858 -1.599988,-3.5199739 -3.519973,-3.4399745 z"
     id="path824" /><path
     style="fill:#303030;fill-opacity:1;fill-rule:evenodd;stroke:none"
     d="m 10.99997,10.439975 c 0,0.879993 -0.719994,1.519988 -1.519988,1.519988 -0.879994,0 -1.519989,-0.639995 -1.519989,-1.519988 0,-0.7999946 0.639995,-1.4399898 1.519989,-1.4399898 0.799994,0 1.519988,0.6399952 1.519988,1.4399898 z"
     id="path826" /><path
     style="fill:#303030;fill-opacity:1;fill-rule:evenodd;stroke:none"
     d="m 8.679988,10.99997 h 1.519988 v 2.959978 H 8.679988 Z"
     id="path828" /></svg>